%FSLAX25Y25*%
%MOIN*%
G70*
G01*
G75*
G04 Layer_Physical_Order=2*
G04 Layer_Color=16711680*
%ADD10C,0.02000*%
%ADD11O,0.07000X0.09000*%
%ADD12C,0.07000*%
%ADD13O,0.09000X0.07000*%
%ADD14C,0.06693*%
G36*
X280000Y100000D02*
X100000D01*
Y340000D01*
X280000D01*
Y100000D01*
D02*
G37*
%LPC*%
G36*
X119000Y145000D02*
X114584D01*
X114642Y144564D01*
X115196Y143226D01*
X116077Y142077D01*
X117226Y141196D01*
X118564Y140642D01*
X119000Y140584D01*
Y145000D01*
D02*
G37*
G36*
X260547D02*
X256000D01*
Y139584D01*
X256436Y139642D01*
X257774Y140196D01*
X258923Y141077D01*
X259804Y142226D01*
X260358Y143564D01*
X260547Y145000D01*
D02*
G37*
G36*
X174000D02*
X169453D01*
X169642Y143564D01*
X170196Y142226D01*
X171077Y141077D01*
X172226Y140196D01*
X173564Y139642D01*
X174000Y139584D01*
Y145000D01*
D02*
G37*
G36*
X248416Y265929D02*
X235584D01*
X235642Y265493D01*
X236196Y264155D01*
X236196D01*
X236196Y264155D01*
X235362Y261501D01*
X235092Y260999D01*
X235056Y260964D01*
X233000D01*
X231956Y260826D01*
X230983Y260423D01*
X230147Y259782D01*
X177647Y207282D01*
X177006Y206446D01*
X176603Y205473D01*
X176465Y204429D01*
X176465Y204429D01*
Y155380D01*
X175000Y152548D01*
X173564Y152358D01*
X172226Y151804D01*
X171077Y150923D01*
X170196Y149774D01*
X169642Y148436D01*
X169453Y147000D01*
X175000D01*
Y146000D01*
X176000D01*
Y139584D01*
X176436Y139642D01*
X177774Y140196D01*
Y140196D01*
X177774Y140196D01*
X180635Y139994D01*
X181371Y139569D01*
D01*
X181371D01*
X182501Y138966D01*
X183726Y138594D01*
X183726Y138594D01*
X183958Y138571D01*
X185000Y138469D01*
X186274Y138594D01*
X187499Y138966D01*
X188629Y139569D01*
X190000Y140205D01*
X191371Y139569D01*
X192500Y138966D01*
X193726Y138594D01*
X195000Y138469D01*
X196274Y138594D01*
X197500Y138966D01*
X198629Y139569D01*
X200000Y140205D01*
X201371Y139569D01*
X202501Y138966D01*
X203726Y138594D01*
X205000Y138469D01*
X206274Y138594D01*
X207500Y138966D01*
X208629Y139569D01*
X209618Y140382D01*
X210431Y141371D01*
X210748Y141965D01*
X239252D01*
X239569Y141371D01*
X240382Y140382D01*
X241371Y139569D01*
X242500Y138966D01*
X243726Y138594D01*
X245000Y138469D01*
X246042Y138571D01*
X246274Y138594D01*
X246274Y138594D01*
X247499Y138966D01*
X248629Y139569D01*
X248629Y139569D01*
D01*
X249364Y139994D01*
X252226Y140196D01*
X252226D01*
Y140196D01*
X252226Y140196D01*
X253564Y139642D01*
X254000Y139584D01*
Y146000D01*
Y152416D01*
X253564Y152358D01*
X252226Y151804D01*
Y151804D01*
X252226Y151804D01*
X249571Y152638D01*
X249070Y152908D01*
X249035Y152944D01*
Y233929D01*
X248982Y234331D01*
X249034Y234430D01*
X249406Y235655D01*
X249531Y236929D01*
X249406Y238203D01*
X249034Y239428D01*
X248431Y240558D01*
X247795Y241929D01*
X248431Y243300D01*
X249034Y244429D01*
X249406Y245655D01*
X249531Y246929D01*
X249406Y248203D01*
X249034Y249429D01*
X248431Y250558D01*
X247795Y251929D01*
X248431Y253300D01*
X249034Y254430D01*
X249406Y255655D01*
X249531Y256929D01*
X249429Y257971D01*
X249406Y258203D01*
X249406Y258203D01*
X249034Y259429D01*
X248431Y260558D01*
X248431Y260558D01*
D01*
X248006Y261294D01*
X247804Y264155D01*
Y264155D01*
X247804D01*
X247804Y264155D01*
X248358Y265493D01*
X248416Y265929D01*
D02*
G37*
G36*
X241529Y286127D02*
X240285Y286005D01*
X239089Y285642D01*
X237986Y285052D01*
X237020Y284259D01*
X236227Y283293D01*
X235637Y282190D01*
X235274Y280994D01*
X235152Y279750D01*
X235274Y278506D01*
X235637Y277310D01*
X236227Y276207D01*
X237020Y275241D01*
X237635Y274736D01*
X237874Y273522D01*
X237600Y271252D01*
X237077Y270852D01*
X236196Y269703D01*
X235642Y268365D01*
X235584Y267929D01*
X248416D01*
X248358Y268365D01*
X247804Y269703D01*
X246923Y270852D01*
X246014Y271549D01*
X245732Y272415D01*
X245739Y274995D01*
X246038Y275241D01*
X246831Y276207D01*
X247421Y277310D01*
X247784Y278506D01*
X247906Y279750D01*
X247784Y280994D01*
X247421Y282190D01*
X246831Y283293D01*
X246038Y284259D01*
X245072Y285052D01*
X243969Y285642D01*
X242773Y286005D01*
X241529Y286127D01*
D02*
G37*
G36*
X256000Y152416D02*
Y147000D01*
X260547D01*
X260358Y148436D01*
X259804Y149774D01*
X258923Y150923D01*
X257774Y151804D01*
X256436Y152358D01*
X256000Y152416D01*
D02*
G37*
G36*
X138471Y286127D02*
X137227Y286005D01*
X136031Y285642D01*
X134929Y285052D01*
X133962Y284259D01*
X133169Y283293D01*
X132580Y282190D01*
X132217Y280994D01*
X132094Y279750D01*
X132217Y278506D01*
X132580Y277310D01*
X133169Y276207D01*
X133499Y275805D01*
X133553Y275656D01*
X133432Y273516D01*
X133010Y272142D01*
X132382Y271626D01*
X131569Y270637D01*
X130966Y269507D01*
X130594Y268282D01*
X130469Y267008D01*
X130594Y265734D01*
X130966Y264508D01*
X131215Y264042D01*
X130387Y261915D01*
X129645Y260996D01*
X128956Y260905D01*
X127983Y260502D01*
X127147Y259861D01*
X117147Y249861D01*
X116506Y249025D01*
X116103Y248052D01*
X115965Y247008D01*
X115965Y247008D01*
Y161098D01*
X115382Y160618D01*
X114569Y159629D01*
X113966Y158500D01*
X113594Y157274D01*
X113469Y156000D01*
X113571Y154958D01*
X113594Y154726D01*
X113594Y154726D01*
X113966Y153500D01*
X114569Y152371D01*
X114569Y152371D01*
D01*
X114994Y151636D01*
X115196Y148774D01*
Y148774D01*
X115196D01*
X115196Y148774D01*
X114642Y147436D01*
X114584Y147000D01*
X120000D01*
Y146000D01*
X121000D01*
Y140584D01*
X121436Y140642D01*
X122774Y141196D01*
Y141196D01*
X122774Y141196D01*
X125636Y140994D01*
X126371Y140569D01*
D01*
X126371D01*
X127500Y139966D01*
X128726Y139594D01*
X128726Y139594D01*
X128958Y139571D01*
X130000Y139469D01*
X131274Y139594D01*
X132500Y139966D01*
X133629Y140569D01*
X134618Y141382D01*
X135382D01*
X136371Y140569D01*
X137501Y139966D01*
X138726Y139594D01*
X140000Y139469D01*
X141274Y139594D01*
X142499Y139966D01*
X143629Y140569D01*
X144618Y141382D01*
X145431Y142371D01*
X146034Y143500D01*
X146406Y144726D01*
X146531Y146000D01*
X146457Y146752D01*
X152853Y153147D01*
X152853Y153147D01*
X153494Y153983D01*
X153897Y154956D01*
X154034Y156000D01*
X154034Y156000D01*
Y260000D01*
X153897Y261044D01*
X153494Y262017D01*
X152853Y262853D01*
X145845Y269861D01*
X145010Y270502D01*
X144300Y270796D01*
X143618Y271626D01*
X143414Y271794D01*
X143235Y272134D01*
X143023Y274608D01*
X143215Y275526D01*
X143774Y276207D01*
X144363Y277310D01*
X144726Y278506D01*
X144849Y279750D01*
X144726Y280994D01*
X144363Y282190D01*
X143774Y283293D01*
X142981Y284259D01*
X142015Y285052D01*
X140912Y285642D01*
X139716Y286005D01*
X138471Y286127D01*
D02*
G37*
%LPD*%
D10*
X199500Y214500D02*
X231929Y246929D01*
X242000D01*
X199500Y150500D02*
Y214500D01*
X180500Y204429D02*
X233000Y256929D01*
X130000Y257008D02*
X138000D01*
X120000Y247008D02*
X130000Y257008D01*
X120000Y156000D02*
Y247008D01*
X150000Y156000D02*
Y260000D01*
X142992Y267008D02*
X150000Y260000D01*
X138000Y267008D02*
X142992D01*
X242000Y236929D02*
X245000Y233929D01*
Y146000D02*
Y233929D01*
X205000Y146000D02*
X245000D01*
X138000Y247008D02*
X140000Y245008D01*
Y156000D02*
Y245008D01*
Y146000D02*
X150000Y156000D01*
X120000Y140000D02*
Y146000D01*
Y140000D02*
X130000Y130000D01*
X165000D01*
X175000Y140000D01*
Y146000D01*
X184000Y131000D02*
X246000D01*
X255000Y140000D01*
Y146000D01*
X175000Y140000D02*
X184000Y131000D01*
X233000Y256929D02*
X242000D01*
X180500Y150500D02*
Y204429D01*
Y150500D02*
X185000Y146000D01*
X195000D02*
X199500Y150500D01*
X242000Y266929D02*
X248071D01*
X255000Y260000D01*
Y146000D02*
Y260000D01*
D11*
X245000Y146000D02*
D03*
X255000D02*
D03*
X175000D02*
D03*
X185000D02*
D03*
X195000D02*
D03*
X205000D02*
D03*
D12*
X140000Y156000D02*
D03*
Y146000D02*
D03*
X130000Y156000D02*
D03*
X120000D02*
D03*
Y146000D02*
D03*
X130000D02*
D03*
D13*
X138000Y257008D02*
D03*
Y247008D02*
D03*
Y267008D02*
D03*
X242000Y256929D02*
D03*
Y266929D02*
D03*
Y246929D02*
D03*
Y236929D02*
D03*
D14*
X190000Y190500D02*
D03*
X138471Y279750D02*
D03*
X241529D02*
D03*
M02*
