%FSLAX25Y25*%
%MOIN*%
G70*
G01*
G75*
G04 Layer_Color=2752767*
%ADD10C,0.02000*%
%ADD11O,0.07000X0.09000*%
%ADD12C,0.07000*%
%ADD13O,0.09000X0.07000*%
%ADD14C,0.06693*%
%ADD15C,0.01000*%
%ADD16C,0.00787*%
%ADD17C,0.01500*%
%ADD18C,0.00800*%
%ADD19O,0.07800X0.09800*%
%ADD20C,0.07800*%
%ADD21O,0.09800X0.07800*%
%ADD22C,0.07493*%
%ADD23C,0.00800*%
%ADD24C,0.00500*%
D24*
X247499Y146000D02*
Y150998D01*
X245000Y148499D01*
X248332D01*
X249998Y150165D02*
X250831Y150998D01*
X252498D01*
X253331Y150165D01*
Y146833D01*
X252498Y146000D01*
X250831D01*
X249998Y146833D01*
Y150165D01*
X254997Y146000D02*
Y146833D01*
X255830D01*
Y146000D01*
X254997D01*
X259162D02*
X260828D01*
X259995D01*
Y150998D01*
X259162Y150165D01*
X266660Y150998D02*
X263327D01*
Y148499D01*
X264994Y149332D01*
X265827D01*
X266660Y148499D01*
Y146833D01*
X265827Y146000D01*
X264160D01*
X263327Y146833D01*
X268326Y150998D02*
X271658D01*
Y150165D01*
X268326Y146833D01*
Y146000D01*
X257499D02*
Y150998D01*
X255000Y148499D01*
X258332D01*
X259998Y150165D02*
X260831Y150998D01*
X262498D01*
X263331Y150165D01*
Y146833D01*
X262498Y146000D01*
X260831D01*
X259998Y146833D01*
Y150165D01*
X264997Y146000D02*
Y146833D01*
X265830D01*
Y146000D01*
X264997D01*
X269162D02*
X270828D01*
X269995D01*
Y150998D01*
X269162Y150165D01*
X276660Y150998D02*
X273327D01*
Y148499D01*
X274993Y149332D01*
X275827D01*
X276660Y148499D01*
Y146833D01*
X275827Y146000D01*
X274161D01*
X273327Y146833D01*
X278326Y150998D02*
X281658D01*
Y150165D01*
X278326Y146833D01*
Y146000D01*
X177499D02*
Y150998D01*
X175000Y148499D01*
X178332D01*
X179998Y150165D02*
X180831Y150998D01*
X182498D01*
X183331Y150165D01*
Y146833D01*
X182498Y146000D01*
X180831D01*
X179998Y146833D01*
Y150165D01*
X184997Y146000D02*
Y146833D01*
X185830D01*
Y146000D01*
X184997D01*
X189162D02*
X190828D01*
X189995D01*
Y150998D01*
X189162Y150165D01*
X196660Y150998D02*
X193327D01*
Y148499D01*
X194993Y149332D01*
X195827D01*
X196660Y148499D01*
Y146833D01*
X195827Y146000D01*
X194160D01*
X193327Y146833D01*
X198326Y150998D02*
X201658D01*
Y150165D01*
X198326Y146833D01*
Y146000D01*
X187499D02*
Y150998D01*
X185000Y148499D01*
X188332D01*
X189998Y150165D02*
X190831Y150998D01*
X192498D01*
X193331Y150165D01*
Y146833D01*
X192498Y146000D01*
X190831D01*
X189998Y146833D01*
Y150165D01*
X194997Y146000D02*
Y146833D01*
X195830D01*
Y146000D01*
X194997D01*
X199162D02*
X200828D01*
X199995D01*
Y150998D01*
X199162Y150165D01*
X206660Y150998D02*
X203327D01*
Y148499D01*
X204994Y149332D01*
X205827D01*
X206660Y148499D01*
Y146833D01*
X205827Y146000D01*
X204160D01*
X203327Y146833D01*
X208326Y150998D02*
X211658D01*
Y150165D01*
X208326Y146833D01*
Y146000D01*
X197499D02*
Y150998D01*
X195000Y148499D01*
X198332D01*
X199998Y150165D02*
X200831Y150998D01*
X202498D01*
X203331Y150165D01*
Y146833D01*
X202498Y146000D01*
X200831D01*
X199998Y146833D01*
Y150165D01*
X204997Y146000D02*
Y146833D01*
X205830D01*
Y146000D01*
X204997D01*
X209162D02*
X210828D01*
X209995D01*
Y150998D01*
X209162Y150165D01*
X216660Y150998D02*
X213327D01*
Y148499D01*
X214994Y149332D01*
X215827D01*
X216660Y148499D01*
Y146833D01*
X215827Y146000D01*
X214160D01*
X213327Y146833D01*
X218326Y150998D02*
X221658D01*
Y150165D01*
X218326Y146833D01*
Y146000D01*
X207499D02*
Y150998D01*
X205000Y148499D01*
X208332D01*
X209998Y150165D02*
X210831Y150998D01*
X212498D01*
X213331Y150165D01*
Y146833D01*
X212498Y146000D01*
X210831D01*
X209998Y146833D01*
Y150165D01*
X214997Y146000D02*
Y146833D01*
X215830D01*
Y146000D01*
X214997D01*
X219162D02*
X220828D01*
X219995D01*
Y150998D01*
X219162Y150165D01*
X226660Y150998D02*
X223327D01*
Y148499D01*
X224993Y149332D01*
X225827D01*
X226660Y148499D01*
Y146833D01*
X225827Y146000D01*
X224161D01*
X223327Y146833D01*
X228326Y150998D02*
X231658D01*
Y150165D01*
X228326Y146833D01*
Y146000D01*
X142499Y156000D02*
Y160998D01*
X140000Y158499D01*
X143332D01*
X144998Y160165D02*
X145831Y160998D01*
X147498D01*
X148331Y160165D01*
Y156833D01*
X147498Y156000D01*
X145831D01*
X144998Y156833D01*
Y160165D01*
X149997Y156000D02*
Y156833D01*
X150830D01*
Y156000D01*
X149997D01*
X154162D02*
X155828D01*
X154995D01*
Y160998D01*
X154162Y160165D01*
X161660Y160998D02*
X158327D01*
Y158499D01*
X159994Y159332D01*
X160827D01*
X161660Y158499D01*
Y156833D01*
X160827Y156000D01*
X159160D01*
X158327Y156833D01*
X163326Y160998D02*
X166658D01*
Y160165D01*
X163326Y156833D01*
Y156000D01*
X142499Y146000D02*
Y150998D01*
X140000Y148499D01*
X143332D01*
X144998Y150165D02*
X145831Y150998D01*
X147498D01*
X148331Y150165D01*
Y146833D01*
X147498Y146000D01*
X145831D01*
X144998Y146833D01*
Y150165D01*
X149997Y146000D02*
Y146833D01*
X150830D01*
Y146000D01*
X149997D01*
X154162D02*
X155828D01*
X154995D01*
Y150998D01*
X154162Y150165D01*
X161660Y150998D02*
X158327D01*
Y148499D01*
X159994Y149332D01*
X160827D01*
X161660Y148499D01*
Y146833D01*
X160827Y146000D01*
X159160D01*
X158327Y146833D01*
X163326Y150998D02*
X166658D01*
Y150165D01*
X163326Y146833D01*
Y146000D01*
X132499Y156000D02*
Y160998D01*
X130000Y158499D01*
X133332D01*
X134998Y160165D02*
X135831Y160998D01*
X137498D01*
X138331Y160165D01*
Y156833D01*
X137498Y156000D01*
X135831D01*
X134998Y156833D01*
Y160165D01*
X139997Y156000D02*
Y156833D01*
X140830D01*
Y156000D01*
X139997D01*
X144162D02*
X145828D01*
X144995D01*
Y160998D01*
X144162Y160165D01*
X151660Y160998D02*
X148327D01*
Y158499D01*
X149994Y159332D01*
X150827D01*
X151660Y158499D01*
Y156833D01*
X150827Y156000D01*
X149161D01*
X148327Y156833D01*
X153326Y160998D02*
X156658D01*
Y160165D01*
X153326Y156833D01*
Y156000D01*
X122499D02*
Y160998D01*
X120000Y158499D01*
X123332D01*
X124998Y160165D02*
X125831Y160998D01*
X127498D01*
X128331Y160165D01*
Y156833D01*
X127498Y156000D01*
X125831D01*
X124998Y156833D01*
Y160165D01*
X129997Y156000D02*
Y156833D01*
X130830D01*
Y156000D01*
X129997D01*
X134162D02*
X135828D01*
X134995D01*
Y160998D01*
X134162Y160165D01*
X141660Y160998D02*
X138327D01*
Y158499D01*
X139994Y159332D01*
X140827D01*
X141660Y158499D01*
Y156833D01*
X140827Y156000D01*
X139161D01*
X138327Y156833D01*
X143326Y160998D02*
X146658D01*
Y160165D01*
X143326Y156833D01*
Y156000D01*
X122499Y146000D02*
Y150998D01*
X120000Y148499D01*
X123332D01*
X124998Y150165D02*
X125831Y150998D01*
X127498D01*
X128331Y150165D01*
Y146833D01*
X127498Y146000D01*
X125831D01*
X124998Y146833D01*
Y150165D01*
X129997Y146000D02*
Y146833D01*
X130830D01*
Y146000D01*
X129997D01*
X134162D02*
X135828D01*
X134995D01*
Y150998D01*
X134162Y150165D01*
X141660Y150998D02*
X138327D01*
Y148499D01*
X139994Y149332D01*
X140827D01*
X141660Y148499D01*
Y146833D01*
X140827Y146000D01*
X139161D01*
X138327Y146833D01*
X143326Y150998D02*
X146658D01*
Y150165D01*
X143326Y146833D01*
Y146000D01*
X132499D02*
Y150998D01*
X130000Y148499D01*
X133332D01*
X134998Y150165D02*
X135831Y150998D01*
X137498D01*
X138331Y150165D01*
Y146833D01*
X137498Y146000D01*
X135831D01*
X134998Y146833D01*
Y150165D01*
X139997Y146000D02*
Y146833D01*
X140830D01*
Y146000D01*
X139997D01*
X144162D02*
X145828D01*
X144995D01*
Y150998D01*
X144162Y150165D01*
X151660Y150998D02*
X148327D01*
Y148499D01*
X149994Y149332D01*
X150827D01*
X151660Y148499D01*
Y146833D01*
X150827Y146000D01*
X149161D01*
X148327Y146833D01*
X153326Y150998D02*
X156658D01*
Y150165D01*
X153326Y146833D01*
Y146000D01*
X140499Y257008D02*
Y262006D01*
X138000Y259507D01*
X141332D01*
X142998Y261173D02*
X143831Y262006D01*
X145498D01*
X146331Y261173D01*
Y257841D01*
X145498Y257008D01*
X143831D01*
X142998Y257841D01*
Y261173D01*
X147997Y257008D02*
Y257841D01*
X148830D01*
Y257008D01*
X147997D01*
X152162D02*
X153828D01*
X152995D01*
Y262006D01*
X152162Y261173D01*
X159660Y262006D02*
X156327D01*
Y259507D01*
X157993Y260340D01*
X158827D01*
X159660Y259507D01*
Y257841D01*
X158827Y257008D01*
X157160D01*
X156327Y257841D01*
X161326Y262006D02*
X164658D01*
Y261173D01*
X161326Y257841D01*
Y257008D01*
X140499Y247008D02*
Y252006D01*
X138000Y249507D01*
X141332D01*
X142998Y251173D02*
X143831Y252006D01*
X145498D01*
X146331Y251173D01*
Y247841D01*
X145498Y247008D01*
X143831D01*
X142998Y247841D01*
Y251173D01*
X147997Y247008D02*
Y247841D01*
X148830D01*
Y247008D01*
X147997D01*
X152162D02*
X153828D01*
X152995D01*
Y252006D01*
X152162Y251173D01*
X159660Y252006D02*
X156327D01*
Y249507D01*
X157993Y250340D01*
X158827D01*
X159660Y249507D01*
Y247841D01*
X158827Y247008D01*
X157160D01*
X156327Y247841D01*
X161326Y252006D02*
X164658D01*
Y251173D01*
X161326Y247841D01*
Y247008D01*
X140499Y267008D02*
Y272006D01*
X138000Y269507D01*
X141332D01*
X142998Y271173D02*
X143831Y272006D01*
X145498D01*
X146331Y271173D01*
Y267841D01*
X145498Y267008D01*
X143831D01*
X142998Y267841D01*
Y271173D01*
X147997Y267008D02*
Y267841D01*
X148830D01*
Y267008D01*
X147997D01*
X152162D02*
X153828D01*
X152995D01*
Y272006D01*
X152162Y271173D01*
X159660Y272006D02*
X156327D01*
Y269507D01*
X157993Y270340D01*
X158827D01*
X159660Y269507D01*
Y267841D01*
X158827Y267008D01*
X157160D01*
X156327Y267841D01*
X161326Y272006D02*
X164658D01*
Y271173D01*
X161326Y267841D01*
Y267008D01*
X244499Y256929D02*
Y261927D01*
X242000Y259428D01*
X245332D01*
X246998Y261094D02*
X247831Y261927D01*
X249498D01*
X250331Y261094D01*
Y257762D01*
X249498Y256929D01*
X247831D01*
X246998Y257762D01*
Y261094D01*
X251997Y256929D02*
Y257762D01*
X252830D01*
Y256929D01*
X251997D01*
X256162D02*
X257828D01*
X256995D01*
Y261927D01*
X256162Y261094D01*
X263660Y261927D02*
X260327D01*
Y259428D01*
X261994Y260261D01*
X262827D01*
X263660Y259428D01*
Y257762D01*
X262827Y256929D01*
X261160D01*
X260327Y257762D01*
X265326Y261927D02*
X268658D01*
Y261094D01*
X265326Y257762D01*
Y256929D01*
X244499Y266929D02*
Y271927D01*
X242000Y269428D01*
X245332D01*
X246998Y271094D02*
X247831Y271927D01*
X249498D01*
X250331Y271094D01*
Y267762D01*
X249498Y266929D01*
X247831D01*
X246998Y267762D01*
Y271094D01*
X251997Y266929D02*
Y267762D01*
X252830D01*
Y266929D01*
X251997D01*
X256162D02*
X257828D01*
X256995D01*
Y271927D01*
X256162Y271094D01*
X263660Y271927D02*
X260327D01*
Y269428D01*
X261994Y270261D01*
X262827D01*
X263660Y269428D01*
Y267762D01*
X262827Y266929D01*
X261160D01*
X260327Y267762D01*
X265326Y271927D02*
X268658D01*
Y271094D01*
X265326Y267762D01*
Y266929D01*
X244499Y246929D02*
Y251927D01*
X242000Y249428D01*
X245332D01*
X246998Y251094D02*
X247831Y251927D01*
X249498D01*
X250331Y251094D01*
Y247762D01*
X249498Y246929D01*
X247831D01*
X246998Y247762D01*
Y251094D01*
X251997Y246929D02*
Y247762D01*
X252830D01*
Y246929D01*
X251997D01*
X256162D02*
X257828D01*
X256995D01*
Y251927D01*
X256162Y251094D01*
X263660Y251927D02*
X260327D01*
Y249428D01*
X261994Y250261D01*
X262827D01*
X263660Y249428D01*
Y247762D01*
X262827Y246929D01*
X261160D01*
X260327Y247762D01*
X265326Y251927D02*
X268658D01*
Y251094D01*
X265326Y247762D01*
Y246929D01*
X244499Y236929D02*
Y241927D01*
X242000Y239428D01*
X245332D01*
X246998Y241094D02*
X247831Y241927D01*
X249498D01*
X250331Y241094D01*
Y237762D01*
X249498Y236929D01*
X247831D01*
X246998Y237762D01*
Y241094D01*
X251997Y236929D02*
Y237762D01*
X252830D01*
Y236929D01*
X251997D01*
X256162D02*
X257828D01*
X256995D01*
Y241927D01*
X256162Y241094D01*
X263660Y241927D02*
X260327D01*
Y239428D01*
X261994Y240261D01*
X262827D01*
X263660Y239428D01*
Y237762D01*
X262827Y236929D01*
X261160D01*
X260327Y237762D01*
X265326Y241927D02*
X268658D01*
Y241094D01*
X265326Y237762D01*
Y236929D01*
X193332Y195498D02*
X191666Y194665D01*
X190000Y192999D01*
Y191333D01*
X190833Y190500D01*
X192499D01*
X193332Y191333D01*
Y192166D01*
X192499Y192999D01*
X190000D01*
X198331Y195498D02*
X196665Y194665D01*
X194998Y192999D01*
Y191333D01*
X195831Y190500D01*
X197498D01*
X198331Y191333D01*
Y192166D01*
X197498Y192999D01*
X194998D01*
X199997Y190500D02*
Y191333D01*
X200830D01*
Y190500D01*
X199997D01*
X204162Y191333D02*
X204995Y190500D01*
X206661D01*
X207494Y191333D01*
Y194665D01*
X206661Y195498D01*
X204995D01*
X204162Y194665D01*
Y193832D01*
X204995Y192999D01*
X207494D01*
X212493Y190500D02*
X209160D01*
X212493Y193832D01*
Y194665D01*
X211660Y195498D01*
X209994D01*
X209160Y194665D01*
X214159Y191333D02*
X214992Y190500D01*
X216658D01*
X217491Y191333D01*
Y194665D01*
X216658Y195498D01*
X214992D01*
X214159Y194665D01*
Y193832D01*
X214992Y192999D01*
X217491D01*
X141804Y284748D02*
X140138Y283915D01*
X138471Y282249D01*
Y280583D01*
X139305Y279750D01*
X140971D01*
X141804Y280583D01*
Y281416D01*
X140971Y282249D01*
X138471D01*
X146802Y284748D02*
X145136Y283915D01*
X143470Y282249D01*
Y280583D01*
X144303Y279750D01*
X145969D01*
X146802Y280583D01*
Y281416D01*
X145969Y282249D01*
X143470D01*
X148468Y279750D02*
Y280583D01*
X149301D01*
Y279750D01*
X148468D01*
X152634Y280583D02*
X153467Y279750D01*
X155133D01*
X155966Y280583D01*
Y283915D01*
X155133Y284748D01*
X153467D01*
X152634Y283915D01*
Y283082D01*
X153467Y282249D01*
X155966D01*
X160964Y279750D02*
X157632D01*
X160964Y283082D01*
Y283915D01*
X160131Y284748D01*
X158465D01*
X157632Y283915D01*
X162630Y280583D02*
X163463Y279750D01*
X165129D01*
X165963Y280583D01*
Y283915D01*
X165129Y284748D01*
X163463D01*
X162630Y283915D01*
Y283082D01*
X163463Y282249D01*
X165963D01*
X244861Y284748D02*
X243195Y283915D01*
X241529Y282249D01*
Y280583D01*
X242362Y279750D01*
X244028D01*
X244861Y280583D01*
Y281416D01*
X244028Y282249D01*
X241529D01*
X249860Y284748D02*
X248194Y283915D01*
X246527Y282249D01*
Y280583D01*
X247360Y279750D01*
X249027D01*
X249860Y280583D01*
Y281416D01*
X249027Y282249D01*
X246527D01*
X251526Y279750D02*
Y280583D01*
X252359D01*
Y279750D01*
X251526D01*
X255691Y280583D02*
X256524Y279750D01*
X258190D01*
X259023Y280583D01*
Y283915D01*
X258190Y284748D01*
X256524D01*
X255691Y283915D01*
Y283082D01*
X256524Y282249D01*
X259023D01*
X264022Y279750D02*
X260689D01*
X264022Y283082D01*
Y283915D01*
X263189Y284748D01*
X261523D01*
X260689Y283915D01*
X265688Y280583D02*
X266521Y279750D01*
X268187D01*
X269020Y280583D01*
Y283915D01*
X268187Y284748D01*
X266521D01*
X265688Y283915D01*
Y283082D01*
X266521Y282249D01*
X269020D01*
M02*
