M48
;Layer_Color=9474304
;FILE_FORMAT=2:5
INCH,LZ
;TYPE=PLATED
T1F00S00C0.04016
T2F00S00C0.06693
%
T01
X1156Y01265
Y01365
X1142Y0186929
Y0196929
Y0206929
Y0216929
X11395Y0282
Y0292
Y0302
X11495
Y0292
Y0282
X1038Y0217008
Y0207008
Y0197008
X0962Y0196929
Y0206929
Y0216929
Y0186929
X0858Y0197008
Y0207008
Y0217008
X0782Y0216929
Y0206929
Y0196929
Y0186929
X0678Y0197008
Y0207008
Y0217008
X0602Y0216929
Y0206929
Y0196929
Y0186929
X0498Y0197008
Y0207008
Y0217008
X0422Y0216929
Y0206929
Y0196929
Y0186929
X0318Y0197008
Y0207008
Y0217008
X0242Y0216929
Y0206929
Y0196929
Y0186929
X0138Y0197008
Y0207008
Y0217008
Y0377008
Y0387008
Y0397008
X0242Y0396929
Y0386929
Y0376929
Y0366929
X0318Y0377008
Y0387008
Y0397008
X0422Y0396929
Y0386929
Y0376929
Y0366929
X0498Y0377008
Y0387008
Y0397008
X0602Y0396929
Y0386929
Y0376929
Y0366929
X0678Y0377008
Y0387008
Y0397008
X0782Y0396929
Y0386929
Y0376929
Y0366929
X0858Y0377008
Y0387008
Y0397008
X0962Y0396929
Y0386929
Y0376929
Y0366929
X1038Y0377008
Y0387008
Y0397008
X1142Y0396929
Y0386929
Y0376929
Y0366929
T02
X019Y01405
X037
X055
X073
X091
X109
X1141529Y022975
X1038472
X0961529
X0858472
X0781529
X0678472
X0601529
X0498472
X0421529
X0318472
X0241529
X0138472
Y040975
X0241529
X019Y03205
X037
X0318472Y040975
X0421529
X0498472
X0601529
X055Y03205
X073
X0678472Y040975
X0781529
X0858472
X091Y03205
X0961529Y040975
X1038472
X109Y03205
X1141529Y040975
M30
