M48
;Layer_Color=9474304
;FILE_FORMAT=2:5
INCH,LZ
;TYPE=PLATED
T1F00S00C0.00800
T2F00S00C0.02362
T3F00S00C0.03200
T4F00S00C0.03543
T5F00S00C0.04921
T6F00S00C0.06693
%
T01
X00232Y00357
X0032Y003405
X00365Y0034
X0040937Y00367
X0047Y00425
Y00485
X0053Y0054
X0059342Y00486
X0059Y0042
X0060001Y0032932
X0057Y00305
X0060392Y0025222
X0066Y0028
X00647Y00342
X00781Y00347
X0074Y0041
X00729Y00459
X00715Y0048
X00765Y00485
X00705Y0053
X0068Y0057
Y00605
X007Y00622
X0067561Y0067561
X00745Y0068
X0076Y00725
X00795Y0069
X00835Y0068
X00865Y0069
X00935Y00695
X0096Y0068
X009905Y00605
X01012Y00559
X00935Y0056
X00895Y00595
X00825Y0058
X0080677Y0062258
X0084Y007625
X0088321Y0075
X0084Y0083
X00835Y00945
X00867Y00964
X009Y0097
X00958Y00952
X00959Y00874
X0106Y0088
X01035Y00935
X01075Y0096
X01115Y01012
X01118Y01056
X01064Y01069
X0101291Y01054
X0096Y01065
X0096367Y011075
X0099Y0111
X0097Y01155
X00957Y01214
X01022Y01279
X0105744Y0118328
X01069Y01146
X010335Y01134
X01115Y0114
X01171Y01074
X01195Y01075
X01245Y0108
X0127645Y0110057
X01267Y01026
X012835Y010095
X01267Y00942
Y00919
X0121738
X01195Y00905
X0116Y0091
X01167Y0085871
X01105Y00825
X0109Y0079
X0106Y0077
X0105227Y00735
X01055Y0071
X01085Y0069
X0107Y00645
X01065Y006
X01105Y00565
X01135Y00525
X0115Y006
X01155Y00665
X0126797Y0065797
X01255Y0062
X01235Y0059
X0129Y00585
X0129832Y0051848
X0132Y00425
X0130833Y0034333
X0128Y00345
X0122Y0033
X011815Y0041551
X01185Y0047
X01155Y0045
X0110411Y0039411
X0092151Y0037031
X00945Y00345
X00949Y0028618
X0088532Y00291
X00855Y00385
X00885Y0048256
X0069459Y0074459
X0068Y008
X006905Y00865
X0072Y00915
X00745
X00717Y00963
X00676Y00953
X0061Y00955
X0063808Y01049
X00755Y0104
X00825Y01055
X0087Y01035
X00875Y0107
X0077555Y0097439
X0074059Y0116559
X0076Y01205
X0073134Y01245
X0070134Y01225
X0067134Y01245
X00685Y0116
X005281Y01164
X00535Y011279
X00515Y01067
X00422Y01031
X0036Y0103791
X003795Y01135
X004385Y011759
X00455Y01225
X00504Y01204
X00521Y0122
X005181Y01296
X00545Y01345
X0063Y0144
X00565Y01525
X0043Y01475
X0028Y01375
X0019Y00965
X00075Y0093743
X00075Y00695
X0008Y00645
X00152Y00635
X00121Y00604
X00205Y00605
X0022Y00625
X0023Y0059
X0026Y00565
X00275Y00525
X0027Y00485
X00305Y00455
Y0054921
Y00605
X0026Y00661
X00225Y0074
X00325Y00715
Y00815
X00435Y0072
X0045888Y0068
X005685Y006635
X00575Y0071
X0049Y0087
X00422Y00924
X0044209Y00972
X0035Y00515
X00365Y00268
X00445Y0015
X00526Y00228
X00565Y00085
X00985Y0007
X011Y0009
X01325Y0022
X01415Y00545
X01305Y00765
X01267Y00849
X01196Y01016
X0118531Y01215
X012Y0128
X0132Y01215
X0135Y0136
X01065Y0138
X0099Y01475
X01095Y01535
X0077Y01505
X00778Y01445
X00825Y013145
X01401Y00987
X0146Y009155
X01515Y0087
X01537Y0099
X0156Y01015
X01575Y0093743
T02
X0019076Y0042928
X0016518Y004736
X0119437Y006326
Y007074
X0148483Y004736
X0145924Y0042928
X0085059Y0157213
X0079941
T03
X004009Y0029043
X004875Y0024043
X005741Y0019043
X010759
X011625Y0024043
X012491Y0029043
X015Y00725
Y00825
Y00925
X012491Y0135957
X011625Y0140957
X010759Y0145957
X005741Y0145975
X004875Y0140975
X004009Y0135975
X0015Y00925
Y00825
Y00725
T04
X01345Y0069508
Y0079508
Y0089508
Y0099508
T05
X0070067Y0134248
X0090933
T06
X00825Y0023
X0030972Y011225
X0134029
M30
