G04 Layer_Physical_Order=1*
G04 Layer_Color=255*
%FSLAX25Y25*%
%MOIN*%
G70*
G01*
G75*
%ADD10O,0.03937X0.01575*%
%ADD11R,0.03937X0.01575*%
%ADD12P,0.08352X4X165.0*%
%ADD13R,0.05906X0.05906*%
%ADD14P,0.08352X4X285.0*%
%ADD15R,0.02000X0.01575*%
%ADD16R,0.05906X0.01772*%
%ADD17R,0.01575X0.01969*%
%ADD18R,0.04331X0.03543*%
%ADD19R,0.04331X0.02559*%
%ADD20P,0.06125X4X75.0*%
%ADD21P,0.06125X4X195.0*%
%ADD22R,0.04331X0.04331*%
%ADD23R,0.05512X0.04331*%
%ADD24R,0.04331X0.10236*%
%ADD25R,0.02362X0.01969*%
%ADD26R,0.01969X0.02362*%
G04:AMPARAMS|DCode=27|XSize=19.69mil|YSize=23.62mil|CornerRadius=0mil|HoleSize=0mil|Usage=FLASHONLY|Rotation=210.000|XOffset=0mil|YOffset=0mil|HoleType=Round|Shape=Rectangle|*
%AMROTATEDRECTD27*
4,1,4,0.00262,0.01515,0.01443,-0.00531,-0.00262,-0.01515,-0.01443,0.00531,0.00262,0.01515,0.0*
%
%ADD27ROTATEDRECTD27*%

G04:AMPARAMS|DCode=28|XSize=19.69mil|YSize=23.62mil|CornerRadius=0mil|HoleSize=0mil|Usage=FLASHONLY|Rotation=330.000|XOffset=0mil|YOffset=0mil|HoleType=Round|Shape=Rectangle|*
%AMROTATEDRECTD28*
4,1,4,-0.01443,-0.00531,-0.00262,0.01515,0.01443,0.00531,0.00262,-0.01515,-0.01443,-0.00531,0.0*
%
%ADD28ROTATEDRECTD28*%

G04:AMPARAMS|DCode=29|XSize=19.69mil|YSize=23.62mil|CornerRadius=0mil|HoleSize=0mil|Usage=FLASHONLY|Rotation=60.000|XOffset=0mil|YOffset=0mil|HoleType=Round|Shape=Rectangle|*
%AMROTATEDRECTD29*
4,1,4,0.00531,-0.01443,-0.01515,-0.00262,-0.00531,0.01443,0.01515,0.00262,0.00531,-0.01443,0.0*
%
%ADD29ROTATEDRECTD29*%

G04:AMPARAMS|DCode=30|XSize=19.69mil|YSize=23.62mil|CornerRadius=0mil|HoleSize=0mil|Usage=FLASHONLY|Rotation=120.000|XOffset=0mil|YOffset=0mil|HoleType=Round|Shape=Rectangle|*
%AMROTATEDRECTD30*
4,1,4,0.01515,-0.00262,-0.00531,-0.01443,-0.01515,0.00262,0.00531,0.01443,0.01515,-0.00262,0.0*
%
%ADD30ROTATEDRECTD30*%

%ADD31R,0.03150X0.03543*%
G04:AMPARAMS|DCode=32|XSize=66.93mil|YSize=43.31mil|CornerRadius=0mil|HoleSize=0mil|Usage=FLASHONLY|Rotation=330.000|XOffset=0mil|YOffset=0mil|HoleType=Round|Shape=Rectangle|*
%AMROTATEDRECTD32*
4,1,4,-0.03981,-0.00202,-0.01815,0.03549,0.03981,0.00202,0.01815,-0.03549,-0.03981,-0.00202,0.0*
%
%ADD32ROTATEDRECTD32*%

%ADD33R,0.04331X0.06693*%
G04:AMPARAMS|DCode=34|XSize=66.93mil|YSize=43.31mil|CornerRadius=0mil|HoleSize=0mil|Usage=FLASHONLY|Rotation=30.000|XOffset=0mil|YOffset=0mil|HoleType=Round|Shape=Rectangle|*
%AMROTATEDRECTD34*
4,1,4,-0.01815,-0.03549,-0.03981,0.00202,0.01815,0.03549,0.03981,-0.00202,-0.01815,-0.03549,0.0*
%
%ADD34ROTATEDRECTD34*%

%ADD35R,0.03543X0.03150*%
%ADD36R,0.04331X0.02362*%
%ADD37C,0.00500*%
%ADD38C,0.02000*%
%ADD39C,0.00984*%
%ADD40C,0.03937*%
%ADD41O,0.06890X0.11811*%
%ADD42C,0.05906*%
%ADD43C,0.04800*%
%ADD44C,0.10630*%
%ADD45C,0.01800*%
G36*
X87899Y164867D02*
X93274Y164338D01*
X98604Y163458D01*
X103864Y162232D01*
X109033Y160664D01*
X114088Y158761D01*
X119008Y156532D01*
X123772Y153985D01*
X128359Y151133D01*
X132750Y147987D01*
X136925Y144560D01*
X140868Y140868D01*
X144560Y136925D01*
X147987Y132750D01*
X151133Y128359D01*
X153985Y123772D01*
X156532Y119008D01*
X158761Y114088D01*
X160664Y109033D01*
X162232Y103864D01*
X163458Y98604D01*
X164338Y93274D01*
X164867Y87899D01*
X165044Y82500D01*
X164867Y77101D01*
X164338Y71726D01*
X163458Y66396D01*
X162232Y61136D01*
X160664Y55967D01*
X158761Y50912D01*
X156532Y45992D01*
X153985Y41228D01*
X151133Y36641D01*
X147987Y32250D01*
X144560Y28075D01*
X140868Y24132D01*
X136925Y20440D01*
X132750Y17013D01*
X128359Y13867D01*
X123772Y11015D01*
X119008Y8468D01*
X114088Y6239D01*
X109033Y4336D01*
X103864Y2768D01*
X98604Y1542D01*
X93274Y662D01*
X87899Y132D01*
X82500Y-44D01*
X77101Y132D01*
X71726Y662D01*
X66396Y1542D01*
X61136Y2768D01*
X55967Y4336D01*
X50912Y6239D01*
X45992Y8468D01*
X41228Y11015D01*
X36641Y13867D01*
X32250Y17013D01*
X28075Y20440D01*
X24132Y24132D01*
X20440Y28075D01*
X17013Y32250D01*
X13867Y36641D01*
X11015Y41228D01*
X8468Y45992D01*
X6239Y50912D01*
X4336Y55967D01*
X2768Y61136D01*
X1542Y66396D01*
X662Y71726D01*
X132Y77101D01*
X-44Y82500D01*
X132Y87899D01*
X662Y93274D01*
X1542Y98604D01*
X2768Y103864D01*
X4336Y109033D01*
X6239Y114088D01*
X8468Y119008D01*
X11015Y123772D01*
X13867Y128359D01*
X17013Y132750D01*
X20440Y136925D01*
X24132Y140868D01*
X28075Y144560D01*
X32250Y147987D01*
X36641Y151133D01*
X41228Y153985D01*
X45992Y156532D01*
X50912Y158761D01*
X55967Y160664D01*
X61136Y162232D01*
X66396Y163458D01*
X71726Y164338D01*
X77101Y164867D01*
X82500Y165044D01*
X87899Y164867D01*
D02*
G37*
%LPC*%
G36*
X116067Y23360D02*
X113587Y21929D01*
X113825Y21619D01*
X114535Y21073D01*
X115362Y20731D01*
X116250Y20614D01*
X117138Y20731D01*
X117499Y20880D01*
X116067Y23360D01*
D02*
G37*
G36*
X116250Y27473D02*
X115362Y27356D01*
X115001Y27206D01*
X116433Y24726D01*
X118913Y26158D01*
X118675Y26468D01*
X117965Y27013D01*
X117138Y27356D01*
X116250Y27473D01*
D02*
G37*
G36*
X124910Y31968D02*
X124153Y31869D01*
X123448Y31576D01*
X122842Y31112D01*
X122377Y30506D01*
X122085Y29801D01*
X121985Y29043D01*
X122085Y28286D01*
X122377Y27581D01*
X122842Y26975D01*
X123448Y26510D01*
X124153Y26218D01*
X124910Y26118D01*
X125667Y26218D01*
X126373Y26510D01*
X126979Y26975D01*
X127443Y27581D01*
X127735Y28286D01*
X127835Y29043D01*
X127735Y29801D01*
X127443Y30506D01*
X126979Y31112D01*
X126373Y31576D01*
X125667Y31869D01*
X124910Y31968D01*
D02*
G37*
G36*
X44000Y14500D02*
X42662D01*
X42710Y14259D01*
X43130Y13630D01*
X43759Y13210D01*
X44000Y13162D01*
Y14500D01*
D02*
G37*
G36*
X99000Y8838D02*
Y7500D01*
X100338D01*
X100290Y7741D01*
X99870Y8370D01*
X99241Y8790D01*
X99000Y8838D01*
D02*
G37*
G36*
X98000D02*
X97759Y8790D01*
X97130Y8370D01*
X96710Y7741D01*
X96662Y7500D01*
X98000D01*
Y8838D01*
D02*
G37*
G36*
X7000Y95581D02*
X6758Y95533D01*
X6130Y95113D01*
X5710Y94484D01*
X5662Y94243D01*
X7000D01*
Y95581D01*
D02*
G37*
G36*
X51149Y13420D02*
X49423Y10430D01*
X52413Y8704D01*
X54140Y11694D01*
X51149Y13420D01*
D02*
G37*
G36*
X65500Y29838D02*
X65259Y29790D01*
X64630Y29370D01*
X64210Y28741D01*
X64162Y28500D01*
X65500D01*
Y29838D01*
D02*
G37*
G36*
X14500Y85864D02*
X14112Y85812D01*
X13285Y85470D01*
X12575Y84925D01*
X12030Y84215D01*
X11688Y83388D01*
X11637Y83000D01*
X14500D01*
Y85864D01*
D02*
G37*
G36*
Y82000D02*
X11637D01*
X11688Y81612D01*
X12030Y80785D01*
X12106Y80687D01*
X10982Y79563D01*
X8000D01*
Y76111D01*
X11452D01*
Y77871D01*
X13187Y79606D01*
X13285Y79530D01*
X14112Y79188D01*
X14500Y79137D01*
Y82000D01*
D02*
G37*
G36*
X66500Y29838D02*
Y28500D01*
X67838D01*
X67790Y28741D01*
X67370Y29370D01*
X66741Y29790D01*
X66500Y29838D01*
D02*
G37*
G36*
X65500Y27500D02*
X64162D01*
X64210Y27259D01*
X64630Y26630D01*
X65259Y26210D01*
X65500Y26162D01*
Y27500D01*
D02*
G37*
G36*
X11452Y75111D02*
X8000D01*
Y71658D01*
X11452D01*
Y75111D01*
D02*
G37*
G36*
X8000Y95581D02*
Y94243D01*
X9338D01*
X9290Y94484D01*
X8870Y95113D01*
X8241Y95533D01*
X8000Y95581D01*
D02*
G37*
G36*
X67838Y27500D02*
X66500D01*
Y26162D01*
X66741Y26210D01*
X67370Y26630D01*
X67790Y27259D01*
X67838Y27500D01*
D02*
G37*
G36*
X116433Y140274D02*
X115001Y137794D01*
X115362Y137645D01*
X116250Y137528D01*
X117138Y137645D01*
X117965Y137987D01*
X118675Y138532D01*
X118913Y138842D01*
X116433Y140274D01*
D02*
G37*
G36*
X58338Y152000D02*
X57000D01*
Y150662D01*
X57241Y150710D01*
X57870Y151130D01*
X58290Y151759D01*
X58338Y152000D01*
D02*
G37*
G36*
X57000Y154338D02*
Y153000D01*
X58338D01*
X58290Y153241D01*
X57870Y153870D01*
X57241Y154290D01*
X57000Y154338D01*
D02*
G37*
G36*
X98000Y6500D02*
X96662D01*
X96710Y6259D01*
X97130Y5630D01*
X97759Y5210D01*
X98000Y5162D01*
Y6500D01*
D02*
G37*
G36*
X116443Y154070D02*
X114717Y151080D01*
X117707Y149354D01*
X119433Y152344D01*
X116443Y154070D01*
D02*
G37*
G36*
X70484Y156150D02*
X69000D01*
Y154469D01*
X70484D01*
Y156150D01*
D02*
G37*
G36*
X85059Y159730D02*
X84096Y159538D01*
X83279Y158992D01*
X82766Y158224D01*
X82500Y158198D01*
X82234Y158224D01*
X81721Y158992D01*
X80904Y159538D01*
X79941Y159730D01*
X78978Y159538D01*
X78161Y158992D01*
X77616Y158176D01*
X77424Y157213D01*
X77616Y156249D01*
X78161Y155433D01*
X78978Y154887D01*
X79941Y154696D01*
X80904Y154887D01*
X81721Y155433D01*
X82234Y156201D01*
X82500Y156227D01*
X82766Y156201D01*
X83279Y155433D01*
X84096Y154887D01*
X85059Y154696D01*
X86022Y154887D01*
X86839Y155433D01*
X87384Y156249D01*
X87576Y157213D01*
X87384Y158176D01*
X86839Y158992D01*
X86022Y159538D01*
X85059Y159730D01*
D02*
G37*
G36*
X112587Y156297D02*
X111318Y154099D01*
X111112Y154077D01*
X110760Y154133D01*
X110509Y154509D01*
X110046Y154819D01*
X109500Y154927D01*
X108954Y154819D01*
X108491Y154509D01*
X108181Y154046D01*
X108073Y153500D01*
X108181Y152954D01*
X108491Y152491D01*
X108954Y152181D01*
X109500Y152073D01*
X109580Y152088D01*
X109900Y151642D01*
X109205Y150439D01*
X108709Y150374D01*
X105842Y153241D01*
X105594Y153407D01*
X105302Y153465D01*
X75500D01*
X75207Y153407D01*
X74959Y153241D01*
X74259Y152541D01*
X74094Y152293D01*
X74035Y152000D01*
Y147500D01*
X74094Y147207D01*
X74259Y146959D01*
X76430Y144789D01*
X76373Y144500D01*
X76481Y143954D01*
X76791Y143491D01*
X77254Y143181D01*
X77800Y143073D01*
X78346Y143181D01*
X78809Y143491D01*
X79119Y143954D01*
X79227Y144500D01*
X79119Y145046D01*
X78809Y145509D01*
X78346Y145819D01*
X77800Y145927D01*
X77511Y145870D01*
X75565Y147817D01*
Y149228D01*
X75774Y149357D01*
X76065Y149441D01*
X76454Y149181D01*
X77000Y149073D01*
X77546Y149181D01*
X78009Y149491D01*
X78112Y149644D01*
X87092D01*
X104332Y132403D01*
X104128Y131903D01*
X95342D01*
X94912Y132334D01*
Y136709D01*
X94776Y137739D01*
X94379Y138698D01*
X93747Y139522D01*
X92923Y140155D01*
X91963Y140552D01*
X90933Y140688D01*
X89903Y140552D01*
X88944Y140155D01*
X88120Y139522D01*
X87487Y138698D01*
X87090Y137739D01*
X86954Y136709D01*
Y135679D01*
X81484D01*
X71581Y145581D01*
X70650Y146513D01*
Y148484D01*
X70338D01*
X69984Y148838D01*
Y151287D01*
X69984Y151713D01*
X70453Y151787D01*
X70453D01*
X70484D01*
Y153469D01*
X68500D01*
Y153969D01*
X68000D01*
Y156150D01*
X66000D01*
Y153969D01*
X65500D01*
Y153469D01*
X63516D01*
Y151787D01*
X63547D01*
X64016Y151713D01*
X64016Y151287D01*
Y148484D01*
X63350D01*
Y145868D01*
X63004Y145433D01*
X62896Y145407D01*
X62454Y145319D01*
X61991Y145009D01*
X61681Y144546D01*
X61573Y144000D01*
X61681Y143454D01*
X61991Y142991D01*
X62454Y142681D01*
X63000Y142573D01*
X63546Y142681D01*
X64009Y142991D01*
X64319Y143454D01*
X64427Y144000D01*
X64370Y144289D01*
X65572Y145491D01*
X65572Y145491D01*
X65589Y145516D01*
X66713D01*
Y147606D01*
X66926Y147844D01*
X67000Y147876D01*
X67287Y147750D01*
Y145516D01*
X67287D01*
X67353Y145016D01*
X56338Y134001D01*
X55877Y134247D01*
X55927Y134500D01*
X55819Y135046D01*
X55509Y135509D01*
X55046Y135819D01*
X54500Y135927D01*
X53954Y135819D01*
X53491Y135509D01*
X53181Y135046D01*
X53073Y134500D01*
X53166Y134029D01*
X52947Y133529D01*
X42428D01*
X42252Y134029D01*
X42623Y134512D01*
X42915Y135218D01*
X43015Y135975D01*
X42915Y136732D01*
X42623Y137437D01*
X42158Y138043D01*
X41552Y138508D01*
X40847Y138800D01*
X40090Y138900D01*
X39333Y138800D01*
X38627Y138508D01*
X38021Y138043D01*
X37557Y137437D01*
X37264Y136732D01*
X37165Y135975D01*
X37264Y135218D01*
X37557Y134512D01*
X38021Y133907D01*
X38513Y133529D01*
X38382Y133029D01*
X29790D01*
X29599Y133491D01*
X34541Y138433D01*
X34541Y138433D01*
X34707Y138681D01*
X34765Y138974D01*
X34765Y138974D01*
Y142530D01*
X35248Y142659D01*
X37587Y138608D01*
X40577Y140334D01*
X38600Y143757D01*
X39466Y144257D01*
X41443Y140834D01*
X43264Y141886D01*
X45355Y141234D01*
X45321Y140975D01*
X45437Y140087D01*
X45587Y139726D01*
X48067Y141158D01*
X46635Y143638D01*
X46325Y143400D01*
X45788Y142700D01*
X44037Y143247D01*
X42661Y145630D01*
X42980Y146077D01*
X43000Y146073D01*
X43546Y146181D01*
X44009Y146491D01*
X44319Y146954D01*
X44427Y147500D01*
X44319Y148046D01*
X44009Y148509D01*
X43546Y148819D01*
X43000Y148927D01*
X42454Y148819D01*
X41991Y148509D01*
X41768Y148176D01*
X41225Y148118D01*
X40656Y149102D01*
X41712Y149735D01*
X47651D01*
X49703Y146181D01*
X55683Y149633D01*
X55189Y150489D01*
X55564Y150840D01*
X55759Y150710D01*
X56000Y150662D01*
Y152500D01*
Y154338D01*
X55759Y154290D01*
X55130Y153870D01*
X54710Y153241D01*
X54574Y152555D01*
X54412Y152475D01*
X54075Y152418D01*
X52231Y155614D01*
X46250Y152161D01*
X46518Y151698D01*
X46268Y151265D01*
X41500D01*
X41444Y151254D01*
X41388Y151256D01*
X41299Y151225D01*
X41207Y151207D01*
X41160Y151175D01*
X41107Y151156D01*
X33607Y146656D01*
X33537Y146593D01*
X33459Y146541D01*
X33428Y146493D01*
X33386Y146455D01*
X33346Y146370D01*
X33294Y146293D01*
X33282Y146237D01*
X33258Y146186D01*
X33254Y146092D01*
X33235Y146000D01*
Y139291D01*
X28209Y134265D01*
X26499D01*
X26308Y134727D01*
X27711Y136130D01*
X28000Y136073D01*
X28546Y136181D01*
X29009Y136491D01*
X29319Y136954D01*
X29427Y137500D01*
X29319Y138046D01*
X29009Y138509D01*
X28546Y138819D01*
X28000Y138927D01*
X27454Y138819D01*
X26991Y138509D01*
X26681Y138046D01*
X26573Y137500D01*
X26630Y137211D01*
X24774Y135355D01*
X21437D01*
X21338Y135336D01*
X21237Y135329D01*
X21193Y135307D01*
X21144Y135297D01*
X21060Y135241D01*
X20970Y135196D01*
X20937Y135159D01*
X20896Y135131D01*
X20840Y135047D01*
X20774Y134971D01*
X7245Y111380D01*
X7230Y111334D01*
X7202Y111293D01*
X7182Y111194D01*
X7150Y111098D01*
X7154Y111048D01*
X7144Y111000D01*
Y105091D01*
X7202Y104799D01*
X7368Y104551D01*
X16261Y95658D01*
X15977Y95234D01*
X15757Y95325D01*
X15000Y95425D01*
X14243Y95325D01*
X13537Y95033D01*
X12932Y94568D01*
X12467Y93963D01*
X12175Y93257D01*
X12075Y92500D01*
X12175Y91743D01*
X12467Y91037D01*
X12932Y90432D01*
X13537Y89967D01*
X14243Y89675D01*
X15000Y89575D01*
X15757Y89675D01*
X16463Y89967D01*
X16721Y90166D01*
X18016Y88871D01*
Y86787D01*
X17547Y86713D01*
X17516D01*
Y85486D01*
X17016Y85239D01*
X16715Y85470D01*
X15888Y85812D01*
X15500Y85864D01*
Y82500D01*
Y79137D01*
X15888Y79188D01*
X16715Y79530D01*
X17425Y80075D01*
X17516Y80194D01*
X18016Y80024D01*
Y78287D01*
X20984D01*
Y80372D01*
X22041Y81428D01*
X22207Y81676D01*
X22265Y81969D01*
Y86468D01*
X22207Y86761D01*
X22041Y87009D01*
X20984Y88066D01*
Y90150D01*
X18900D01*
X17673Y91376D01*
X17825Y91743D01*
X17925Y92500D01*
X17825Y93257D01*
X17734Y93477D01*
X18158Y93761D01*
X23385Y88533D01*
Y75648D01*
X22885Y75351D01*
X22500Y75427D01*
X21954Y75319D01*
X21686Y75140D01*
X20984Y75841D01*
Y77713D01*
X18016D01*
Y74350D01*
X20312D01*
X21174Y73488D01*
X21181Y73454D01*
X21491Y72991D01*
X21954Y72681D01*
X22500Y72573D01*
X22885Y72649D01*
X23385Y72352D01*
Y69867D01*
X22809Y69291D01*
X22644Y69043D01*
X22585Y68750D01*
Y65002D01*
X22644Y64710D01*
X22723Y64591D01*
X22678Y64211D01*
X22242Y63879D01*
X22000Y63927D01*
X21454Y63819D01*
X20991Y63509D01*
X20827Y63265D01*
X20167D01*
X19874Y63206D01*
X19626Y63041D01*
X15459Y58874D01*
X15293Y58626D01*
X15235Y58333D01*
Y49519D01*
X14521Y48892D01*
X14086Y48011D01*
X14022Y47031D01*
X14261Y46327D01*
X13825Y46056D01*
X11215Y48667D01*
Y58752D01*
X11715Y59049D01*
X12100Y58973D01*
X12646Y59081D01*
X13109Y59391D01*
X13419Y59854D01*
X13527Y60400D01*
X13470Y60689D01*
X14911Y62130D01*
X15200Y62073D01*
X15746Y62181D01*
X16209Y62491D01*
X16519Y62954D01*
X16627Y63500D01*
X16519Y64046D01*
X16209Y64509D01*
X15746Y64819D01*
X15200Y64927D01*
X14654Y64819D01*
X14191Y64509D01*
X13881Y64046D01*
X13773Y63500D01*
X13830Y63211D01*
X12389Y61770D01*
X12100Y61827D01*
X11715Y61751D01*
X11215Y62048D01*
Y67633D01*
X13545Y69964D01*
X14243Y69675D01*
X15000Y69575D01*
X15757Y69675D01*
X16463Y69967D01*
X17068Y70432D01*
X17533Y71038D01*
X17825Y71743D01*
X17925Y72500D01*
X17825Y73257D01*
X17533Y73962D01*
X17068Y74568D01*
X16463Y75033D01*
X15757Y75325D01*
X15000Y75425D01*
X14243Y75325D01*
X13537Y75033D01*
X12932Y74568D01*
X12467Y73962D01*
X12175Y73257D01*
X12075Y72500D01*
X12175Y71743D01*
X12464Y71045D01*
X9909Y68491D01*
X9743Y68243D01*
X9685Y67950D01*
Y65398D01*
X9185Y65246D01*
X9009Y65509D01*
X8546Y65819D01*
X8000Y65927D01*
X7765Y66121D01*
Y67667D01*
X7765Y67667D01*
X8046Y68181D01*
X8509Y68491D01*
X8819Y68954D01*
X8927Y69500D01*
X8819Y70046D01*
X8509Y70509D01*
X8046Y70819D01*
X7500Y70927D01*
X6954Y70819D01*
X6491Y70509D01*
X6272Y70183D01*
X5709Y70039D01*
X4590Y71158D01*
X4797Y71658D01*
X7000D01*
Y75611D01*
Y79563D01*
X4265D01*
Y85074D01*
X5128Y85937D01*
X10953D01*
Y92843D01*
X9739D01*
X9434Y93243D01*
X5566D01*
X5260Y92843D01*
X4047D01*
Y87019D01*
X2959Y85931D01*
X2794Y85683D01*
X2735Y85390D01*
Y71166D01*
X2794Y70874D01*
X2959Y70626D01*
X6235Y67350D01*
Y65500D01*
X6294Y65207D01*
X6459Y64959D01*
X6630Y64789D01*
X6573Y64500D01*
X6681Y63954D01*
X6991Y63491D01*
X7454Y63181D01*
X8000Y63073D01*
X8546Y63181D01*
X9009Y63491D01*
X9185Y63754D01*
X9685Y63602D01*
Y48350D01*
X9743Y48057D01*
X9909Y47809D01*
X13735Y43983D01*
Y40500D01*
X13793Y40207D01*
X13959Y39959D01*
X22159Y31759D01*
X22407Y31593D01*
X22700Y31535D01*
X37831D01*
X37963Y31035D01*
X37557Y30506D01*
X37264Y29801D01*
X37165Y29043D01*
X37229Y28553D01*
X37228Y28551D01*
X36799Y28168D01*
X36500Y28227D01*
X35954Y28119D01*
X35491Y27809D01*
X35181Y27346D01*
X35073Y26800D01*
X35181Y26254D01*
X35491Y25791D01*
X35954Y25481D01*
X36500Y25373D01*
X36699Y25412D01*
X37123Y25098D01*
X37167Y24667D01*
X34317Y19729D01*
X40297Y16276D01*
X40934Y17380D01*
X41557Y17459D01*
X41588Y17438D01*
X41881Y17380D01*
X44165D01*
X44214Y16880D01*
X43759Y16790D01*
X43130Y16370D01*
X42710Y15741D01*
X42662Y15500D01*
X44500D01*
Y15000D01*
X45000D01*
Y13162D01*
X45241Y13210D01*
X45685Y12951D01*
X45711Y12905D01*
X45567Y12656D01*
X48557Y10930D01*
X50533Y14353D01*
X50966Y14103D01*
X51216Y14536D01*
X54640Y12560D01*
X56123Y15129D01*
X58715D01*
X59008Y15187D01*
X59256Y15353D01*
X61283Y17380D01*
X62042D01*
X62334Y17438D01*
X62582Y17604D01*
X62748Y17852D01*
X62806Y18145D01*
Y32009D01*
X63268Y32200D01*
X63459Y32009D01*
X63707Y31844D01*
X64000Y31785D01*
X66389D01*
X66682Y31844D01*
X66930Y32009D01*
X69300Y34379D01*
X73108D01*
X73541Y33946D01*
X73350Y33484D01*
X70850D01*
Y30516D01*
X71382D01*
X71732Y30159D01*
X71685Y27677D01*
X69736D01*
Y22346D01*
X75067D01*
Y22527D01*
X75454Y22844D01*
X76697Y22596D01*
X76769Y21860D01*
X77102Y20764D01*
X77642Y19754D01*
X78368Y18868D01*
X79254Y18142D01*
X80264Y17602D01*
X81360Y17269D01*
X82500Y17157D01*
X83640Y17269D01*
X84736Y17602D01*
X85028Y17191D01*
X83355Y15518D01*
X75067D01*
Y16654D01*
X69736D01*
Y11323D01*
X74520D01*
Y3653D01*
X79850D01*
Y11347D01*
X78714D01*
Y12459D01*
X83988D01*
X84574Y12575D01*
X85070Y12907D01*
X90134Y17971D01*
X96500D01*
X97085Y18087D01*
X97581Y18419D01*
X99971Y20808D01*
X100408Y20671D01*
X100471Y20623D01*
Y16962D01*
X99026Y15518D01*
X95165D01*
Y16654D01*
X89835D01*
Y11683D01*
X89499Y11347D01*
X85150D01*
Y3653D01*
X90480D01*
Y8003D01*
X93581Y11104D01*
X93728Y11323D01*
X95165D01*
Y12459D01*
X99659D01*
X100244Y12575D01*
X100741Y12907D01*
X103081Y15248D01*
X103413Y15744D01*
X103529Y16329D01*
Y25367D01*
X104856Y26693D01*
X105403Y26533D01*
X106758Y24184D01*
Y21838D01*
X106127Y21576D01*
X105522Y21112D01*
X105057Y20506D01*
X104764Y19801D01*
X104665Y19043D01*
X104764Y18286D01*
X105057Y17581D01*
X105522Y16975D01*
X106127Y16510D01*
X106833Y16218D01*
X107590Y16118D01*
X108347Y16218D01*
X109052Y16510D01*
X109658Y16975D01*
X110123Y17581D01*
X110415Y18286D01*
X110515Y19043D01*
X110415Y19801D01*
X110123Y20506D01*
X109658Y21112D01*
X109052Y21576D01*
X108347Y21869D01*
X108288Y21877D01*
Y24949D01*
X109721Y25777D01*
X110020Y25408D01*
X110036Y25381D01*
X111700Y26342D01*
X112988Y25053D01*
X112937Y24931D01*
X112821Y24043D01*
X112937Y23156D01*
X113087Y22795D01*
X115567Y24226D01*
X114135Y26706D01*
X113825Y26468D01*
X113742Y26463D01*
X113361Y26843D01*
X113427Y27339D01*
X113814Y27562D01*
X112877Y29185D01*
X113127Y29618D01*
X114013D01*
X114603Y28596D01*
X117515Y30277D01*
X116031Y32848D01*
Y32848D01*
X116031D01*
X115889Y33314D01*
X117045Y34471D01*
X117876D01*
X118006Y33988D01*
X116529Y33135D01*
X118013Y30564D01*
X120371Y31925D01*
X121088D01*
X121454Y31681D01*
X122000Y31573D01*
X122546Y31681D01*
X123009Y31991D01*
X123319Y32454D01*
X123427Y33000D01*
X123319Y33546D01*
X123035Y33971D01*
X123080Y34165D01*
X123219Y34471D01*
X126106D01*
X126520Y34553D01*
X126573Y34500D01*
X126681Y33954D01*
X126991Y33491D01*
X127454Y33181D01*
X128000Y33073D01*
X128289Y33130D01*
X129985Y31433D01*
Y22903D01*
X129502Y22774D01*
X127413Y26392D01*
X124423Y24666D01*
X126400Y21243D01*
X125534Y20743D01*
X123557Y24166D01*
X121745Y23120D01*
X119644Y23779D01*
X119679Y24043D01*
X119562Y24931D01*
X119413Y25292D01*
X116933Y23860D01*
X118365Y21381D01*
X118675Y21619D01*
X119208Y22313D01*
X120957Y21764D01*
X124249Y16063D01*
X119184Y13083D01*
X118504Y13264D01*
X115297Y18819D01*
X109317Y15367D01*
X111185Y12130D01*
X109459Y10405D01*
X109360Y10256D01*
X108991Y10009D01*
X108681Y9546D01*
X108573Y9000D01*
X108681Y8454D01*
X108991Y7991D01*
X109454Y7681D01*
X110000Y7573D01*
X110546Y7681D01*
X111009Y7991D01*
X111319Y8454D01*
X111427Y9000D01*
X111319Y9546D01*
X111096Y9879D01*
X111686Y10469D01*
X112182Y10404D01*
X112769Y9386D01*
X115875Y11179D01*
X116095Y10959D01*
X116343Y10793D01*
X116636Y10735D01*
X116636Y10735D01*
X118000D01*
X118052Y10746D01*
X118106Y10743D01*
X118198Y10775D01*
X118293Y10793D01*
X118337Y10823D01*
X118388Y10841D01*
X131138Y18341D01*
X131210Y18405D01*
X131291Y18459D01*
X131321Y18504D01*
X131360Y18539D01*
X131403Y18627D01*
X131457Y18707D01*
X131467Y18760D01*
X131490Y18808D01*
X131496Y18905D01*
X131515Y19000D01*
Y20447D01*
X131825Y20613D01*
X132015Y20669D01*
X132500Y20573D01*
X133046Y20681D01*
X133509Y20991D01*
X133819Y21454D01*
X133927Y22000D01*
X133819Y22546D01*
X133509Y23009D01*
X133046Y23319D01*
X132500Y23427D01*
X132015Y23331D01*
X131825Y23387D01*
X131515Y23553D01*
Y31750D01*
X131457Y32043D01*
X131291Y32291D01*
X131127Y32454D01*
X131292Y32997D01*
X131379Y33015D01*
X131843Y33324D01*
X132006Y33569D01*
X142333D01*
X142626Y33627D01*
X142874Y33792D01*
X152041Y42959D01*
X152041Y42959D01*
X152207Y43207D01*
X152265Y43500D01*
Y62327D01*
X161744Y71806D01*
X161909Y72054D01*
X161968Y72347D01*
X161968Y72347D01*
Y95393D01*
X161909Y95685D01*
X161744Y95934D01*
X158765Y98913D01*
Y109000D01*
X158752Y109063D01*
X158754Y109126D01*
X158723Y109207D01*
X158706Y109293D01*
X158671Y109346D01*
X158649Y109405D01*
X156149Y113405D01*
X156063Y113496D01*
X155983Y113593D01*
X154714Y114628D01*
X144765Y131202D01*
Y132271D01*
X144706Y132564D01*
X144541Y132812D01*
X133493Y143859D01*
X133245Y144025D01*
X132953Y144083D01*
X130498D01*
X130248Y144516D01*
X130684Y145271D01*
X124703Y148724D01*
X121250Y142743D01*
X125388Y140355D01*
X125259Y139872D01*
X121607D01*
X121314Y139813D01*
X121066Y139648D01*
X121066Y139648D01*
X117983Y136565D01*
X114617D01*
X112865Y138317D01*
Y139004D01*
X112875Y139011D01*
X113365Y139132D01*
X113825Y138532D01*
X114135Y138294D01*
X115817Y141207D01*
X117499Y144120D01*
X117138Y144270D01*
X116269Y144384D01*
X115870Y146173D01*
X117207Y148488D01*
X113784Y150464D01*
X114034Y150897D01*
X113601Y151147D01*
X115577Y154570D01*
X112587Y156297D01*
D02*
G37*
G36*
X65000Y156150D02*
X63516D01*
Y154469D01*
X65000D01*
Y156150D01*
D02*
G37*
G36*
X100338Y6500D02*
X99000D01*
Y5162D01*
X99241Y5210D01*
X99870Y5630D01*
X100290Y6259D01*
X100338Y6500D01*
D02*
G37*
G36*
X51913Y142224D02*
X49433Y140792D01*
X50865Y138312D01*
X51175Y138550D01*
X51720Y139260D01*
X52062Y140087D01*
X52179Y140975D01*
X52062Y141863D01*
X51913Y142224D01*
D02*
G37*
G36*
X48567Y140292D02*
X46087Y138860D01*
X46325Y138550D01*
X47035Y138005D01*
X47862Y137662D01*
X48750Y137546D01*
X49638Y137662D01*
X49999Y137812D01*
X48567Y140292D01*
D02*
G37*
G36*
X118365Y143620D02*
X116933Y141140D01*
X119413Y139708D01*
X119562Y140069D01*
X119679Y140957D01*
X119562Y141845D01*
X119220Y142672D01*
X118675Y143382D01*
X118365Y143620D01*
D02*
G37*
G36*
X56500Y9927D02*
X55954Y9819D01*
X55491Y9509D01*
X55181Y9046D01*
X55073Y8500D01*
X55181Y7954D01*
X55491Y7491D01*
X55954Y7181D01*
X56500Y7073D01*
X57046Y7181D01*
X57509Y7491D01*
X57819Y7954D01*
X57927Y8500D01*
X57819Y9046D01*
X57509Y9509D01*
X57046Y9819D01*
X56500Y9927D01*
D02*
G37*
G36*
X57410Y148900D02*
X56653Y148800D01*
X55948Y148508D01*
X55342Y148043D01*
X54877Y147438D01*
X54585Y146732D01*
X54485Y145975D01*
X54585Y145218D01*
X54877Y144512D01*
X55342Y143907D01*
X55948Y143442D01*
X56653Y143150D01*
X57410Y143050D01*
X58167Y143150D01*
X58873Y143442D01*
X59478Y143907D01*
X59943Y144512D01*
X60236Y145218D01*
X60335Y145975D01*
X60236Y146732D01*
X59943Y147438D01*
X59478Y148043D01*
X58873Y148508D01*
X58167Y148800D01*
X57410Y148900D01*
D02*
G37*
G36*
X48750Y144404D02*
X47862Y144288D01*
X47501Y144138D01*
X48933Y141658D01*
X51413Y143090D01*
X51175Y143400D01*
X50465Y143945D01*
X49638Y144288D01*
X48750Y144404D01*
D02*
G37*
%LPD*%
G36*
X69073Y53000D02*
X69181Y52454D01*
X69491Y51991D01*
X69735Y51827D01*
Y51333D01*
X69793Y51041D01*
X69959Y50793D01*
X70536Y50216D01*
X70457Y49588D01*
X70130Y49370D01*
X69710Y48741D01*
X69662Y48500D01*
X71500D01*
Y47500D01*
X69662D01*
X69710Y47259D01*
X70130Y46630D01*
X70759Y46210D01*
X71014Y46159D01*
X71473Y45900D01*
X71581Y45354D01*
X71891Y44891D01*
X72135Y44727D01*
Y42717D01*
X65056Y35638D01*
X64645Y35690D01*
X64433Y36151D01*
X68941Y40659D01*
X69107Y40907D01*
X69165Y41200D01*
Y44000D01*
X69165Y44000D01*
X69107Y44293D01*
X68941Y44541D01*
X68941Y44541D01*
X67091Y46391D01*
X66843Y46556D01*
X66550Y46615D01*
X57956D01*
Y47287D01*
X58038Y47354D01*
X58456Y47508D01*
X58795Y47281D01*
X59342Y47173D01*
X59888Y47281D01*
X60351Y47591D01*
X60660Y48054D01*
X60765Y48582D01*
X60797Y48623D01*
X61207Y48961D01*
X66390D01*
Y52520D01*
X64733D01*
Y53235D01*
X68879D01*
X69073Y53000D01*
D02*
G37*
G36*
X42479Y98030D02*
X42420Y97941D01*
X42372Y97700D01*
X44209D01*
Y97200D01*
X44709D01*
Y95362D01*
X44951Y95410D01*
X45579Y95830D01*
X45999Y96459D01*
X46042Y96672D01*
X46520Y96817D01*
X52971Y90367D01*
Y85831D01*
X52228D01*
Y85285D01*
X50685D01*
X50473Y85785D01*
X50790Y86259D01*
X50838Y86500D01*
X47162D01*
X47210Y86259D01*
X47630Y85630D01*
X47943Y85421D01*
X47791Y84921D01*
X46059D01*
Y84770D01*
X45740D01*
X45155Y84653D01*
X44659Y84322D01*
X43456Y83119D01*
X43299Y83135D01*
X42956Y83289D01*
Y85155D01*
X42965Y85200D01*
Y91227D01*
X43209Y91391D01*
X43519Y91854D01*
X43627Y92400D01*
X43519Y92946D01*
X43209Y93409D01*
X42746Y93719D01*
X42200Y93827D01*
X41654Y93719D01*
X41191Y93409D01*
X40881Y92946D01*
X40773Y92400D01*
X40881Y91854D01*
X41191Y91391D01*
X41435Y91227D01*
Y85965D01*
X31400D01*
X31107Y85906D01*
X30859Y85741D01*
X27910Y82792D01*
X27448Y82983D01*
Y92703D01*
X27448Y92703D01*
X27390Y92995D01*
X27224Y93243D01*
X22459Y98009D01*
X22650Y98471D01*
X42243D01*
X42479Y98030D01*
D02*
G37*
G36*
X124935Y99448D02*
Y95850D01*
X124509Y95424D01*
X124344Y95176D01*
X124285Y94884D01*
Y91216D01*
X124344Y90924D01*
X124509Y90676D01*
X124935Y90250D01*
Y86550D01*
X124509Y86124D01*
X124344Y85876D01*
X124285Y85584D01*
Y84216D01*
X124344Y83924D01*
X124509Y83676D01*
X125735Y82450D01*
Y72665D01*
X125677Y72577D01*
X125618Y72284D01*
Y68200D01*
X124230Y66811D01*
X123557Y66777D01*
X121622Y68712D01*
X122030Y69243D01*
X122329Y69965D01*
X122365Y70240D01*
X119937D01*
Y67812D01*
X120212Y67848D01*
X120290Y67880D01*
X122735Y65436D01*
Y61667D01*
X122793Y61374D01*
X122959Y61126D01*
X123206Y60879D01*
X123042Y60336D01*
X122954Y60319D01*
X122491Y60009D01*
X122272Y59683D01*
X121709Y59539D01*
X120709Y60539D01*
X120772Y61183D01*
X121217Y61480D01*
X121762Y62297D01*
X121954Y63260D01*
X121762Y64223D01*
X121217Y65039D01*
X120400Y65585D01*
X119437Y65777D01*
X118474Y65585D01*
X117657Y65039D01*
X117112Y64223D01*
X116997Y63644D01*
X116454Y63480D01*
X115339Y64595D01*
X115437Y64885D01*
X115557Y65084D01*
X116046Y65181D01*
X116509Y65491D01*
X116819Y65954D01*
X116927Y66500D01*
X116819Y67046D01*
X116509Y67509D01*
X116046Y67819D01*
X115500Y67927D01*
X115211Y67870D01*
X113115Y69967D01*
Y88236D01*
X113577Y88428D01*
X114695Y87309D01*
X114750Y87273D01*
X114950Y86671D01*
X114910Y86612D01*
X114862Y86371D01*
X118538D01*
X118495Y86585D01*
X118492Y86673D01*
X118748Y87085D01*
X119850D01*
X120143Y87143D01*
X120391Y87309D01*
X122278Y89197D01*
X122444Y89445D01*
X122503Y89738D01*
Y90727D01*
X122747Y90891D01*
X123057Y91354D01*
X123165Y91900D01*
X123057Y92446D01*
X122747Y92909D01*
X122284Y93219D01*
X121738Y93327D01*
X121192Y93219D01*
X120728Y92909D01*
X120419Y92446D01*
X120371Y92203D01*
X120100Y91883D01*
X119832Y91861D01*
X119500Y91927D01*
X118954Y91819D01*
X118491Y91509D01*
X118181Y91046D01*
X118073Y90500D01*
X118130Y90211D01*
X117736Y89817D01*
X117680Y89803D01*
X117512Y89843D01*
X117289Y90410D01*
X117319Y90454D01*
X117427Y91000D01*
X117319Y91546D01*
X117202Y91721D01*
X120141Y94659D01*
X120307Y94907D01*
X120365Y95200D01*
Y100427D01*
X120609Y100591D01*
X120919Y101054D01*
X121027Y101600D01*
X120951Y101985D01*
X121248Y102485D01*
X121898D01*
X124935Y99448D01*
D02*
G37*
G36*
X86000Y45681D02*
X88272D01*
Y46131D01*
X88500Y46319D01*
X89043Y46427D01*
X89543Y46112D01*
Y41778D01*
X89601Y41486D01*
X89767Y41237D01*
X91680Y39325D01*
X91535Y38846D01*
X91410Y38821D01*
X90781Y38401D01*
X90361Y37773D01*
X90214Y37031D01*
X89995Y36765D01*
X86320D01*
X86171Y37265D01*
X86509Y37491D01*
X86819Y37954D01*
X86927Y38500D01*
X86819Y39046D01*
X86509Y39509D01*
X86265Y39673D01*
Y40669D01*
X87772D01*
Y44819D01*
X83228D01*
Y43509D01*
X82272D01*
Y44819D01*
X77765D01*
X77728Y44819D01*
X77265Y44906D01*
Y45333D01*
X77206Y45626D01*
X77041Y45874D01*
X76315Y46600D01*
X76442Y46925D01*
X76541Y47081D01*
X77046Y47181D01*
X77228Y47303D01*
X77728Y47036D01*
Y46181D01*
X82272D01*
Y46181D01*
X82728Y46077D01*
Y45681D01*
X85000D01*
Y48256D01*
X86000D01*
Y45681D01*
D02*
G37*
G36*
X32838Y60386D02*
X33086Y60220D01*
X33379Y60162D01*
X33683D01*
X36864Y56981D01*
X36865Y56981D01*
X36886Y56959D01*
X37134Y56793D01*
X37427Y56735D01*
X37427Y56735D01*
X38927D01*
X39669Y55993D01*
Y52728D01*
X39669D01*
X39850Y52484D01*
Y49516D01*
X40554D01*
X40679Y49016D01*
X35934Y44272D01*
X32669D01*
Y40465D01*
X32208Y40274D01*
X31265Y41217D01*
Y44327D01*
X31509Y44491D01*
X31819Y44954D01*
X31927Y45500D01*
X31819Y46046D01*
X31509Y46509D01*
X31046Y46819D01*
X30500Y46927D01*
X29954Y46819D01*
X29491Y46509D01*
X29181Y46046D01*
X29073Y45500D01*
X29181Y44954D01*
X29491Y44491D01*
X29735Y44327D01*
Y41985D01*
X29273Y41794D01*
X25442Y45625D01*
Y46440D01*
X25392Y46688D01*
X25490Y46808D01*
X25791Y47023D01*
X26259Y46710D01*
X26500Y46662D01*
Y48500D01*
Y50338D01*
X26259Y50290D01*
X25765Y49960D01*
X25265Y50154D01*
Y51517D01*
X25709Y51961D01*
X26272Y51817D01*
X26491Y51491D01*
X26954Y51181D01*
X27500Y51073D01*
X28046Y51181D01*
X28509Y51491D01*
X28673Y51735D01*
X33380D01*
X33573Y51500D01*
X33681Y50954D01*
X33991Y50491D01*
X34454Y50181D01*
X35000Y50073D01*
X35546Y50181D01*
X36009Y50491D01*
X36319Y50954D01*
X36427Y51500D01*
X36319Y52046D01*
X36009Y52509D01*
X35546Y52819D01*
X35000Y52927D01*
X34711Y52870D01*
X34541Y53041D01*
X34293Y53206D01*
X34000Y53265D01*
X31441D01*
X31289Y53765D01*
X31509Y53912D01*
X31819Y54375D01*
X31927Y54921D01*
X31819Y55467D01*
X31509Y55931D01*
X31265Y56094D01*
Y59327D01*
X31509Y59491D01*
X31819Y59954D01*
X31927Y60500D01*
X31905Y60612D01*
X32366Y60858D01*
X32838Y60386D01*
D02*
G37*
G36*
X60532Y57531D02*
X59531D01*
Y58500D01*
X60532D01*
Y57531D01*
D02*
G37*
G36*
X104181Y70454D02*
X104491Y69991D01*
X104735Y69827D01*
Y67334D01*
X103951Y66549D01*
X102259Y64858D01*
X100959Y63558D01*
X100794Y63310D01*
X100735Y63017D01*
Y62229D01*
X100235Y61993D01*
X99791Y62290D01*
X99550Y62338D01*
Y60500D01*
X99050D01*
Y60000D01*
X97111D01*
X96854Y59620D01*
X96819Y59609D01*
X96557Y59557D01*
X96309Y59391D01*
X94609Y57691D01*
X94444Y57443D01*
X93914Y57345D01*
X93500Y57427D01*
X92954Y57319D01*
X92648Y57115D01*
X91903D01*
X91696Y57615D01*
X102391Y68309D01*
X102557Y68557D01*
X102615Y68850D01*
Y70016D01*
X103650D01*
Y70564D01*
X104150Y70613D01*
X104181Y70454D01*
D02*
G37*
G36*
X36610Y82323D02*
X35459Y81172D01*
X35293Y80924D01*
X35235Y80632D01*
Y70046D01*
X34984Y69650D01*
X32936D01*
X32887Y70150D01*
X33046Y70181D01*
X33509Y70491D01*
X33819Y70954D01*
X33927Y71500D01*
X33819Y72046D01*
X33509Y72509D01*
X33046Y72819D01*
X32500Y72927D01*
X31954Y72819D01*
X31491Y72509D01*
X31327Y72265D01*
X28465D01*
Y81183D01*
X31717Y84435D01*
X36610D01*
Y82323D01*
D02*
G37*
G36*
X92516Y74819D02*
X94001D01*
X94268Y74319D01*
X94218Y74244D01*
X92516D01*
Y71127D01*
X92130Y70870D01*
X91710Y70241D01*
X91662Y70000D01*
X93500D01*
Y69500D01*
X94000D01*
Y67662D01*
X94241Y67710D01*
X94531Y67590D01*
X94705Y67418D01*
X94991Y66991D01*
X95454Y66681D01*
X96000Y66573D01*
X96546Y66681D01*
X97009Y66991D01*
X97319Y67454D01*
X97427Y68000D01*
X97319Y68546D01*
X97009Y69009D01*
X97000Y69016D01*
X97151Y69516D01*
X97531D01*
Y71500D01*
X98532D01*
Y69516D01*
X100213D01*
Y69547D01*
X100287Y70016D01*
X101085D01*
Y69167D01*
X91402Y59483D01*
X91370Y59484D01*
X90892Y59680D01*
X90819Y60046D01*
X90509Y60509D01*
X90046Y60819D01*
X89500Y60927D01*
X89211Y60870D01*
X88504Y61577D01*
Y67760D01*
X88446Y68053D01*
X88280Y68301D01*
X87870Y68711D01*
X87927Y69000D01*
X87819Y69546D01*
X87509Y70009D01*
X87046Y70319D01*
X86500Y70427D01*
X86211Y70370D01*
X85508Y71073D01*
X85512Y71109D01*
X88033Y73630D01*
X88321Y73573D01*
X88867Y73681D01*
X89331Y73991D01*
X89640Y74454D01*
X89749Y75000D01*
X89696Y75265D01*
X89749Y75391D01*
X90066Y75732D01*
X90073Y75735D01*
X92516D01*
Y74819D01*
D02*
G37*
G36*
X145235Y68505D02*
Y57292D01*
X143916Y54658D01*
X143392Y54729D01*
X143290Y55241D01*
X142870Y55870D01*
X142241Y56290D01*
X142000Y56338D01*
Y54500D01*
X141000D01*
Y56364D01*
X140529Y56692D01*
Y58243D01*
X140413Y58828D01*
X140081Y59324D01*
X136029Y63376D01*
Y66404D01*
X136241Y66492D01*
X136962Y67045D01*
X137516Y67766D01*
X137604Y67978D01*
X143500D01*
X144085Y68095D01*
X144581Y68426D01*
X144735Y68657D01*
X145235Y68505D01*
D02*
G37*
G36*
X158000Y85437D02*
X160438D01*
Y79063D01*
X155129D01*
X154465Y79727D01*
Y85437D01*
X157000D01*
Y89389D01*
X158000D01*
Y85437D01*
D02*
G37*
G36*
X64157Y88928D02*
X64287Y88484D01*
Y88484D01*
X64217Y88013D01*
X64213Y87984D01*
X60850D01*
Y85016D01*
X62003D01*
X62332Y84686D01*
X62141Y84224D01*
X60654D01*
Y81256D01*
X64630D01*
X66426Y79459D01*
X66674Y79294D01*
X66806Y79267D01*
X66991Y78991D01*
X67454Y78681D01*
X68000Y78573D01*
X68546Y78681D01*
X69009Y78991D01*
X69319Y79454D01*
X69427Y80000D01*
X69319Y80546D01*
X69009Y81009D01*
X68846Y81118D01*
Y82240D01*
X67059D01*
Y83240D01*
X68846D01*
Y84396D01*
X69050Y84563D01*
X69516Y84655D01*
X70016Y84305D01*
Y84287D01*
X72984D01*
Y84960D01*
X73484Y85103D01*
X73675Y84912D01*
X73909Y84755D01*
Y83181D01*
X78935D01*
Y81819D01*
X73909D01*
Y77276D01*
X79240D01*
Y78830D01*
X79293Y78841D01*
X79541Y79006D01*
X80241Y79707D01*
X80406Y79955D01*
X80465Y80247D01*
Y87600D01*
X80406Y87893D01*
X80311Y88035D01*
X80482Y88535D01*
X82235D01*
Y84500D01*
X82293Y84207D01*
X82459Y83959D01*
X82758Y83661D01*
X82681Y83546D01*
X82573Y83000D01*
X82681Y82454D01*
X82991Y81991D01*
X83454Y81681D01*
X84000Y81573D01*
X84245Y81621D01*
X84739Y81263D01*
X84745Y81250D01*
Y77991D01*
X84245Y77629D01*
X84000Y77677D01*
X83454Y77569D01*
X82991Y77259D01*
X82681Y76796D01*
X82573Y76250D01*
X82630Y75961D01*
X82283Y75615D01*
X75686D01*
X75393Y75556D01*
X75145Y75391D01*
X73044Y73290D01*
X70963D01*
X70696Y73790D01*
X70778Y73913D01*
X70887Y74459D01*
X70778Y75006D01*
X70579Y75304D01*
X70577Y75346D01*
X70739Y75792D01*
X70777Y75839D01*
X70847Y75853D01*
X71095Y76019D01*
X72591Y77514D01*
X72591Y77514D01*
X72756Y77762D01*
X72815Y78055D01*
Y80350D01*
X72984D01*
Y83713D01*
X70016D01*
Y80350D01*
X71285D01*
Y78371D01*
X70238Y77324D01*
X67059D01*
X66766Y77266D01*
X66518Y77100D01*
X66352Y76852D01*
X66331Y76744D01*
X60654D01*
Y73776D01*
X66736D01*
X66785Y73276D01*
X66566Y73232D01*
X66318Y73066D01*
X61367Y68115D01*
X60633D01*
X60024Y68724D01*
X59776Y68890D01*
X59483Y68948D01*
X58749D01*
X58597Y69448D01*
X58870Y69630D01*
X59290Y70259D01*
X59338Y70500D01*
X55662D01*
X55710Y70259D01*
X56130Y69630D01*
X56403Y69448D01*
X56251Y68948D01*
X56183D01*
X55891Y68890D01*
X55643Y68724D01*
X53809Y66891D01*
X53644Y66643D01*
X53585Y66350D01*
Y62008D01*
X52942Y61365D01*
X52480Y61556D01*
Y71118D01*
X51344D01*
Y74079D01*
X51390D01*
Y77441D01*
X51390D01*
Y77471D01*
X51728Y77858D01*
X52228Y77715D01*
Y76169D01*
X56772D01*
Y77690D01*
X59353Y80271D01*
X59685Y80768D01*
X59801Y81353D01*
Y92228D01*
X59714Y92664D01*
X60175Y92910D01*
X64157Y88928D01*
D02*
G37*
G36*
X112471Y115553D02*
X111971Y115334D01*
X111500Y115427D01*
X110954Y115319D01*
X110491Y115009D01*
X110348Y114796D01*
X109828Y114918D01*
X109807Y115026D01*
X109641Y115274D01*
X109641Y115274D01*
X108124Y116791D01*
X107876Y116956D01*
X107733Y116985D01*
X107448Y117459D01*
X107534Y117587D01*
X107582Y117828D01*
X103906D01*
X103954Y117587D01*
X104042Y117456D01*
X103806Y117015D01*
X103250D01*
X102957Y116956D01*
X102709Y116791D01*
X101159Y115241D01*
X100994Y114993D01*
X100935Y114700D01*
Y111864D01*
X100739Y111714D01*
X100119Y111846D01*
X100009Y112009D01*
X99765Y112173D01*
Y115833D01*
X99707Y116126D01*
X99541Y116374D01*
X96295Y119620D01*
X96423Y120199D01*
X96709Y120391D01*
X97019Y120854D01*
X97127Y121400D01*
X97019Y121946D01*
X96709Y122409D01*
X96246Y122719D01*
X95700Y122827D01*
X95411Y122770D01*
X94757Y123425D01*
X94948Y123887D01*
X112471D01*
Y115553D01*
D02*
G37*
G36*
X129298Y115651D02*
X129171Y115496D01*
X128631Y114486D01*
X128298Y113390D01*
X128186Y112250D01*
X128222Y111879D01*
X127761Y111461D01*
X127645Y111484D01*
X127099Y111376D01*
X126635Y111066D01*
X126326Y110603D01*
X126217Y110057D01*
X126304Y109619D01*
X125905Y109390D01*
X125860Y109376D01*
X125241Y109790D01*
X124999Y109838D01*
Y112023D01*
X124941Y112316D01*
X124775Y112564D01*
X124484Y112855D01*
Y113969D01*
X122500D01*
Y114969D01*
X124484D01*
Y116650D01*
X124150D01*
Y118930D01*
X124383Y119176D01*
X124953Y119120D01*
X125251Y118603D01*
X126374Y119252D01*
X129298Y115651D01*
D02*
G37*
G36*
X92651Y35194D02*
X92735Y35210D01*
X93089Y34900D01*
X93136Y34819D01*
X93073Y34500D01*
X93175Y33984D01*
X93175Y33944D01*
X92894Y33484D01*
X90787D01*
Y30516D01*
X91704D01*
Y27677D01*
X89835D01*
Y26065D01*
X87690Y25625D01*
X87358Y26246D01*
X86632Y27132D01*
X85746Y27858D01*
X84736Y28398D01*
X83640Y28731D01*
X82500Y28843D01*
X81360Y28731D01*
X80264Y28398D01*
X79254Y27858D01*
X78368Y27132D01*
X77642Y26246D01*
X77294Y25596D01*
X75067Y26040D01*
Y27677D01*
X73572D01*
X73222Y28034D01*
X73268Y30516D01*
X74213D01*
Y32101D01*
X74713Y32368D01*
X74787Y32318D01*
Y30516D01*
X78150D01*
X78350Y30099D01*
Y30016D01*
X80032D01*
Y32000D01*
X81032D01*
Y30016D01*
X82713D01*
Y30047D01*
X82787Y30516D01*
X83213Y30516D01*
X86150D01*
Y31235D01*
X86850D01*
Y30516D01*
X87238D01*
X87351Y30355D01*
X87460Y30016D01*
X87213Y29646D01*
X87104Y29100D01*
X87213Y28554D01*
X87522Y28091D01*
X87985Y27781D01*
X88532Y27673D01*
X89078Y27781D01*
X89541Y28091D01*
X89850Y28554D01*
X89959Y29100D01*
X89850Y29646D01*
X89604Y30016D01*
X89712Y30355D01*
X89825Y30516D01*
X90213D01*
Y33484D01*
X86850D01*
Y32765D01*
X86150D01*
Y33484D01*
X83213D01*
X82787Y33484D01*
X82713Y33953D01*
Y33984D01*
X82250D01*
X82059Y34446D01*
X82848Y35235D01*
X91120D01*
X91351Y35281D01*
X91410Y35242D01*
X91651Y35194D01*
Y37031D01*
X92651D01*
Y35194D01*
D02*
G37*
G36*
X98235Y114040D02*
Y112173D01*
X97991Y112009D01*
X97900Y111874D01*
X97376Y111759D01*
X96913Y112069D01*
X96367Y112177D01*
X95820Y112069D01*
X95357Y111759D01*
X95048Y111296D01*
X94939Y110750D01*
X95048Y110204D01*
X95357Y109741D01*
X95820Y109431D01*
X96367Y109323D01*
X96913Y109431D01*
X97057Y109528D01*
X97909Y108676D01*
X97909Y108676D01*
X98157Y108510D01*
X98450Y108452D01*
X98450Y108452D01*
X99717D01*
X100009Y108510D01*
X100257Y108676D01*
X102085Y110504D01*
X102585Y110297D01*
Y106814D01*
X102085Y106553D01*
X101837Y106719D01*
X101291Y106827D01*
X100744Y106719D01*
X100281Y106409D01*
X99972Y105946D01*
X99863Y105400D01*
X99972Y104854D01*
X100281Y104391D01*
X100744Y104081D01*
X101291Y103973D01*
X101837Y104081D01*
X102085Y104247D01*
X102585Y103986D01*
Y100567D01*
X101883Y99865D01*
X89400D01*
X89400Y99865D01*
X89107Y99806D01*
X88859Y99641D01*
X87323Y98105D01*
X87244Y98122D01*
X87084Y98669D01*
X89357Y100942D01*
X89357Y100942D01*
X89523Y101190D01*
X89581Y101483D01*
X89581Y101483D01*
Y104683D01*
X89523Y104976D01*
X89357Y105224D01*
X89357Y105224D01*
X88797Y105785D01*
X88795Y106014D01*
X88824Y106204D01*
X88890Y106359D01*
X89041Y106459D01*
X96711Y114130D01*
X97000Y114073D01*
X97546Y114181D01*
X97735Y114307D01*
X98235Y114040D01*
D02*
G37*
G36*
X107549Y149371D02*
X107361Y148852D01*
X106833Y148782D01*
X106127Y148490D01*
X105522Y148025D01*
X105057Y147420D01*
X104764Y146714D01*
X104665Y145957D01*
X104764Y145200D01*
X105057Y144494D01*
X105522Y143889D01*
X106127Y143424D01*
X106833Y143132D01*
X107590Y143032D01*
X108347Y143132D01*
X109052Y143424D01*
X109658Y143889D01*
X110123Y144494D01*
X110415Y145200D01*
X110485Y145728D01*
X111004Y145916D01*
X111335Y145585D01*
Y138000D01*
X111393Y137707D01*
X111559Y137459D01*
X113759Y135259D01*
X114007Y135093D01*
X114300Y135035D01*
X118300D01*
X118593Y135093D01*
X118841Y135259D01*
X121924Y138342D01*
X122467D01*
X122702Y137842D01*
X122377Y137419D01*
X122085Y136714D01*
X121985Y135957D01*
X122085Y135200D01*
X122377Y134494D01*
X122702Y134072D01*
X122467Y133572D01*
X105327D01*
X87949Y150949D01*
X87701Y151115D01*
X87409Y151173D01*
X78441D01*
X78240Y151448D01*
X78488Y151935D01*
X104985D01*
X107549Y149371D01*
D02*
G37*
G36*
X72202Y140636D02*
X71918Y140212D01*
X71097Y140552D01*
X70067Y140688D01*
X69037Y140552D01*
X68077Y140155D01*
X67253Y139522D01*
X66621Y138698D01*
X66224Y137739D01*
X66088Y136709D01*
Y132432D01*
X61441Y127785D01*
X53414D01*
X53279Y128040D01*
X53216Y128285D01*
X53599Y128859D01*
X53647Y129100D01*
X49972D01*
X50020Y128859D01*
X50403Y128285D01*
X50340Y128040D01*
X50206Y127785D01*
X34408D01*
X31489Y129471D01*
X31623Y129971D01*
X41130D01*
X41715Y130087D01*
X42212Y130419D01*
X42264Y130471D01*
X49551D01*
X49844Y130100D01*
X53775D01*
X54069Y130471D01*
X56500D01*
X57085Y130587D01*
X57581Y130919D01*
X69634Y142971D01*
X69867D01*
X72202Y140636D01*
D02*
G37*
G36*
X134798Y124115D02*
X135564Y124557D01*
X136346Y123212D01*
X136217Y122729D01*
X134846Y121937D01*
X137320Y117651D01*
X136958Y117278D01*
X136265Y117648D01*
X135169Y117981D01*
X134029Y118093D01*
X132889Y117981D01*
X131793Y117648D01*
X131670Y117582D01*
X129458Y120306D01*
X129567Y120882D01*
X129718Y120967D01*
X130210Y120759D01*
X130630Y120130D01*
X131259Y119710D01*
X131500Y119662D01*
Y121500D01*
Y123338D01*
X131259Y123290D01*
X130630Y122870D01*
X130210Y122241D01*
X130127Y121820D01*
X129599Y121733D01*
X127442Y125471D01*
X127730Y125971D01*
X133726D01*
X134798Y124115D01*
D02*
G37*
G36*
X79769Y133068D02*
X80265Y132737D01*
X80449Y132700D01*
X80710Y132192D01*
X80662Y131950D01*
X84338D01*
X84304Y132120D01*
X84458Y132507D01*
X84519Y132620D01*
X86954D01*
Y131787D01*
X87090Y130758D01*
X87487Y129798D01*
X88120Y128974D01*
X88944Y128342D01*
X89903Y127944D01*
X90933Y127808D01*
X91963Y127944D01*
X92923Y128342D01*
X93747Y128974D01*
X93868Y129132D01*
X94123Y128961D01*
X94709Y128845D01*
X100592D01*
X100861Y128345D01*
X100773Y127900D01*
X100863Y127445D01*
X100599Y126945D01*
X79532D01*
X74046Y132432D01*
Y136709D01*
X73910Y137739D01*
X73570Y138560D01*
X73994Y138843D01*
X79769Y133068D01*
D02*
G37*
G36*
X15866Y44929D02*
X16788Y44868D01*
X16943Y44651D01*
X17054Y44407D01*
X16645Y43579D01*
X16581Y42599D01*
X16897Y41669D01*
X17544Y40931D01*
X18425Y40496D01*
X19405Y40432D01*
X20335Y40748D01*
X21073Y41395D01*
X21508Y42276D01*
X21569Y43220D01*
X21583Y43268D01*
X21636Y43325D01*
X22039Y43597D01*
D01*
X24117Y44797D01*
X24136Y44768D01*
X31978Y36927D01*
X31786Y36465D01*
X24373D01*
X24209Y36709D01*
X23746Y37019D01*
X23200Y37127D01*
X22654Y37019D01*
X22191Y36709D01*
X21881Y36246D01*
X21773Y35700D01*
X21881Y35154D01*
X22191Y34691D01*
X22654Y34381D01*
X23200Y34273D01*
X23746Y34381D01*
X24209Y34691D01*
X24373Y34935D01*
X29751D01*
X30051Y34550D01*
X32000D01*
Y33550D01*
X30149D01*
X29818Y33065D01*
X23017D01*
X15265Y40817D01*
Y44300D01*
X15206Y44593D01*
X15103Y44748D01*
X15333Y45087D01*
X15411Y45153D01*
X15866Y44929D01*
D02*
G37*
G36*
X77086Y112735D02*
X77078Y112730D01*
X76682Y112138D01*
X76643Y111941D01*
X79547D01*
Y110941D01*
X76643D01*
X76682Y110743D01*
X77078Y110152D01*
X77669Y109757D01*
X78366Y109618D01*
X78783D01*
Y108453D01*
X78841Y108160D01*
X79006Y107912D01*
X80705Y106214D01*
X80662Y106000D01*
X82500D01*
Y105500D01*
X83000D01*
Y103662D01*
X83241Y103710D01*
X83585Y103940D01*
X84085Y103673D01*
Y101581D01*
X81959Y99455D01*
X81793Y99207D01*
X81735Y98914D01*
Y98817D01*
X80432Y97513D01*
X79970Y97705D01*
Y104295D01*
X79912Y104587D01*
X79746Y104835D01*
X73765Y110817D01*
Y112183D01*
X74817Y113235D01*
X76934D01*
X77086Y112735D01*
D02*
G37*
G36*
X67253Y128974D02*
X68077Y128342D01*
X68228Y128279D01*
X68310Y128000D01*
X68134Y127500D01*
X68134D01*
Y126672D01*
X67634Y126338D01*
Y124500D01*
Y122662D01*
X67723Y122680D01*
X68009Y122571D01*
X68228Y122344D01*
X68273Y122115D01*
X68035Y121641D01*
X67906Y121592D01*
X67729Y121556D01*
X67481Y121391D01*
X67481Y121391D01*
X61059Y114969D01*
X60893Y114721D01*
X60835Y114428D01*
Y102961D01*
X60893Y102669D01*
X61059Y102421D01*
X64721Y98759D01*
X64969Y98593D01*
X65261Y98535D01*
X65261Y98535D01*
X66683D01*
X68076Y97142D01*
X67830Y96682D01*
X67600Y96727D01*
X67054Y96619D01*
X66591Y96309D01*
X66427Y96065D01*
X65264D01*
X62638Y98691D01*
X62390Y98857D01*
X62098Y98915D01*
X61652D01*
X56881Y103686D01*
Y121550D01*
X56823Y121842D01*
X56657Y122090D01*
X54541Y124207D01*
X54511Y124226D01*
X54663Y124726D01*
X62075D01*
X62660Y124843D01*
X63156Y125174D01*
X66974Y128992D01*
X67253Y128974D01*
D02*
G37*
G36*
X74500Y39162D02*
X74741Y39210D01*
X75235Y39540D01*
X75735Y39346D01*
Y35667D01*
X75793Y35374D01*
X75959Y35126D01*
X76744Y34341D01*
X76781Y34154D01*
X76894Y33984D01*
X76649Y33525D01*
X76163Y33487D01*
X73965Y35685D01*
X73717Y35851D01*
X73425Y35909D01*
X68983D01*
X68691Y35851D01*
X68442Y35685D01*
X66558Y33800D01*
X66146Y34020D01*
X66127Y34196D01*
X66127Y34200D01*
X66125Y34214D01*
X66092Y34511D01*
X71756Y40174D01*
X72345Y40057D01*
X72630Y39630D01*
X73259Y39210D01*
X73500Y39162D01*
Y41000D01*
X74500D01*
Y39162D01*
D02*
G37*
G36*
X51110Y44721D02*
X51610D01*
Y41676D01*
X50177Y40243D01*
X48134D01*
X48070Y40329D01*
X48187Y41008D01*
X48370Y41130D01*
X48790Y41759D01*
X48838Y42000D01*
X45162D01*
X45210Y41759D01*
X45630Y41130D01*
X45813Y41008D01*
X45930Y40329D01*
X45866Y40243D01*
X42831D01*
Y41500D01*
X40256D01*
Y42500D01*
X42831D01*
Y43497D01*
X45468Y46135D01*
X46144Y45459D01*
X46392Y45294D01*
X46685Y45235D01*
X48500D01*
X48793Y45294D01*
X49041Y45459D01*
X49817Y46235D01*
X51110D01*
Y44721D01*
D02*
G37*
%LPC*%
G36*
X43709Y96700D02*
X42372D01*
X42420Y96459D01*
X42840Y95830D01*
X43468Y95410D01*
X43709Y95362D01*
Y96700D01*
D02*
G37*
G36*
X49500Y88838D02*
Y87500D01*
X50838D01*
X50790Y87741D01*
X50370Y88370D01*
X49741Y88790D01*
X49500Y88838D01*
D02*
G37*
G36*
X48500D02*
X48259Y88790D01*
X47630Y88370D01*
X47210Y87741D01*
X47162Y87500D01*
X48500D01*
Y88838D01*
D02*
G37*
G36*
X118937Y70240D02*
X116509D01*
X116545Y69965D01*
X116844Y69243D01*
X117320Y68623D01*
X117940Y68147D01*
X118662Y67848D01*
X118937Y67812D01*
Y70240D01*
D02*
G37*
G36*
Y73668D02*
X118662Y73632D01*
X117940Y73333D01*
X117320Y72857D01*
X116844Y72237D01*
X116545Y71515D01*
X116509Y71240D01*
X118937D01*
Y73668D01*
D02*
G37*
G36*
X119937D02*
Y71240D01*
X122365D01*
X122329Y71515D01*
X122030Y72237D01*
X121554Y72857D01*
X120934Y73333D01*
X120212Y73632D01*
X119937Y73668D01*
D02*
G37*
G36*
X116200Y85371D02*
X114862D01*
X114910Y85130D01*
X115330Y84501D01*
X115959Y84081D01*
X116200Y84033D01*
Y85371D01*
D02*
G37*
G36*
X118538D02*
X117200D01*
Y84033D01*
X117441Y84081D01*
X118070Y84501D01*
X118490Y85130D01*
X118538Y85371D01*
D02*
G37*
G36*
X27500Y50338D02*
Y49000D01*
X28838D01*
X28790Y49241D01*
X28370Y49870D01*
X27741Y50290D01*
X27500Y50338D01*
D02*
G37*
G36*
X28838Y48000D02*
X27500D01*
Y46662D01*
X27741Y46710D01*
X28370Y47130D01*
X28790Y47759D01*
X28838Y48000D01*
D02*
G37*
G36*
X98550Y62338D02*
X98308Y62290D01*
X97680Y61870D01*
X97260Y61241D01*
X97212Y61000D01*
X98550D01*
Y62338D01*
D02*
G37*
G36*
X32000Y81000D02*
X30662D01*
X30710Y80759D01*
X31130Y80130D01*
X31759Y79710D01*
X32000Y79662D01*
Y81000D01*
D02*
G37*
G36*
X34338D02*
X33000D01*
Y79662D01*
X33241Y79710D01*
X33870Y80130D01*
X34290Y80759D01*
X34338Y81000D01*
D02*
G37*
G36*
X32000Y83338D02*
X31759Y83290D01*
X31130Y82870D01*
X30710Y82241D01*
X30662Y82000D01*
X32000D01*
Y83338D01*
D02*
G37*
G36*
X33000D02*
Y82000D01*
X34338D01*
X34290Y82241D01*
X33870Y82870D01*
X33241Y83290D01*
X33000Y83338D01*
D02*
G37*
G36*
X93000Y69000D02*
X91662D01*
X91710Y68759D01*
X92130Y68130D01*
X92759Y67710D01*
X93000Y67662D01*
Y69000D01*
D02*
G37*
G36*
X58000Y72838D02*
Y71500D01*
X59338D01*
X59290Y71741D01*
X58870Y72370D01*
X58241Y72790D01*
X58000Y72838D01*
D02*
G37*
G36*
X57000D02*
X56759Y72790D01*
X56130Y72370D01*
X55710Y71741D01*
X55662Y71500D01*
X57000D01*
Y72838D01*
D02*
G37*
G36*
X106244Y120166D02*
Y118828D01*
X107582D01*
X107534Y119070D01*
X107114Y119698D01*
X106485Y120118D01*
X106244Y120166D01*
D02*
G37*
G36*
X105244D02*
X105003Y120118D01*
X104374Y119698D01*
X103954Y119070D01*
X103906Y118828D01*
X105244D01*
Y120166D01*
D02*
G37*
G36*
X95500Y108338D02*
X95259Y108290D01*
X94630Y107870D01*
X94210Y107241D01*
X94162Y107000D01*
X95500D01*
Y108338D01*
D02*
G37*
G36*
X96500D02*
Y107000D01*
X97838D01*
X97790Y107241D01*
X97370Y107870D01*
X96741Y108290D01*
X96500Y108338D01*
D02*
G37*
G36*
X97838Y106000D02*
X96500D01*
Y104662D01*
X96741Y104710D01*
X97370Y105130D01*
X97790Y105759D01*
X97838Y106000D01*
D02*
G37*
G36*
X95500D02*
X94162D01*
X94210Y105759D01*
X94630Y105130D01*
X95259Y104710D01*
X95500Y104662D01*
Y106000D01*
D02*
G37*
G36*
X100838Y147000D02*
X99500D01*
Y145662D01*
X99741Y145710D01*
X100370Y146130D01*
X100790Y146759D01*
X100838Y147000D01*
D02*
G37*
G36*
X98500Y149338D02*
X98259Y149290D01*
X97630Y148870D01*
X97210Y148241D01*
X97162Y148000D01*
X98500D01*
Y149338D01*
D02*
G37*
G36*
X99500D02*
Y148000D01*
X100838D01*
X100790Y148241D01*
X100370Y148870D01*
X99741Y149290D01*
X99500Y149338D01*
D02*
G37*
G36*
X98500Y147000D02*
X97162D01*
X97210Y146759D01*
X97630Y146130D01*
X98259Y145710D01*
X98500Y145662D01*
Y147000D01*
D02*
G37*
G36*
X106500Y139427D02*
X105954Y139319D01*
X105491Y139009D01*
X105181Y138546D01*
X105073Y138000D01*
X105181Y137454D01*
X105491Y136991D01*
X105954Y136681D01*
X106500Y136573D01*
X107046Y136681D01*
X107509Y136991D01*
X107819Y137454D01*
X107927Y138000D01*
X107819Y138546D01*
X107509Y139009D01*
X107046Y139319D01*
X106500Y139427D01*
D02*
G37*
G36*
X133838Y121000D02*
X132500D01*
Y119662D01*
X132741Y119710D01*
X133370Y120130D01*
X133790Y120759D01*
X133838Y121000D01*
D02*
G37*
G36*
X132500Y123338D02*
Y122000D01*
X133838D01*
X133790Y122241D01*
X133370Y122870D01*
X132741Y123290D01*
X132500Y123338D01*
D02*
G37*
G36*
X82000Y130950D02*
X80662D01*
X80710Y130709D01*
X81130Y130081D01*
X81759Y129661D01*
X82000Y129613D01*
Y130950D01*
D02*
G37*
G36*
X84338D02*
X83000D01*
Y129613D01*
X83241Y129661D01*
X83870Y130081D01*
X84290Y130709D01*
X84338Y130950D01*
D02*
G37*
G36*
X82000Y105000D02*
X80662D01*
X80710Y104759D01*
X81130Y104130D01*
X81759Y103710D01*
X82000Y103662D01*
Y105000D01*
D02*
G37*
G36*
X66634Y124000D02*
X65296D01*
X65344Y123759D01*
X65764Y123130D01*
X66392Y122710D01*
X66634Y122662D01*
Y124000D01*
D02*
G37*
G36*
Y126338D02*
X66392Y126290D01*
X65764Y125870D01*
X65344Y125241D01*
X65296Y125000D01*
X66634D01*
Y126338D01*
D02*
G37*
G36*
X47500Y44338D02*
Y43000D01*
X48838D01*
X48790Y43241D01*
X48370Y43870D01*
X47741Y44290D01*
X47500Y44338D01*
D02*
G37*
G36*
X46500D02*
X46259Y44290D01*
X45630Y43870D01*
X45210Y43241D01*
X45162Y43000D01*
X46500D01*
Y44338D01*
D02*
G37*
%LPD*%
D10*
X85453Y111441D02*
D03*
Y114000D02*
D03*
Y116559D02*
D03*
X79547Y111441D02*
D03*
Y114000D02*
D03*
D11*
Y116559D02*
D03*
D12*
X39033Y144008D02*
D03*
X50967Y150897D02*
D03*
X125967Y20993D02*
D03*
X114033Y14103D02*
D03*
D13*
X7500Y75611D02*
D03*
Y89390D02*
D03*
X157500Y89389D02*
D03*
Y75610D02*
D03*
D14*
X50966Y14103D02*
D03*
X39033Y20993D02*
D03*
X114034Y150897D02*
D03*
X125967Y144007D02*
D03*
D15*
X70134Y125713D02*
D03*
Y127287D02*
D03*
D16*
X97654Y49059D02*
D03*
Y43941D02*
D03*
X104347Y49059D02*
D03*
Y46500D02*
D03*
Y43941D02*
D03*
D17*
X67059Y75260D02*
D03*
X64500D02*
D03*
X61941D02*
D03*
Y82740D02*
D03*
X64500D02*
D03*
X67059D02*
D03*
X103059Y75260D02*
D03*
X100500D02*
D03*
X97941D02*
D03*
Y82740D02*
D03*
X100500D02*
D03*
X103059D02*
D03*
D18*
X76575Y85453D02*
D03*
Y79547D02*
D03*
X88425Y85453D02*
D03*
Y79547D02*
D03*
D19*
X54276Y50740D02*
D03*
Y47000D02*
D03*
Y43260D02*
D03*
X63724D02*
D03*
Y50740D02*
D03*
D20*
X135773Y127756D02*
D03*
X126227Y122244D02*
D03*
X143727Y103244D02*
D03*
X153273Y108756D02*
D03*
D21*
X31727Y126256D02*
D03*
X41273Y120744D02*
D03*
X22273Y104744D02*
D03*
X12727Y110256D02*
D03*
D22*
X72402Y13988D02*
D03*
Y25012D02*
D03*
X92500D02*
D03*
Y13988D02*
D03*
D23*
X75500Y53047D02*
D03*
Y58953D02*
D03*
D24*
X39185Y65500D02*
D03*
X49815D02*
D03*
D25*
X122468Y118000D02*
D03*
X118532D02*
D03*
X98532Y86500D02*
D03*
X102469D02*
D03*
X98032Y71500D02*
D03*
X101969D02*
D03*
X62532Y86500D02*
D03*
X66469D02*
D03*
X44469Y106500D02*
D03*
X40532D02*
D03*
X44469Y110000D02*
D03*
X40532D02*
D03*
X44469Y113500D02*
D03*
X40532D02*
D03*
X72531Y32000D02*
D03*
X76468D02*
D03*
X92469D02*
D03*
X88532D02*
D03*
X80532D02*
D03*
X84469D02*
D03*
X63968Y58500D02*
D03*
X60031D02*
D03*
X45469Y51000D02*
D03*
X41532D02*
D03*
X121968Y53500D02*
D03*
X118032D02*
D03*
X102969Y37500D02*
D03*
X99032D02*
D03*
X117513Y50013D02*
D03*
X121450D02*
D03*
X121531Y45000D02*
D03*
X125469D02*
D03*
X121531Y42500D02*
D03*
X125469D02*
D03*
X99032Y40000D02*
D03*
X102969D02*
D03*
X112969Y49430D02*
D03*
X109031D02*
D03*
X68968Y147000D02*
D03*
X65031D02*
D03*
D26*
X118500Y114469D02*
D03*
Y110531D02*
D03*
X122500Y114469D02*
D03*
Y110531D02*
D03*
X94000Y84469D02*
D03*
Y80532D02*
D03*
X71500Y82032D02*
D03*
Y85969D02*
D03*
X19500Y79969D02*
D03*
Y76032D02*
D03*
X33500Y67968D02*
D03*
Y64031D02*
D03*
X30000Y67968D02*
D03*
Y64031D02*
D03*
X19500Y84531D02*
D03*
Y88468D02*
D03*
X94000Y76500D02*
D03*
Y72563D02*
D03*
X110000Y42531D02*
D03*
Y46468D02*
D03*
X112500Y42531D02*
D03*
Y46468D02*
D03*
X65500Y150031D02*
D03*
Y153969D02*
D03*
X68500D02*
D03*
Y150031D02*
D03*
D27*
X22484Y45795D02*
D03*
X20516Y49205D02*
D03*
D28*
X142516Y46295D02*
D03*
X144484Y49705D02*
D03*
D29*
X57477Y26222D02*
D03*
X54067Y28190D02*
D03*
X46274Y32690D02*
D03*
X49684Y30722D02*
D03*
D30*
X115317Y30722D02*
D03*
X118727Y32690D02*
D03*
X110933Y28190D02*
D03*
X107523Y26222D02*
D03*
D31*
X131256Y48500D02*
D03*
X125744D02*
D03*
X34744Y42000D02*
D03*
X40256D02*
D03*
X84244Y53500D02*
D03*
X89756D02*
D03*
X47256Y55000D02*
D03*
X41744D02*
D03*
D32*
X19842Y114897D02*
D03*
X25157Y124103D02*
D03*
D33*
X87815Y7500D02*
D03*
X77185D02*
D03*
D34*
X144824Y112346D02*
D03*
X139509Y121552D02*
D03*
D35*
X80000Y42744D02*
D03*
Y48256D02*
D03*
X54500Y83756D02*
D03*
Y78244D02*
D03*
X85500Y48256D02*
D03*
Y42744D02*
D03*
D36*
X39276Y75760D02*
D03*
Y79500D02*
D03*
Y83240D02*
D03*
X48724D02*
D03*
Y79500D02*
D03*
Y75760D02*
D03*
D37*
X121450Y50013D02*
Y54222D01*
X98450Y109217D02*
X99717D01*
X96917Y110750D02*
X98450Y109217D01*
X96367Y110750D02*
X96917D01*
X101700Y111200D02*
Y114700D01*
X99717Y109217D02*
X101700Y111200D01*
X95016Y119750D02*
X95083D01*
X99000Y115833D01*
Y111000D02*
Y115833D01*
X101700Y114700D02*
X103250Y116250D01*
X107583D01*
X109100Y114733D01*
Y101267D02*
Y114733D01*
Y101267D02*
X112350Y98017D01*
Y69650D02*
Y98017D01*
Y69650D02*
X115500Y66500D01*
X110000Y65500D02*
X113352D01*
X108500Y67000D02*
X110000Y65500D01*
X108500Y67000D02*
Y69000D01*
X113352Y65500D02*
X118311Y60541D01*
X112938Y64500D02*
X121120Y56318D01*
X107000Y64500D02*
X112938D01*
X100661Y81006D02*
X106000D01*
Y81033D01*
X107350Y79684D01*
X102500Y62603D02*
X104047Y64150D01*
X82500Y98914D02*
X84850Y101264D01*
X90000Y111000D02*
Y116032D01*
X87903Y108904D02*
X90000Y111000D01*
X87070Y108904D02*
X87903D01*
X89000Y111500D02*
Y115618D01*
X87404Y109904D02*
X89000Y111500D01*
X86656Y109904D02*
X87404D01*
X84850Y108098D02*
X86656Y109904D01*
X84850Y101264D02*
Y108098D01*
X87500Y107000D02*
X88500D01*
X85850Y107683D02*
X87070Y108904D01*
X85850Y106317D02*
Y107683D01*
Y106317D02*
X86817Y105350D01*
X88150D01*
X87000Y102000D02*
Y103500D01*
X88150Y105350D02*
X88816Y104683D01*
X88500Y107000D02*
X97000Y115500D01*
X88816Y101483D02*
Y104683D01*
X85050Y97716D02*
X88816Y101483D01*
X83500Y98500D02*
X87000Y102000D01*
X132953Y143319D02*
X144000Y132271D01*
X126655Y143319D02*
X132953D01*
X154127Y114120D02*
X155500Y113000D01*
X154127Y114120D02*
X154146Y114088D01*
X155500Y113000D02*
X158000Y109000D01*
X144000Y130990D02*
X154127Y114120D01*
X153111Y113611D02*
X154500Y112500D01*
X157000Y108501D01*
X158000Y98596D02*
Y109000D01*
Y98596D02*
X161203Y95393D01*
X143000Y130500D02*
X153111Y113611D01*
X157000Y106000D02*
Y108501D01*
X150000Y99000D02*
X157000Y106000D01*
X80000Y52744D02*
X84988D01*
X85244Y53000D01*
X75803Y52744D02*
X80000D01*
X74119Y58953D02*
X75500D01*
X69166Y54000D02*
X74119Y58953D01*
X93150Y56350D02*
X93500Y56000D01*
X81817Y56350D02*
X93150D01*
X80850Y57316D02*
X81817Y56350D01*
X80850Y57316D02*
Y59585D01*
X76585Y63850D02*
X80850Y59585D01*
X69317Y63850D02*
X76585D01*
X68350Y62884D02*
X69317Y63850D01*
X68350Y60850D02*
Y62884D01*
X68000Y60500D02*
X68350Y60850D01*
X79500Y65768D02*
X82500Y62768D01*
X79500Y65768D02*
Y69000D01*
X82500Y58000D02*
Y62768D01*
X86500Y60167D02*
X88816Y57850D01*
X86500Y60167D02*
Y63500D01*
X83500Y66500D02*
X86500Y63500D01*
X83500Y66500D02*
Y68000D01*
X92828Y56022D02*
X93000Y55850D01*
X91500Y49918D02*
X91995D01*
X91500Y42000D02*
Y49918D01*
X91581Y50918D02*
X92081Y51418D01*
X90308Y50918D02*
X91581D01*
X70500Y51333D02*
X76500Y45333D01*
X142291Y49709D02*
X146000Y57111D01*
X142291Y46520D02*
Y49709D01*
Y46520D02*
X142516Y46295D01*
X146000Y57111D02*
Y82955D01*
X79547Y108453D02*
X82500Y105500D01*
X79547Y108453D02*
Y111441D01*
X74059Y116559D02*
X79547D01*
X74500Y114000D02*
X79547D01*
X73000Y112500D02*
X74500Y114000D01*
X73000Y110500D02*
Y112500D01*
Y110500D02*
X79205Y104295D01*
Y96755D02*
Y104295D01*
X78239Y95789D02*
X79205Y96755D01*
X76289Y95789D02*
X78239D01*
X72000Y91500D02*
X76289Y95789D01*
X84150Y72650D02*
X85650Y74150D01*
Y76933D01*
X85510Y77074D02*
Y81630D01*
Y77074D02*
X85650Y76933D01*
X82600Y74850D02*
X84000Y76250D01*
X76150Y72650D02*
X84150D01*
X84971Y71650D02*
X88321Y75000D01*
X78402Y71650D02*
X84971D01*
X67705Y104000D02*
X75500D01*
X127645Y110057D02*
X134402Y103300D01*
X116700Y107800D02*
X117100Y107400D01*
X114150Y103250D02*
X122215D01*
X119600Y95200D02*
Y101600D01*
X66500Y105205D02*
X67705Y104000D01*
X69500Y106000D02*
X75833D01*
X68500Y107000D02*
X69500Y106000D01*
X68500Y107000D02*
Y116000D01*
X75833Y106000D02*
X77150Y104683D01*
Y97844D02*
Y104683D01*
Y97844D02*
X77555Y97439D01*
X66500Y105205D02*
Y116500D01*
X74000Y118500D02*
X76000Y120500D01*
X68500Y118500D02*
X74000D01*
X92616Y122150D02*
X95016Y119750D01*
X74467Y123500D02*
X93600D01*
X73817Y122850D02*
X74467Y123500D01*
X74532Y122150D02*
X92616D01*
X72232Y119850D02*
X74532Y122150D01*
X68436Y119850D02*
X72232D01*
X72817Y122850D02*
X73817D01*
X93600Y123500D02*
X95700Y121400D01*
X70817Y120850D02*
X72817Y122850D01*
X68022Y120850D02*
X70817D01*
X70134Y125500D02*
X73134Y124500D01*
X61600Y114428D02*
X68022Y120850D01*
X63800Y115214D02*
X68436Y119850D01*
X66500Y116500D02*
X68500Y118500D01*
X63800Y104908D02*
Y115214D01*
Y104908D02*
X63808Y104900D01*
X65261Y99300D02*
X67000D01*
X71500Y96500D02*
X71700Y96300D01*
X69800Y96500D02*
X71500D01*
X67000Y99300D02*
X69800Y96500D01*
X53500Y104572D02*
X59350Y98722D01*
X65867Y88300D02*
X79000D01*
X67200Y89300D02*
X82932D01*
X83000Y89232D01*
X107523Y26222D02*
X108668Y27366D01*
Y28763D01*
X42500Y107000D02*
X42538Y107037D01*
X24500Y46617D02*
Y51833D01*
Y46617D02*
X24677Y46440D01*
Y45309D02*
Y46440D01*
Y45309D02*
X33286Y36700D01*
X20016Y48705D02*
Y49984D01*
X17000Y53000D02*
X20016Y49984D01*
X17000Y53000D02*
Y57000D01*
X19734Y43045D02*
X21984Y45295D01*
X18099Y43045D02*
X19734D01*
X22700Y32300D02*
X41100D01*
X14500Y40500D02*
X22700Y32300D01*
X14500Y40500D02*
Y44300D01*
X146638Y49205D02*
X148483Y47360D01*
X144984Y49205D02*
X146638D01*
X151500Y43500D02*
Y62644D01*
X142333Y34333D02*
X151500Y43500D01*
X130833Y34333D02*
X142333D01*
X151500Y62644D02*
X161203Y72347D01*
X77000Y150500D02*
X77091Y150408D01*
X87409D01*
X105017Y132800D01*
X97654Y49059D02*
Y49434D01*
X103500Y55280D01*
X115000Y60000D02*
X116024D01*
X120706Y55318D02*
X121682D01*
X121120Y56318D02*
X126000D01*
X116024Y60000D02*
X120706Y55318D01*
X118311Y60541D02*
X119625D01*
X122849Y57318D01*
X63000Y144000D02*
X65032Y146032D01*
Y149563D01*
X65500Y150031D01*
X68500D01*
X61600Y102961D02*
Y114428D01*
X129483Y60350D02*
X131482Y58351D01*
Y48726D02*
Y58351D01*
X131256Y48500D02*
X131482Y48726D01*
X126383Y72284D02*
X126500Y72401D01*
X126383Y67883D02*
Y72284D01*
X127500Y71987D02*
Y73401D01*
X127383Y71870D02*
X127500Y71987D01*
X127383Y71249D02*
Y71870D01*
Y71249D02*
X127500Y71132D01*
Y66500D02*
Y71132D01*
X126500Y72401D02*
Y82766D01*
X123500Y61667D02*
Y65752D01*
X119437Y69815D02*
X123500Y65752D01*
X124500Y66000D02*
X126383Y67883D01*
X124500Y63666D02*
Y66000D01*
X126797Y65797D02*
X127500Y66500D01*
Y73401D02*
X128350Y74251D01*
X119437Y69815D02*
Y70740D01*
X128350Y74251D02*
Y100950D01*
X125050Y84216D02*
X126500Y82766D01*
X123500Y61667D02*
X124817Y60350D01*
X124500Y63666D02*
X125500Y62666D01*
X109314Y62850D02*
X118032Y54133D01*
X109000Y61750D02*
X111431Y59319D01*
X105250Y61750D02*
X109000D01*
X111431Y59319D02*
X115532Y55218D01*
X124817Y60350D02*
X129483D01*
X122849Y57318D02*
X127182D01*
X121682Y55318D02*
X121968Y55032D01*
Y53500D02*
Y55032D01*
X125500Y62000D02*
Y62666D01*
X123500Y59000D02*
X128500D01*
X125469Y48224D02*
X125744Y48500D01*
X125215Y47970D02*
X125469Y48224D01*
Y42500D02*
Y48224D01*
X120266Y47970D02*
X125215D01*
X118500Y47000D02*
X119532D01*
X121531Y45000D01*
X117500Y42201D02*
X118150Y41551D01*
X118050Y41450D02*
X118400Y41100D01*
X118150Y41551D02*
X119099Y42500D01*
X118050Y41450D02*
X118150Y41551D01*
X119099Y42500D02*
X121531D01*
X126000Y56318D02*
X128182Y54135D01*
Y46318D02*
Y54135D01*
Y46318D02*
X132000Y42500D01*
X127182Y57318D02*
X129832Y54668D01*
Y51848D02*
Y54668D01*
X118032Y53500D02*
Y54133D01*
X115532Y52274D02*
X116059Y51747D01*
X119004D01*
X119500Y51251D01*
X102500Y60202D02*
Y62603D01*
X104461Y63150D02*
X106017D01*
X103500Y62189D02*
X104461Y63150D01*
X103500Y55280D02*
Y62189D01*
X104047Y64150D02*
X104117D01*
X104500Y61000D02*
X105250Y61750D01*
X104500Y57102D02*
Y61000D01*
Y57102D02*
X106931Y54671D01*
X109031Y49000D02*
Y53985D01*
X106931Y51579D02*
Y54671D01*
X107350Y55667D02*
X109031Y53985D01*
X106900Y50705D02*
Y51548D01*
X106931Y51579D01*
X107350Y55667D02*
Y57650D01*
X113500Y52500D02*
Y53119D01*
X106500Y58500D02*
Y60000D01*
X106317Y62850D02*
X109314D01*
X106017Y63150D02*
X106317Y62850D01*
X110500Y56119D02*
Y56500D01*
X115532Y52274D02*
Y55218D01*
X110500Y56119D02*
X113500Y53119D01*
X106500Y58500D02*
X107350Y57650D01*
X112969Y46437D02*
Y49000D01*
X111734Y44537D02*
Y46468D01*
X104347Y46500D02*
X104378Y46468D01*
X108266D01*
Y44977D02*
Y46468D01*
Y44977D02*
X108705Y44537D01*
X111734D01*
Y46468D02*
X112500D01*
X108883Y37883D02*
X110411Y39411D01*
X110383Y36883D02*
X113600Y40100D01*
X107596Y36883D02*
X110383D01*
X110288Y30383D02*
X114979D01*
X108668Y28763D02*
X110288Y30383D01*
X114979D02*
X115317Y30722D01*
X109031Y49000D02*
X110000Y48031D01*
X117513Y47987D02*
Y50013D01*
Y47987D02*
X118500Y47000D01*
X117500Y42201D02*
Y45333D01*
X114817Y46650D02*
X116183D01*
X117500Y45333D01*
X114234Y42734D02*
X115500Y44000D01*
X114234Y40540D02*
Y42734D01*
X113795Y40100D02*
X114234Y40540D01*
X113600Y40100D02*
X113795D01*
X115500Y44000D02*
Y45000D01*
X113850Y45683D02*
X114817Y46650D01*
X112785Y45683D02*
X113850D01*
X101850Y68850D02*
Y71381D01*
X101969Y71500D01*
X90850Y57850D02*
X101850Y68850D01*
X101500Y63017D02*
X102800Y64317D01*
X101500Y60617D02*
Y63017D01*
X99733Y58850D02*
X101500Y60617D01*
X99899Y57601D02*
X102500Y60202D01*
X106850Y69683D02*
X107150Y69984D01*
X106850Y66883D02*
Y69683D01*
X105254Y49059D02*
X106900Y50705D01*
X106256Y42031D02*
X112500D01*
X104347Y43941D02*
X106256Y42031D01*
X17300Y98200D02*
X21186D01*
X157500Y73532D02*
Y75610D01*
X115080Y24043D02*
X116250D01*
X110933Y28190D02*
X115080Y24043D01*
X107523Y19110D02*
X107590Y19043D01*
X107523Y19110D02*
Y26222D01*
X40090Y29043D02*
X42628D01*
X46274Y32690D01*
X46499Y32915D01*
X50328D01*
X54067Y29176D01*
Y28190D02*
Y29176D01*
X51000Y36500D02*
X57000Y30500D01*
X45300Y36500D02*
X51000D01*
X41100Y32300D02*
X45300Y36500D01*
X48750Y24043D02*
X49684Y24977D01*
Y30722D01*
X15000Y92500D02*
X15468D01*
X19500Y88468D01*
X21500Y86468D01*
Y81969D02*
Y86468D01*
X19500Y79969D02*
X21500Y81969D01*
X15000Y82500D02*
X17469D01*
X19500Y84531D01*
X24150Y69550D02*
Y88850D01*
X7909Y105091D02*
X24150Y88850D01*
X7909Y105091D02*
Y111000D01*
X9000Y106500D02*
X17300Y98200D01*
X9000Y106500D02*
Y110500D01*
X51000Y152500D02*
X51785Y151715D01*
X110000Y9000D02*
Y9864D01*
X94000Y80532D02*
X95732D01*
X97941Y82740D01*
X89409Y84469D02*
X94000D01*
X96404Y76555D02*
X96843Y76994D01*
X96404Y74967D02*
Y76555D01*
X94000Y72563D02*
X96404Y74967D01*
X88425Y77969D02*
X89894Y76500D01*
X94000D01*
X92069Y78431D02*
X95295D01*
X91341Y79159D02*
X92069Y78431D01*
X91341Y79159D02*
Y81630D01*
X95295Y78431D02*
X95726Y78000D01*
X96843Y76994D02*
X101598D01*
X24500Y51833D02*
X26000Y53333D01*
X67134Y124500D02*
X70134Y125500D01*
X26000Y53333D02*
Y54850D01*
X27500Y52500D02*
X34000D01*
X35000Y51500D01*
X26000Y58150D02*
X26683D01*
X27650Y57183D01*
Y55817D02*
Y57183D01*
X26683Y54850D02*
X27650Y55817D01*
X26000Y54850D02*
X26683D01*
X30500Y54921D02*
Y60500D01*
X33379Y60927D02*
X34000D01*
X31766Y62540D02*
X33379Y60927D01*
X28231Y64031D02*
X31766D01*
Y62540D02*
Y64031D01*
X26000Y58150D02*
Y66100D01*
X24650Y57850D02*
Y65117D01*
X23650Y59150D02*
Y64702D01*
X23000Y58500D02*
Y59000D01*
Y58500D02*
X23650Y59150D01*
X24350Y65417D02*
X24650Y65117D01*
X23350Y65002D02*
X23650Y64702D01*
X27700Y64563D02*
X28231Y64031D01*
X27700Y64563D02*
Y71500D01*
X74800Y147500D02*
X77800Y144500D01*
X70134Y122500D02*
Y125500D01*
X72400Y25012D02*
X72531Y32000D01*
X72400Y25012D02*
Y25012D01*
X92469Y25043D02*
Y32000D01*
X150000Y92500D02*
Y99000D01*
X144000Y130990D02*
Y132271D01*
X143000Y130500D02*
Y131857D01*
X127307Y132807D02*
X130500Y136000D01*
X105024Y132807D02*
X127307D01*
X102300Y128000D02*
X120000D01*
X102200Y127900D02*
X102300Y128000D01*
X7909Y111000D02*
X21437Y134591D01*
X25091D01*
X22000Y133500D02*
X28526D01*
X9000Y110500D02*
X22000Y133500D01*
X42538Y116278D02*
X43850Y117590D01*
X42538Y107037D02*
Y116278D01*
X45500Y114531D02*
Y122500D01*
X44469Y113500D02*
X45500Y114531D01*
X42500Y107000D02*
X43000Y106500D01*
X124400Y120812D02*
X126727Y121244D01*
X122468Y118000D02*
X124400Y120812D01*
X130500Y136000D02*
X135000D01*
X105017Y132800D02*
X105024Y132807D01*
X118300Y135800D02*
X121607Y139107D01*
X114300Y135800D02*
X118300D01*
X112100Y138000D02*
X114300Y135800D01*
X33286Y36700D02*
X40937D01*
X33000Y38400D02*
X54533D01*
X37266Y39478D02*
X50494D01*
X34744Y42000D02*
X37266Y39478D01*
X67150Y69650D02*
X77816D01*
X58777Y61277D02*
X67150Y69650D01*
X55350Y61277D02*
X58777D01*
X49581Y55507D02*
X55350Y61277D01*
X49581Y52918D02*
Y55507D01*
X103450Y78000D02*
X104450Y77000D01*
X95726Y78000D02*
X103450D01*
X61600Y102961D02*
X65261Y99300D01*
X61962Y59720D02*
X67561Y65319D01*
Y67561D01*
X62350Y66350D02*
X66650Y70650D01*
X61962Y57205D02*
Y59720D01*
X56850Y66350D02*
X62350D01*
X61683Y67350D02*
X66859Y72526D01*
X66967Y80000D02*
X68000D01*
X64500Y82467D02*
X66967Y80000D01*
X64500Y82467D02*
Y82740D01*
X83000Y84500D02*
X84000Y83500D01*
Y83000D02*
Y83500D01*
X85949Y82069D02*
X90901D01*
X85510Y81630D02*
X85949Y82069D01*
X83000Y84500D02*
Y89232D01*
X75686Y74850D02*
X82600D01*
X73361Y72526D02*
X75686Y74850D01*
X66859Y72526D02*
X73361D01*
X124234Y108266D02*
X124500Y108000D01*
X124234Y108266D02*
Y112023D01*
X122500Y113757D02*
X124234Y112023D01*
X122500Y113757D02*
Y114468D01*
X51000Y47000D02*
X54276D01*
X49500D02*
X51000D01*
Y54334D01*
X54432Y57766D01*
X59297D01*
X60031Y58500D01*
X55766Y56766D02*
X61523D01*
X53000Y54000D02*
X55766Y56766D01*
X76500Y35667D02*
X77466Y34700D01*
X61000Y95500D02*
X67200Y89300D01*
X59350Y94816D02*
X65867Y88300D01*
X59350Y94816D02*
Y98722D01*
X53500Y104572D02*
Y112790D01*
X62098Y98150D02*
X64948Y95300D01*
X67600D01*
X61336Y98150D02*
X62098D01*
X56116Y103370D02*
X61336Y98150D01*
X56116Y103370D02*
Y121550D01*
X25091Y134591D02*
X28000Y137500D01*
X26683Y67750D02*
Y92703D01*
X21186Y98200D02*
X26683Y92703D01*
X23350Y65002D02*
Y68750D01*
X25317Y67750D02*
X26683D01*
X24350Y66783D02*
X25317Y67750D01*
X24350Y65417D02*
Y66783D01*
X20167Y62500D02*
X22000D01*
X24650Y57850D02*
X26000Y56500D01*
X80000Y48256D02*
Y52744D01*
X16000Y58333D02*
X20167Y62500D01*
X34000Y60927D02*
X37405Y57522D01*
X37405D01*
X37427Y57500D01*
X39244D01*
X90901Y82069D02*
X91341Y81630D01*
X100500Y81166D02*
X100661Y81006D01*
X100500Y81166D02*
Y82740D01*
Y72969D02*
X101969Y71500D01*
X100500Y72969D02*
Y75260D01*
X108850Y84864D02*
X109150Y85164D01*
X108850Y81817D02*
Y84864D01*
X95900Y87400D02*
X97000Y88500D01*
X161203Y72347D02*
Y95393D01*
X70000Y59000D02*
Y62200D01*
X68000Y57000D02*
X70000Y59000D01*
X87740Y61260D02*
Y67760D01*
Y61260D02*
X89500Y59500D01*
X55041Y43260D02*
X55160D01*
X54276Y50740D02*
X55041D01*
X57191Y48590D01*
Y45410D02*
Y48590D01*
X55041Y43260D02*
X57191Y45410D01*
X54276Y43260D02*
X55041D01*
X48000Y51337D02*
X49581Y52918D01*
X48000Y49842D02*
Y51337D01*
X47000Y48842D02*
X48000Y49842D01*
X45350Y47335D02*
Y50882D01*
X45468Y51000D01*
X45350Y47335D02*
X45468Y47216D01*
X47000Y48500D02*
Y48842D01*
X39244Y57500D02*
X41744Y55000D01*
X36270Y60071D02*
X37841Y58500D01*
X45468Y47216D02*
X46685Y46000D01*
X48500D01*
X49500Y47000D01*
X40256Y42004D02*
X45468Y47216D01*
X40256Y42000D02*
Y42004D01*
X54276Y47000D02*
X54326Y46950D01*
X60316Y67350D02*
X61683D01*
X76500Y48500D02*
X76744Y48256D01*
X80000D01*
X85500D02*
X86012D01*
X16000Y46586D02*
Y58333D01*
Y46586D02*
X16131Y46455D01*
X17000Y57000D02*
X20500Y60500D01*
X61523Y56766D02*
X61962Y57205D01*
X52291Y59632D02*
X54350Y61691D01*
X47339Y59632D02*
X52291D01*
X54350Y61691D02*
Y66350D01*
X56183Y68183D01*
X59483D01*
X60316Y67350D01*
X50494Y39478D02*
X54276Y43260D01*
X118500Y110531D02*
X122500D01*
X38609Y79500D02*
X39276D01*
X63724Y50740D02*
X63969Y50984D01*
Y54000D01*
Y58500D01*
X41744Y51213D02*
Y55000D01*
X41531Y51000D02*
X41744Y51213D01*
X45468Y53213D02*
X47256Y55000D01*
X45468Y51000D02*
Y53213D01*
X41531Y48787D02*
Y51000D01*
X60010Y58522D02*
X60031Y58500D01*
X39276Y83240D02*
X39943D01*
X39276Y79500D02*
X39943D01*
X38609Y83240D02*
X39276D01*
X33500Y67969D02*
X34969D01*
X36000Y69000D01*
Y80632D01*
X38609Y83240D01*
X37950Y113500D02*
X40531D01*
X66468Y86500D02*
X69050D01*
X64500Y82740D02*
Y83600D01*
X62531Y85569D02*
X64500Y83600D01*
X62531Y85569D02*
Y86500D01*
X100500Y82740D02*
Y83600D01*
X98531Y85569D02*
X100500Y83600D01*
X98531Y85569D02*
Y86500D01*
X71500Y85969D02*
X73700D01*
X74216Y85453D01*
X76575D01*
X44469Y110000D02*
Y113500D01*
X84469Y32000D02*
X88532D01*
X118531Y118000D02*
Y121500D01*
X88425Y77969D02*
Y79547D01*
X42200Y103100D02*
X44469Y105369D01*
Y106500D01*
X67059Y75260D02*
Y76559D01*
X70555D01*
X72050Y78055D01*
Y81200D01*
X71500D02*
Y82032D01*
X57477Y26222D02*
X59392D01*
X60392Y25222D01*
X80000Y42744D02*
X80850D01*
X43000Y106500D02*
X44469D01*
X80531Y32000D02*
Y34000D01*
X126700Y94200D02*
Y102600D01*
X104350Y112050D02*
X106900Y114600D01*
X79000Y88300D02*
X79700Y87600D01*
Y80247D02*
Y87600D01*
X79000Y79547D02*
X79700Y80247D01*
X76575Y79547D02*
X79000D01*
X110100Y112600D02*
X111500Y114000D01*
X110100Y103222D02*
Y112600D01*
Y103222D02*
X110372Y102950D01*
X68983Y35144D02*
X73425D01*
X68400Y41200D02*
Y44000D01*
X66550Y45850D02*
X68400Y44000D01*
X57750Y45850D02*
X66550D01*
X134402Y103300D02*
X138000D01*
X140100Y101200D01*
Y98700D02*
Y101200D01*
X106400Y101300D02*
Y106900D01*
X74800Y147500D02*
Y152000D01*
X75500Y152700D01*
X105302D01*
X112100Y145902D01*
Y138000D02*
Y145902D01*
X111800Y105600D02*
X114150Y103250D01*
X54000Y123666D02*
X56116Y121550D01*
X51000Y123666D02*
X54000D01*
X50400Y123066D02*
X51000Y123666D01*
X50400Y120400D02*
Y123066D01*
X10450Y67950D02*
X15000Y72500D01*
X10450Y48350D02*
Y67950D01*
Y48350D02*
X14500Y44300D01*
X72900Y42400D02*
Y45900D01*
X50600Y20800D02*
X52600Y22800D01*
X34800Y35700D02*
X36500Y34000D01*
X23200Y35700D02*
X34800D01*
X12100Y60400D02*
X15200Y63500D01*
X51100Y107100D02*
X51500Y106700D01*
X51100Y107100D02*
Y118000D01*
X52100Y119000D01*
Y122000D01*
X88532Y29100D02*
Y32000D01*
X103350Y100250D02*
Y113400D01*
X102200Y99100D02*
X103350Y100250D01*
X27700Y81500D02*
X31400Y85200D01*
X42200D01*
X116700Y117500D02*
X118531Y118000D01*
X116700Y107800D02*
Y117500D01*
X71500Y81200D02*
X72050D01*
X34744Y42000D02*
X41531Y48787D01*
X42200Y85200D02*
Y92400D01*
X97941Y71500D02*
Y75260D01*
Y71500D02*
X98031D01*
X103059Y82740D02*
Y86500D01*
X102468D02*
X103059D01*
X80000Y42744D02*
X85500D01*
Y38500D02*
Y42744D01*
X118500Y114469D02*
X122468Y118000D01*
X148695Y85650D02*
X150150D01*
X151500Y87000D01*
X66468Y83331D02*
Y86500D01*
Y83331D02*
X67059Y82740D01*
X39943Y79500D02*
X42191Y81748D01*
X86500Y69000D02*
X87740Y67760D01*
X103059Y75260D02*
Y75533D01*
X55160Y43260D02*
X57750Y45850D01*
X33500Y64031D02*
X36270Y61262D01*
Y60071D02*
Y61262D01*
X37841Y58500D02*
X47256D01*
Y55000D02*
Y58500D01*
X80531Y34000D02*
X82531Y36000D01*
X91120D01*
X36800Y85171D02*
X42191D01*
Y81748D02*
Y85171D01*
X76469Y32000D02*
Y32100D01*
X73425Y35144D02*
X76469Y32100D01*
X54276Y50740D02*
Y51506D01*
X146000Y82955D02*
X148695Y85650D01*
X36500Y26800D02*
X37407Y25893D01*
X42107D01*
X47200Y20800D01*
X50600D01*
X77466Y34700D02*
X78100D01*
X118500Y108500D02*
Y110531D01*
Y108500D02*
X119500Y107500D01*
X30000Y67969D02*
X33500D01*
X27700Y71500D02*
X32500D01*
X27700D02*
Y81500D01*
X21744Y74000D02*
X22500D01*
X20000Y75744D02*
X21744Y74000D01*
X101598Y76994D02*
X103059Y75533D01*
Y86500D02*
X104500D01*
X121738Y89738D02*
Y91900D01*
X119850Y87850D02*
X121738Y89738D01*
X115236Y87850D02*
X119850D01*
X116000Y91000D02*
Y91600D01*
X119600Y95200D01*
X111500Y101200D02*
X113350Y99350D01*
Y89736D02*
X115236Y87850D01*
X113350Y89736D02*
Y99350D01*
X114350Y90150D02*
X115650Y88850D01*
X114350Y90150D02*
Y100683D01*
X115650Y88850D02*
X117850D01*
X119500Y90500D01*
X105850Y96684D02*
X106817Y97650D01*
X110372Y102950D02*
X112083D01*
X114350Y100683D01*
X106400Y101300D02*
X110500Y97200D01*
Y82500D02*
Y97200D01*
X106817Y97650D02*
X108183D01*
X109150Y96684D01*
Y85164D02*
Y96684D01*
X104350Y96945D02*
Y112050D01*
X104500Y86500D02*
X106000Y88000D01*
X102817Y91850D02*
X104183D01*
X97000Y88500D02*
X102248D01*
X107500Y93752D01*
Y96000D01*
X95800Y95200D02*
X99467D01*
X102817Y91850D01*
X104183D02*
X105850Y93516D01*
Y96684D01*
X103500Y96095D02*
X104350Y96945D01*
X103500Y93500D02*
Y96095D01*
X88816Y57850D02*
X90850D01*
X77402Y70650D02*
X78402Y71650D01*
X66650Y70650D02*
X77402D01*
X76000Y72500D02*
X76150Y72650D01*
X77816Y69650D02*
X78816Y70650D01*
X84850D01*
X86500Y69000D01*
X23350Y68750D02*
X24150Y69550D01*
X121690Y32690D02*
X122000Y33000D01*
X118727Y32690D02*
X121690D01*
X43500Y63471D02*
X47339Y59632D01*
X43500Y63471D02*
Y72000D01*
X76500Y35667D02*
Y45333D01*
X30500Y40900D02*
Y45500D01*
Y40900D02*
X33000Y38400D01*
X64700Y34200D02*
X72900Y42400D01*
X66389Y32550D02*
X68983Y35144D01*
X63050Y35850D02*
X68400Y41200D01*
X64000Y32550D02*
X66389D01*
X63050Y33500D02*
Y35850D01*
Y33500D02*
X64000Y32550D01*
X54533Y38400D02*
X60001Y32932D01*
X62042Y18145D02*
Y38958D01*
X59000Y42000D02*
X62042Y38958D01*
X63969Y54000D02*
X69166D01*
X147734Y46455D02*
X148869D01*
X105227Y73500D02*
X107650Y75923D01*
X104450Y77000D02*
X106000D01*
X107350Y77983D02*
Y79684D01*
Y77983D02*
X107650Y77684D01*
Y75923D02*
Y77684D01*
X109500Y77166D02*
X110650Y78316D01*
Y80016D01*
X108850Y81817D02*
X110650Y80016D01*
X109500Y75500D02*
Y77166D01*
X129350Y79154D02*
X130000Y78504D01*
X126700Y84900D02*
Y91900D01*
X129350Y84358D02*
X134500Y89508D01*
X129350Y79154D02*
Y84358D01*
X125050Y84216D02*
Y85584D01*
X125700Y86234D01*
Y90566D01*
X125050Y91216D02*
X125700Y90566D01*
X125050Y94884D02*
X125700Y95534D01*
Y99765D01*
X122215Y103250D02*
X125700Y99765D01*
X125050Y91216D02*
Y94884D01*
X86012Y48256D02*
X88500D01*
X102800Y64317D02*
X104491Y66009D01*
X130000Y77000D02*
X130500Y76500D01*
X130000Y77000D02*
Y78504D01*
X96850Y58850D02*
X99733D01*
X95150Y57150D02*
X96850Y58850D01*
X97101Y57601D02*
X99899D01*
X96150Y54902D02*
Y56650D01*
X97101Y57601D01*
X95150Y55317D02*
Y57150D01*
X94500Y37500D02*
X94543Y37543D01*
X90308Y41778D02*
X94543Y37543D01*
X128500Y59000D02*
X129000Y58500D01*
X91120Y36000D02*
X92151Y37031D01*
X94500Y34500D02*
Y37500D01*
X94900Y28618D02*
X96500Y30218D01*
Y35000D01*
X91500Y42000D02*
X96000Y37500D01*
Y35500D02*
X96500Y35000D01*
X96000Y35500D02*
Y37500D01*
X97100Y36205D02*
X98805Y34500D01*
X97100Y36205D02*
Y37814D01*
X92500Y42414D02*
X97100Y37814D01*
X93081Y51833D02*
X96150Y54902D01*
X82216Y58000D02*
X82500D01*
X90308Y41778D02*
Y50918D01*
X86012Y48256D02*
X90756Y53000D01*
X92081Y52247D02*
X95150Y55317D01*
X92081Y51418D02*
Y52247D01*
X91995Y49918D02*
X93081Y51003D01*
Y51833D01*
X92500Y42414D02*
Y49009D01*
X94081Y50589D01*
Y51081D01*
X98706Y55900D02*
X101200D01*
X96100Y53295D02*
X98706Y55900D01*
X96100Y53100D02*
Y53295D01*
X94081Y51081D02*
X96100Y53100D01*
X97226Y42305D02*
X99032Y40500D01*
X94390Y42305D02*
X97226D01*
X93951Y42744D02*
X94390Y42305D01*
X93951Y42744D02*
Y45137D01*
X94390Y45577D01*
Y46890D01*
X96559Y49059D01*
X97654D01*
X99032Y37500D02*
Y40500D01*
X102969Y37500D02*
Y40500D01*
Y42563D01*
X104347Y43941D01*
X97654D02*
X99059D01*
X101000Y42000D01*
Y36242D02*
Y42000D01*
X98805Y34500D02*
X105213D01*
X107596Y36883D01*
X101000Y36242D02*
X101477Y35766D01*
X105064D01*
X110000Y45968D02*
Y48031D01*
X119500Y48736D02*
X120266Y47970D01*
X119500Y48736D02*
Y51251D01*
X104347Y49059D02*
X105254D01*
X112500Y45968D02*
X112785Y45683D01*
X105064Y35766D02*
X107182Y37883D01*
X108883D01*
X60967Y18145D02*
X62042D01*
X58715Y15893D02*
X60967Y18145D01*
X56105Y15893D02*
X58715D01*
X53112Y18887D02*
X56105Y15893D01*
X49575Y18887D02*
X53112D01*
X48833Y18145D02*
X49575Y18887D01*
X41881Y18145D02*
X48833D01*
X39033Y20993D02*
X41881Y18145D01*
X45397Y14103D02*
X50966D01*
X44500Y15000D02*
X45397Y14103D01*
X3500Y85390D02*
X7500Y89390D01*
X3500Y71166D02*
Y85390D01*
Y71166D02*
X7000Y67667D01*
Y65500D02*
X8000Y64500D01*
X7000Y65500D02*
Y67667D01*
X7500Y75611D02*
X8111D01*
X15000Y82500D01*
X50570Y150500D02*
X51785Y151715D01*
X41500Y150500D02*
X50570D01*
X34000Y146000D02*
X41500Y150500D01*
X34000Y138974D02*
Y146000D01*
X28526Y133500D02*
X34000Y138974D01*
X39033Y144007D02*
X48750Y140975D01*
X114034Y150897D02*
X116250Y140957D01*
X125967Y144007D02*
X126655Y143319D01*
X121607Y139107D02*
X135750D01*
X143000Y131857D01*
X153700Y79410D02*
Y99000D01*
Y79410D02*
X157500Y75610D01*
Y89389D02*
Y92093D01*
X155850Y93059D02*
X156817Y92093D01*
X155850Y93059D02*
Y95393D01*
X156000Y95543D01*
Y101500D01*
X156817Y92093D02*
X157500D01*
X130750Y19000D02*
Y31750D01*
X128000Y34500D02*
X130750Y31750D01*
X116636Y11500D02*
X118000D01*
X114033Y14103D02*
X114136Y14000D01*
X116636Y11500D01*
X110000Y9864D02*
X114136Y14000D01*
X118000Y11500D02*
X130750Y19000D01*
X116250Y24043D02*
X125967Y20993D01*
X70500Y51333D02*
Y53000D01*
X86700Y96400D02*
X89400Y99100D01*
X102200D01*
X74500Y91500D02*
X75500D01*
X83500Y94500D02*
Y98500D01*
X75500Y91500D02*
X82500Y98500D01*
Y98914D01*
X87750Y94750D02*
X90000Y97000D01*
X86016Y94750D02*
X87750D01*
X85050Y95717D02*
X86016Y94750D01*
X85050Y95717D02*
Y97716D01*
X85453Y116559D02*
X88059D01*
X89000Y115618D01*
X87936Y118096D02*
X90000Y116032D01*
X83635Y118096D02*
X87936D01*
X82734Y117196D02*
X83635Y118096D01*
X83500Y114000D02*
X85453D01*
X82734Y114766D02*
X83500Y114000D01*
X82734Y114766D02*
Y117196D01*
X104117Y64150D02*
X106850Y66883D01*
X107150Y69984D02*
Y73150D01*
X109500Y75500D01*
X104491Y66009D02*
X105500Y67017D01*
Y71000D01*
D38*
X68968Y146031D02*
X70500Y144500D01*
X80850Y134150D02*
X90933D01*
X56500Y132000D02*
X69000Y144500D01*
X70500D01*
X80850Y134150D01*
X134500Y62743D02*
Y69508D01*
Y62743D02*
X139000Y58243D01*
Y41863D02*
Y58243D01*
X116000Y105000D02*
X129008D01*
X114000Y107000D02*
X116000Y105000D01*
X78899Y125416D02*
X114000D01*
X70067Y134248D02*
X78899Y125416D01*
X136000Y43106D02*
Y56757D01*
X129547Y63210D02*
X136000Y56757D01*
X129547Y63210D02*
Y71559D01*
X134037Y36900D02*
X139000Y41863D01*
X132794Y39900D02*
X136000Y43106D01*
X127006Y36900D02*
X134037D01*
X125763Y39900D02*
X132794D01*
X126106Y36000D02*
X127006Y36900D01*
X124863Y39000D02*
X125763Y39900D01*
X111302Y35133D02*
X115169Y39000D01*
X108321Y35133D02*
X111302D01*
X112545Y32133D02*
X116412Y36000D01*
X109563Y32133D02*
X112545D01*
X106930Y29500D02*
X109563Y32133D01*
X116412Y36000D02*
X126106D01*
X115169Y39000D02*
X124863D01*
X18000Y100000D02*
X45500D01*
X12727Y105273D02*
X18000Y100000D01*
X12727Y105273D02*
Y110256D01*
X41630Y132000D02*
X56500D01*
X62075Y126256D02*
X70067Y134248D01*
X70068Y134150D01*
X70134Y128000D01*
X47160Y126256D02*
X62075D01*
X41130Y131500D02*
X41630Y132000D01*
X90933Y134150D02*
X94709Y130374D01*
X118980D01*
X30971Y112250D02*
X41273Y120744D01*
X82500Y23000D02*
X92469Y25043D01*
X72401Y25012D02*
X82500Y23000D01*
X72400Y25012D02*
X72401Y25012D01*
X143500Y69508D02*
Y96000D01*
X141500Y129000D02*
X149552Y115155D01*
X153273Y108756D01*
X144824Y112346D02*
X149214Y114958D01*
X151756Y108756D02*
X153273D01*
X149500Y106500D02*
X151756Y108756D01*
X149500Y102000D02*
Y106500D01*
X143500Y96000D02*
X149500Y102000D01*
X131626Y133500D02*
X136500D01*
X141500Y129000D01*
X125000Y127500D02*
X135000D01*
X122480Y130374D02*
X122606Y130500D01*
X128626D01*
X131626Y133500D01*
X122916Y125416D02*
X125000Y127500D01*
X114000Y125416D02*
X122916D01*
X136336Y126272D02*
X139190Y121366D01*
X139342Y121103D01*
X121020Y130374D02*
X122480D01*
X120994Y130400D02*
X121020Y130374D01*
X119006Y130400D02*
X120994D01*
X118980Y130374D02*
X119006Y130400D01*
X114000Y107000D02*
Y125416D01*
X134029Y112250D02*
X143727Y103244D01*
X23000Y131500D02*
X41130D01*
X47160Y126256D02*
X48000Y125416D01*
X31727Y126256D02*
X47160D01*
X25157Y124103D02*
X31727Y126256D01*
X12727Y110256D02*
X15000Y117500D01*
X19842Y114897D01*
X15000Y117500D02*
X23000Y131500D01*
X48000Y102500D02*
Y125416D01*
X99659Y13988D02*
X102000Y16329D01*
X92500Y13988D02*
X99659D01*
X87815Y7500D02*
X92500Y12185D01*
X72402Y13988D02*
X83988D01*
X77185Y7500D02*
Y13803D01*
X89500Y19500D02*
X96500D01*
X83988Y13988D02*
X89500Y19500D01*
X96500D02*
X99000Y22000D01*
X136109Y126661D02*
X136336Y126272D01*
X126727Y121244D02*
X134029Y112250D01*
X22513Y105084D02*
X30971Y112250D01*
X129008Y105000D02*
X134500Y99508D01*
X129547Y71559D02*
X132449Y74461D01*
X49240Y83756D02*
X54500D01*
X48724Y83240D02*
X49240Y83756D01*
X39276Y75760D02*
X43760D01*
X44500Y76500D01*
X54500Y83756D02*
Y91000D01*
X48724Y79500D02*
X53244D01*
X54500Y78244D01*
X49815Y65500D02*
Y75500D01*
X45500Y100000D02*
X54500Y91000D01*
Y78244D02*
X55163D01*
X58272Y81353D01*
Y92228D01*
X48000Y102500D02*
X58272Y92228D01*
X39276Y65591D02*
Y75760D01*
X39185Y65500D02*
X39276Y65591D01*
X30971Y112250D02*
X33221Y110000D01*
X134500Y99508D02*
X139500Y94508D01*
X132449Y74461D02*
X137961D01*
X139500Y76000D01*
Y94508D01*
X134500Y69508D02*
X143500D01*
X44500Y76500D02*
Y82000D01*
X45740Y83240D01*
X48724D01*
X102000Y16329D02*
Y26000D01*
X99000Y22000D02*
Y27500D01*
X104000Y32500D01*
X102000Y26000D02*
X105500Y29500D01*
X106930D01*
X104000Y32500D02*
X105688D01*
X108321Y35133D01*
D39*
X33221Y110000D02*
X40531D01*
Y106500D02*
Y110000D01*
D40*
X119437Y70740D02*
D03*
Y63260D02*
D03*
X19076Y42928D02*
D03*
X16518Y47360D02*
D03*
X148483D02*
D03*
X145924Y42928D02*
D03*
X79941Y157213D02*
D03*
X85059D02*
D03*
D41*
X70067Y134248D02*
D03*
X90933D02*
D03*
D42*
X134500Y69508D02*
D03*
Y79508D02*
D03*
Y89508D02*
D03*
Y99508D02*
D03*
D43*
X57410Y145975D02*
D03*
X48750Y140975D02*
D03*
X40090Y135975D02*
D03*
X15000Y92500D02*
D03*
Y82500D02*
D03*
Y72500D02*
D03*
X40090Y29043D02*
D03*
X48750Y24043D02*
D03*
X57410Y19043D02*
D03*
X107590D02*
D03*
X116250Y24043D02*
D03*
X124910Y29043D02*
D03*
X150000Y72500D02*
D03*
Y82500D02*
D03*
Y92500D02*
D03*
X124910Y135957D02*
D03*
X116250Y140957D02*
D03*
X107590Y145957D02*
D03*
D44*
X82500Y23000D02*
D03*
X30972Y112250D02*
D03*
X134029D02*
D03*
D45*
X99000Y111000D02*
D03*
X96367Y110750D02*
D03*
X115500Y66500D02*
D03*
X96000Y106500D02*
D03*
X87000Y103500D02*
D03*
X87500Y107000D02*
D03*
X80677Y62258D02*
D03*
X71500Y48000D02*
D03*
X82500Y105500D02*
D03*
X74059Y116559D02*
D03*
X72000Y91500D02*
D03*
X74500D02*
D03*
X83500Y94500D02*
D03*
X84000Y76250D02*
D03*
X88321Y75000D02*
D03*
X97000Y115500D02*
D03*
X75500Y104000D02*
D03*
X127645Y110057D02*
D03*
X117100Y107400D02*
D03*
X119600Y101600D02*
D03*
X76000Y120500D02*
D03*
X73134Y124500D02*
D03*
X71700Y96300D02*
D03*
X77000Y150500D02*
D03*
X74000Y41000D02*
D03*
X115000Y60000D02*
D03*
X63000Y144000D02*
D03*
X68500Y116000D02*
D03*
X77555Y97439D02*
D03*
X126797Y65797D02*
D03*
X125500Y62000D02*
D03*
X123500Y59000D02*
D03*
X129832Y51848D02*
D03*
X132000Y42500D02*
D03*
X128000Y34500D02*
D03*
X130833Y34333D02*
D03*
X141500Y54500D02*
D03*
X106500Y138000D02*
D03*
X113500Y52500D02*
D03*
X106500Y60000D02*
D03*
X107000Y64500D02*
D03*
X110500Y56500D02*
D03*
X110411Y39411D02*
D03*
X118500Y47000D02*
D03*
X118150Y41551D02*
D03*
X115500Y45000D02*
D03*
X105500Y71000D02*
D03*
X108500Y69000D02*
D03*
X19000Y96500D02*
D03*
X56500Y152500D02*
D03*
X54500Y134500D02*
D03*
X146000Y91550D02*
D03*
X109500Y153500D02*
D03*
X7500Y69500D02*
D03*
X8000Y64500D02*
D03*
X56500Y8500D02*
D03*
X110000Y9000D02*
D03*
X132500Y22000D02*
D03*
X93500Y69500D02*
D03*
X96000Y68000D02*
D03*
X47000Y42500D02*
D03*
X27000Y48500D02*
D03*
X27500Y52500D02*
D03*
X35000Y51500D02*
D03*
X30500Y60500D02*
D03*
X23000Y59000D02*
D03*
X30500Y54921D02*
D03*
X77800Y144500D02*
D03*
X70134Y122500D02*
D03*
X67134Y124500D02*
D03*
X120000Y128000D02*
D03*
X43850Y117590D02*
D03*
X45500Y122500D02*
D03*
X98500Y7000D02*
D03*
X132000Y121500D02*
D03*
X135000Y136000D02*
D03*
X67561Y67561D02*
D03*
X68000Y80000D02*
D03*
X84000Y83000D02*
D03*
X69459Y74459D02*
D03*
X76000Y72500D02*
D03*
X86500Y69000D02*
D03*
X124500Y108000D02*
D03*
X53000Y54000D02*
D03*
X61000Y95500D02*
D03*
X28000Y137500D02*
D03*
X22000Y62500D02*
D03*
X26000Y56500D02*
D03*
X109000Y79000D02*
D03*
X110500Y82500D02*
D03*
X95900Y87400D02*
D03*
X68000Y57000D02*
D03*
Y60500D02*
D03*
X89500Y59500D02*
D03*
X47000Y48500D02*
D03*
X76500D02*
D03*
X20500Y60500D02*
D03*
X15200Y63500D02*
D03*
X85500Y38500D02*
D03*
X82500Y131450D02*
D03*
X37950Y113500D02*
D03*
X44209Y97200D02*
D03*
X69050Y86500D02*
D03*
X7500Y93743D02*
D03*
X32000Y34050D02*
D03*
X157500Y93743D02*
D03*
X118531Y121500D02*
D03*
X36000Y103791D02*
D03*
X42200Y92400D02*
D03*
Y103100D02*
D03*
X105744Y118328D02*
D03*
X59342Y48600D02*
D03*
X60392Y25222D02*
D03*
X45888Y68000D02*
D03*
X51810Y129600D02*
D03*
X78100Y34700D02*
D03*
X52810Y116400D02*
D03*
X99050Y60500D02*
D03*
X126700Y102600D02*
D03*
Y94200D02*
D03*
X151500Y87000D02*
D03*
X101291Y105400D02*
D03*
X106900Y114600D02*
D03*
X53500Y112790D02*
D03*
X63808Y104900D02*
D03*
X111500Y114000D02*
D03*
X140100Y98700D02*
D03*
X106400Y106900D02*
D03*
X111800Y105600D02*
D03*
X101200Y55900D02*
D03*
X67600Y95300D02*
D03*
X50400Y120400D02*
D03*
X72900Y45900D02*
D03*
X52600Y22800D02*
D03*
X36500Y26800D02*
D03*
Y34000D02*
D03*
X23200Y35700D02*
D03*
X12100Y60400D02*
D03*
X153700Y99000D02*
D03*
X128350Y100950D02*
D03*
X126700Y84900D02*
D03*
X51500Y106700D02*
D03*
X52100Y122000D02*
D03*
X88532Y29100D02*
D03*
X103350Y113400D02*
D03*
X86700Y96400D02*
D03*
X95800Y95200D02*
D03*
X94900Y28618D02*
D03*
X95700Y121400D02*
D03*
X102200Y127900D02*
D03*
X26000Y66100D02*
D03*
X40937Y36700D02*
D03*
X70000Y62200D02*
D03*
X43000Y147500D02*
D03*
X56850Y66350D02*
D03*
X57500Y71000D02*
D03*
X49000Y87000D02*
D03*
X121738Y91900D02*
D03*
X116700Y85871D02*
D03*
X119500Y107500D02*
D03*
X32500Y71500D02*
D03*
X22500Y74000D02*
D03*
X30500Y45500D02*
D03*
X119500Y90500D02*
D03*
X116000Y91000D02*
D03*
X111500Y101200D02*
D03*
X107500Y96000D02*
D03*
X106000Y88000D02*
D03*
X103500Y93500D02*
D03*
X83500Y68000D02*
D03*
X79500Y69000D02*
D03*
X122000Y33000D02*
D03*
X43500Y72000D02*
D03*
X64700Y34200D02*
D03*
X60001Y32932D02*
D03*
X57000Y30500D02*
D03*
X59000Y42000D02*
D03*
X32500Y81500D02*
D03*
X99000Y147500D02*
D03*
X66000Y28000D02*
D03*
X105227Y73500D02*
D03*
X106000Y77000D02*
D03*
X126700Y91900D02*
D03*
X88500Y48256D02*
D03*
X93500Y56000D02*
D03*
X130500Y76500D02*
D03*
X129000Y58500D02*
D03*
X92151Y37031D02*
D03*
X94500Y34500D02*
D03*
X82500Y58000D02*
D03*
X44500Y15000D02*
D03*
X156000Y101500D02*
D03*
X70500Y53000D02*
D03*
X74500Y68000D02*
D03*
X90000Y97000D02*
D03*
M02*
