G04 Layer_Color=32896*
%FSLAX25Y25*%
%MOIN*%
G70*
G01*
G75*
%ADD37C,0.00500*%
%ADD39C,0.00984*%
%ADD67C,0.00394*%
%ADD69C,0.00787*%
D37*
X148500Y124599D02*
Y121600D01*
X146501D01*
X143502Y124599D02*
X145501D01*
Y121600D01*
X143502D01*
X145501Y123100D02*
X144501D01*
X140503Y124099D02*
X141002Y124599D01*
X142002D01*
X142502Y124099D01*
Y122100D01*
X142002Y121600D01*
X141002D01*
X140503Y122100D01*
Y123100D01*
X141502D01*
X139503Y124099D02*
X139003Y124599D01*
X138003D01*
X137504Y124099D01*
Y123599D01*
X138003Y123100D01*
X138503D01*
X138003D01*
X137504Y122600D01*
Y122100D01*
X138003Y121600D01*
X139003D01*
X139503Y122100D01*
X45400Y124599D02*
Y121600D01*
X43401D01*
X40402Y124599D02*
X42401D01*
Y121600D01*
X40402D01*
X42401Y123100D02*
X41401D01*
X37403Y124099D02*
X37902Y124599D01*
X38902D01*
X39402Y124099D01*
Y122100D01*
X38902Y121600D01*
X37902D01*
X37403Y122100D01*
Y123100D01*
X38402D01*
X34404Y121600D02*
X36403D01*
X34404Y123599D01*
Y124099D01*
X34903Y124599D01*
X35903D01*
X36403Y124099D01*
X87500Y32999D02*
Y30000D01*
X85501D01*
X82502Y32999D02*
X84501D01*
Y30000D01*
X82502D01*
X84501Y31499D02*
X83501D01*
X79503Y32499D02*
X80002Y32999D01*
X81002D01*
X81502Y32499D01*
Y30500D01*
X81002Y30000D01*
X80002D01*
X79503Y30500D01*
Y31499D01*
X80502D01*
X78503Y30000D02*
X77503D01*
X78003D01*
Y32999D01*
X78503Y32499D01*
X129500Y40000D02*
Y41333D01*
X128833Y41999D01*
X128167Y41333D01*
Y40000D01*
Y41000D01*
X129500D01*
X127501Y40000D02*
X126834D01*
X127167D01*
Y41999D01*
X127501Y41666D01*
X38500Y40000D02*
Y41333D01*
X37834Y41999D01*
X37167Y41333D01*
Y40000D01*
Y41000D01*
X38500D01*
X35168Y40000D02*
X36501D01*
X35168Y41333D01*
Y41666D01*
X35501Y41999D01*
X36167D01*
X36501Y41666D01*
X105166Y74833D02*
X105499Y74500D01*
Y73833D01*
X105166Y73500D01*
X103833D01*
X103500Y73833D01*
Y74500D01*
X103833Y74833D01*
X103500Y75499D02*
Y76166D01*
Y75833D01*
X105499D01*
X105166Y75499D01*
X103500Y77166D02*
Y77832D01*
Y77499D01*
X105499D01*
X105166Y77166D01*
X74667Y58166D02*
X75000Y58499D01*
X75667D01*
X76000Y58166D01*
Y56833D01*
X75667Y56500D01*
X75000D01*
X74667Y56833D01*
X74001Y56500D02*
X73334D01*
X73667D01*
Y58499D01*
X74001Y58166D01*
X71002Y56500D02*
X72334D01*
X71002Y57833D01*
Y58166D01*
X71335Y58499D01*
X72001D01*
X72334Y58166D01*
X94667D02*
X95000Y58499D01*
X95667D01*
X96000Y58166D01*
Y56833D01*
X95667Y56500D01*
X95000D01*
X94667Y56833D01*
X94001Y56500D02*
X93334D01*
X93667D01*
Y58499D01*
X94001Y58166D01*
X92335D02*
X92001Y58499D01*
X91335D01*
X91002Y58166D01*
Y57833D01*
X91335Y57500D01*
X91668D01*
X91335D01*
X91002Y57166D01*
Y56833D01*
X91335Y56500D01*
X92001D01*
X92335Y56833D01*
X95167Y107666D02*
X95500Y107999D01*
X96167D01*
X96500Y107666D01*
Y106333D01*
X96167Y106000D01*
X95500D01*
X95167Y106333D01*
X94501Y106000D02*
X93834D01*
X94167D01*
Y107999D01*
X94501Y107666D01*
X91835Y106000D02*
Y107999D01*
X92835Y107000D01*
X91502D01*
X58166Y74333D02*
X58499Y74000D01*
Y73333D01*
X58166Y73000D01*
X56833D01*
X56500Y73333D01*
Y74000D01*
X56833Y74333D01*
X56500Y74999D02*
Y75666D01*
Y75333D01*
X58499D01*
X58166Y74999D01*
X58499Y77998D02*
Y76666D01*
X57500D01*
X57833Y77332D01*
Y77665D01*
X57500Y77998D01*
X56833D01*
X56500Y77665D01*
Y76999D01*
X56833Y76666D01*
X56834Y90667D02*
X56501Y91000D01*
Y91667D01*
X56834Y92000D01*
X58167D01*
X58500Y91667D01*
Y91000D01*
X58167Y90667D01*
X58500Y90001D02*
Y89334D01*
Y89667D01*
X56501D01*
X56834Y90001D01*
X56501Y87002D02*
X56834Y87668D01*
X57500Y88335D01*
X58167D01*
X58500Y88001D01*
Y87335D01*
X58167Y87002D01*
X57834D01*
X57500Y87335D01*
Y88335D01*
X117753Y131953D02*
X118206Y132080D01*
X118788Y131754D01*
X118915Y131301D01*
X118263Y130138D01*
X117809Y130011D01*
X117228Y130337D01*
X117101Y130790D01*
X115194Y131478D02*
X116356Y130826D01*
X115846Y132640D01*
X116009Y132931D01*
X116463Y133059D01*
X117044Y132733D01*
X117171Y132279D01*
X115428Y133257D02*
X115300Y133711D01*
X114719Y134037D01*
X114265Y133909D01*
X114102Y133619D01*
X114230Y133165D01*
X114520Y133002D01*
X114230Y133165D01*
X113776Y133037D01*
X113613Y132747D01*
X113741Y132293D01*
X114322Y131967D01*
X114776Y132095D01*
X143666Y76833D02*
X143999Y76500D01*
Y75833D01*
X143666Y75500D01*
X142333D01*
X142000Y75833D01*
Y76500D01*
X142333Y76833D01*
X142000Y78832D02*
Y77499D01*
X143333Y78832D01*
X143666D01*
X143999Y78499D01*
Y77833D01*
X143666Y77499D01*
X142000Y80498D02*
X143999D01*
X143000Y79499D01*
Y80832D01*
X57304Y138062D02*
X57433Y138515D01*
X58016Y138839D01*
X58469Y138709D01*
X59116Y137544D01*
X58987Y137091D01*
X58404Y136767D01*
X57951Y136897D01*
X56365Y135635D02*
X57530Y136282D01*
X55718Y136800D01*
X55556Y137091D01*
X55685Y137544D01*
X56268Y137868D01*
X56721Y137739D01*
X54973Y136767D02*
X54520Y136897D01*
X53938Y136573D01*
X53808Y136120D01*
X53970Y135829D01*
X54423Y135699D01*
X54294Y135246D01*
X54456Y134955D01*
X54909Y134826D01*
X55491Y135149D01*
X55621Y135602D01*
X55459Y135894D01*
X55006Y136023D01*
X55135Y136476D01*
X54973Y136767D01*
X55006Y136023D02*
X54423Y135699D01*
X110667Y126666D02*
X111000Y126999D01*
X111667D01*
X112000Y126666D01*
Y125333D01*
X111667Y125000D01*
X111000D01*
X110667Y125333D01*
X110001Y125000D02*
X109334D01*
X109667D01*
Y126999D01*
X110001Y126666D01*
X108335D02*
X108001Y126999D01*
X107335D01*
X107002Y126666D01*
Y126333D01*
X107335Y126000D01*
X107002Y125666D01*
Y125333D01*
X107335Y125000D01*
X108001D01*
X108335Y125333D01*
Y125666D01*
X108001Y126000D01*
X108335Y126333D01*
Y126666D01*
X108001Y126000D02*
X107335D01*
X48167Y103666D02*
X48500Y103999D01*
X49167D01*
X49500Y103666D01*
Y102333D01*
X49167Y102000D01*
X48500D01*
X48167Y102333D01*
X46168Y102000D02*
X47501D01*
X46168Y103333D01*
Y103666D01*
X46501Y103999D01*
X47167D01*
X47501Y103666D01*
X45501D02*
X45168Y103999D01*
X44502D01*
X44168Y103666D01*
Y102333D01*
X44502Y102000D01*
X45168D01*
X45501Y102333D01*
Y103666D01*
X49846Y122845D02*
X49516Y122509D01*
X48849Y122503D01*
X48513Y122834D01*
X48503Y124167D01*
X48833Y124503D01*
X49500Y124508D01*
X49836Y124178D01*
X51832Y124527D02*
X50499Y124516D01*
X51843Y123194D01*
X51846Y122861D01*
X51515Y122525D01*
X50849Y122520D01*
X50513Y122850D01*
X52499Y124532D02*
X53165Y124538D01*
X52832Y124535D01*
X52848Y122536D01*
X52512Y122866D01*
X85167Y131666D02*
X85500Y131999D01*
X86167D01*
X86500Y131666D01*
Y130333D01*
X86167Y130000D01*
X85500D01*
X85167Y130333D01*
X83168Y130000D02*
X84501D01*
X83168Y131333D01*
Y131666D01*
X83501Y131999D01*
X84167D01*
X84501Y131666D01*
X81168Y130000D02*
X82501D01*
X81168Y131333D01*
Y131666D01*
X81502Y131999D01*
X82168D01*
X82501Y131666D01*
X118000Y98000D02*
Y99999D01*
X117333Y99333D01*
X116667Y99999D01*
Y98000D01*
X116001D02*
X115334D01*
X115667D01*
Y99999D01*
X116001Y99666D01*
X48500Y56000D02*
Y57999D01*
X47834Y57333D01*
X47167Y57999D01*
Y56000D01*
X45168D02*
X46501D01*
X45168Y57333D01*
Y57666D01*
X45501Y57999D01*
X46167D01*
X46501Y57666D01*
X107500Y101500D02*
Y103499D01*
X106834Y102833D01*
X106167Y103499D01*
Y101500D01*
X104168Y103166D02*
X104501Y103499D01*
X105167D01*
X105501Y103166D01*
Y101833D01*
X105167Y101500D01*
X104501D01*
X104168Y101833D01*
X103501Y103499D02*
Y101833D01*
X103168Y101500D01*
X102502D01*
X102168Y101833D01*
Y103499D01*
X33000Y70500D02*
Y72499D01*
X32000D01*
X31667Y72166D01*
Y71500D01*
X32000Y71166D01*
X33000D01*
X31001Y70500D02*
Y72499D01*
X30001D01*
X29668Y72166D01*
Y71500D01*
X30001Y71166D01*
X31001D01*
X30334D02*
X29668Y70500D01*
X27668Y72166D02*
X28002Y72499D01*
X28668D01*
X29001Y72166D01*
Y70833D01*
X28668Y70500D01*
X28002D01*
X27668Y70833D01*
Y71500D01*
X28335D01*
X108000Y135500D02*
X108931Y137269D01*
X108047Y137735D01*
X107597Y137595D01*
X107286Y137005D01*
X107426Y136555D01*
X108310Y136090D01*
X107721Y136400D02*
X106820Y136121D01*
X107007Y137906D02*
X106867Y138356D01*
X106277Y138666D01*
X105827Y138526D01*
X105672Y138232D01*
X105812Y137781D01*
X106107Y137626D01*
X105812Y137781D01*
X105362Y137642D01*
X105206Y137347D01*
X105346Y136897D01*
X105936Y136586D01*
X106386Y136726D01*
X104462Y137362D02*
X103872Y137673D01*
X104167Y137518D01*
X105098Y139287D01*
X105237Y138837D01*
X142000Y84500D02*
X143999D01*
Y85500D01*
X143666Y85833D01*
X143000D01*
X142666Y85500D01*
Y84500D01*
Y85166D02*
X142000Y85833D01*
X143666Y86499D02*
X143999Y86833D01*
Y87499D01*
X143666Y87832D01*
X143333D01*
X143000Y87499D01*
Y87166D01*
Y87499D01*
X142666Y87832D01*
X142333D01*
X142000Y87499D01*
Y86833D01*
X142333Y86499D01*
X142000Y89832D02*
Y88499D01*
X143333Y89832D01*
X143666D01*
X143999Y89498D01*
Y88832D01*
X143666Y88499D01*
X51500Y132755D02*
X50529Y134502D01*
X49655Y134017D01*
X49526Y133564D01*
X49849Y132981D01*
X50302Y132852D01*
X51176Y133337D01*
X50594Y133013D02*
X50335Y132107D01*
X48943Y133240D02*
X48490Y133370D01*
X47907Y133046D01*
X47778Y132593D01*
X47940Y132301D01*
X48393Y132172D01*
X48684Y132334D01*
X48393Y132172D01*
X48263Y131719D01*
X48425Y131428D01*
X48878Y131298D01*
X49461Y131622D01*
X49590Y132075D01*
X45868Y131913D02*
X46613Y131945D01*
X47519Y131686D01*
X47843Y131104D01*
X47713Y130651D01*
X47131Y130327D01*
X46678Y130457D01*
X46516Y130748D01*
X46645Y131201D01*
X47519Y131686D01*
X134500Y136500D02*
X136499D01*
Y137500D01*
X136166Y137833D01*
X135500D01*
X135167Y137500D01*
Y136500D01*
Y137167D02*
X134500Y137833D01*
Y138499D02*
Y139166D01*
Y138833D01*
X136499D01*
X136166Y138499D01*
Y140165D02*
X136499Y140499D01*
Y141165D01*
X136166Y141498D01*
X135833D01*
X135500Y141165D01*
Y140832D01*
Y141165D01*
X135167Y141498D01*
X134833D01*
X134500Y141165D01*
Y140499D01*
X134833Y140165D01*
X156000Y62500D02*
Y64499D01*
X155000D01*
X154667Y64166D01*
Y63500D01*
X155000Y63166D01*
X156000D01*
X155333D02*
X154667Y62500D01*
X154001D02*
X153334D01*
X153667D01*
Y64499D01*
X154001Y64166D01*
X151335Y62500D02*
Y64499D01*
X152334Y63500D01*
X151002D01*
X104900Y14100D02*
Y16099D01*
X103900D01*
X103567Y15766D01*
Y15100D01*
X103900Y14766D01*
X104900D01*
X104234D02*
X103567Y14100D01*
X102901D02*
X102234D01*
X102567D01*
Y16099D01*
X102901Y15766D01*
X99902Y16099D02*
X101234D01*
Y15100D01*
X100568Y15433D01*
X100235D01*
X99902Y15100D01*
Y14433D01*
X100235Y14100D01*
X100901D01*
X101234Y14433D01*
X29900Y32300D02*
X27901D01*
Y31300D01*
X28234Y30967D01*
X28900D01*
X29234Y31300D01*
Y32300D01*
Y31634D02*
X29900Y30967D01*
Y30301D02*
Y29634D01*
Y29967D01*
X27901D01*
X28234Y30301D01*
X27901Y27302D02*
X28234Y27968D01*
X28900Y28635D01*
X29567D01*
X29900Y28301D01*
Y27635D01*
X29567Y27302D01*
X29234D01*
X28900Y27635D01*
Y28635D01*
X12700Y100200D02*
Y102199D01*
X11700D01*
X11367Y101866D01*
Y101200D01*
X11700Y100866D01*
X12700D01*
X12033D02*
X11367Y100200D01*
X10701D02*
X10034D01*
X10367D01*
Y102199D01*
X10701Y101866D01*
X9035Y102199D02*
X7702D01*
Y101866D01*
X9035Y100533D01*
Y100200D01*
X65000Y149500D02*
X66999D01*
Y150500D01*
X66666Y150833D01*
X66000D01*
X65666Y150500D01*
Y149500D01*
Y150166D02*
X65000Y150833D01*
Y151499D02*
Y152166D01*
Y151833D01*
X66999D01*
X66666Y151499D01*
Y153165D02*
X66999Y153499D01*
Y154165D01*
X66666Y154498D01*
X66333D01*
X66000Y154165D01*
X65666Y154498D01*
X65333D01*
X65000Y154165D01*
Y153499D01*
X65333Y153165D01*
X65666D01*
X66000Y153499D01*
X66333Y153165D01*
X66666D01*
X66000Y153499D02*
Y154165D01*
X39000Y106000D02*
X37001D01*
Y105000D01*
X37334Y104667D01*
X38000D01*
X38334Y105000D01*
Y106000D01*
Y105333D02*
X39000Y104667D01*
X37001Y102668D02*
Y104001D01*
X38000D01*
X37667Y103334D01*
Y103001D01*
X38000Y102668D01*
X38667D01*
X39000Y103001D01*
Y103667D01*
X38667Y104001D01*
X37001Y100668D02*
Y102001D01*
X38000D01*
X37667Y101335D01*
Y101002D01*
X38000Y100668D01*
X38667D01*
X39000Y101002D01*
Y101668D01*
X38667Y102001D01*
X92000Y40500D02*
Y42499D01*
X91000D01*
X90667Y42166D01*
Y41500D01*
X91000Y41166D01*
X92000D01*
X91334D02*
X90667Y40500D01*
X88668Y42499D02*
X90001D01*
Y41500D01*
X89334Y41833D01*
X89001D01*
X88668Y41500D01*
Y40833D01*
X89001Y40500D01*
X89667D01*
X90001Y40833D01*
X87002Y40500D02*
Y42499D01*
X88001Y41500D01*
X86668D01*
X85000Y40500D02*
Y42499D01*
X84000D01*
X83667Y42166D01*
Y41500D01*
X84000Y41166D01*
X85000D01*
X84334D02*
X83667Y40500D01*
X81668Y42499D02*
X83001D01*
Y41500D01*
X82334Y41833D01*
X82001D01*
X81668Y41500D01*
Y40833D01*
X82001Y40500D01*
X82667D01*
X83001Y40833D01*
X81001Y42166D02*
X80668Y42499D01*
X80002D01*
X79668Y42166D01*
Y41833D01*
X80002Y41500D01*
X80335D01*
X80002D01*
X79668Y41166D01*
Y40833D01*
X80002Y40500D01*
X80668D01*
X81001Y40833D01*
X49500Y95000D02*
Y96999D01*
X48500D01*
X48167Y96666D01*
Y96000D01*
X48500Y95666D01*
X49500D01*
X48834D02*
X48167Y95000D01*
X46168D02*
X47501D01*
X46168Y96333D01*
Y96666D01*
X46501Y96999D01*
X47167D01*
X47501Y96666D01*
X45501D02*
X45168Y96999D01*
X44502D01*
X44168Y96666D01*
Y96333D01*
X44502Y96000D01*
X44168Y95666D01*
Y95333D01*
X44502Y95000D01*
X45168D01*
X45501Y95333D01*
Y95666D01*
X45168Y96000D01*
X45501Y96333D01*
Y96666D01*
X45168Y96000D02*
X44502D01*
X49500Y98500D02*
Y100499D01*
X48500D01*
X48167Y100166D01*
Y99500D01*
X48500Y99166D01*
X49500D01*
X48834D02*
X48167Y98500D01*
X46501D02*
Y100499D01*
X47501Y99500D01*
X46168D01*
X45501Y98500D02*
X44835D01*
X45168D01*
Y100499D01*
X45501Y100166D01*
X48500Y121000D02*
X48516Y119001D01*
X49516Y119009D01*
X49846Y119345D01*
X49841Y120011D01*
X49505Y120342D01*
X48505Y120334D01*
X49172Y120339D02*
X49833Y121011D01*
X51832Y121027D02*
X50499Y121016D01*
X51843Y119694D01*
X51846Y119361D01*
X51515Y119025D01*
X50849Y119020D01*
X50513Y119350D01*
X52501Y120699D02*
X52832Y121035D01*
X53498Y121041D01*
X53834Y120710D01*
X53845Y119377D01*
X53514Y119041D01*
X52848Y119036D01*
X52512Y119367D01*
X52509Y119700D01*
X52840Y120036D01*
X53839Y120044D01*
X48500Y128000D02*
Y126001D01*
X49500D01*
X49833Y126334D01*
Y127000D01*
X49500Y127333D01*
X48500D01*
X49166D02*
X49833Y128000D01*
X51499D02*
Y126001D01*
X50499Y127000D01*
X51832D01*
X53832Y128000D02*
X52499D01*
X53832Y126667D01*
Y126334D01*
X53498Y126001D01*
X52832D01*
X52499Y126334D01*
X83900Y143600D02*
Y145599D01*
X82900D01*
X82567Y145266D01*
Y144600D01*
X82900Y144266D01*
X83900D01*
X83234D02*
X82567Y143600D01*
X81901Y145266D02*
X81567Y145599D01*
X80901D01*
X80568Y145266D01*
Y144933D01*
X80901Y144600D01*
X81234D01*
X80901D01*
X80568Y144266D01*
Y143933D01*
X80901Y143600D01*
X81567D01*
X81901Y143933D01*
X79901Y145266D02*
X79568Y145599D01*
X78902D01*
X78568Y145266D01*
Y143933D01*
X78902Y143600D01*
X79568D01*
X79901Y143933D01*
Y145266D01*
X79700Y130000D02*
Y131999D01*
X78700D01*
X78367Y131666D01*
Y131000D01*
X78700Y130666D01*
X79700D01*
X79034D02*
X78367Y130000D01*
X76701D02*
Y131999D01*
X77701Y131000D01*
X76368D01*
X75701Y131666D02*
X75368Y131999D01*
X74702D01*
X74368Y131666D01*
Y131333D01*
X74702Y131000D01*
X75035D01*
X74702D01*
X74368Y130666D01*
Y130333D01*
X74702Y130000D01*
X75368D01*
X75701Y130333D01*
X74500Y152500D02*
Y154499D01*
X73500D01*
X73167Y154166D01*
Y153500D01*
X73500Y153166D01*
X74500D01*
X73834D02*
X73167Y152500D01*
X72501D02*
X71834D01*
X72167D01*
Y154499D01*
X72501Y154166D01*
X124500Y74500D02*
X126499D01*
Y75500D01*
X126166Y75833D01*
X125500D01*
X125166Y75500D01*
Y74500D01*
Y75166D02*
X124500Y75833D01*
Y77499D02*
X126499D01*
X125500Y76499D01*
Y77832D01*
X126499Y78499D02*
Y79832D01*
X126166D01*
X124833Y78499D01*
X124500D01*
X128000Y70012D02*
Y72011D01*
X127000D01*
X126667Y71678D01*
Y71012D01*
X127000Y70678D01*
X128000D01*
X127333D02*
X126667Y70012D01*
X125001D02*
Y72011D01*
X126001Y71012D01*
X124668D01*
X124001Y71678D02*
X123668Y72011D01*
X123002D01*
X122668Y71678D01*
Y71345D01*
X123002Y71012D01*
X122668Y70678D01*
Y70345D01*
X123002Y70012D01*
X123668D01*
X124001Y70345D01*
Y70678D01*
X123668Y71012D01*
X124001Y71345D01*
Y71678D01*
X123668Y71012D02*
X123002D01*
X113000Y71000D02*
Y72999D01*
X112000D01*
X111667Y72666D01*
Y72000D01*
X112000Y71666D01*
X113000D01*
X112334D02*
X111667Y71000D01*
X110001D02*
Y72999D01*
X111001Y72000D01*
X109668D01*
X109001Y71333D02*
X108668Y71000D01*
X108002D01*
X107668Y71333D01*
Y72666D01*
X108002Y72999D01*
X108668D01*
X109001Y72666D01*
Y72333D01*
X108668Y72000D01*
X107668D01*
X107000Y74500D02*
X108999D01*
Y75500D01*
X108666Y75833D01*
X108000D01*
X107667Y75500D01*
Y74500D01*
Y75166D02*
X107000Y75833D01*
X108999Y77832D02*
Y76499D01*
X108000D01*
X108333Y77166D01*
Y77499D01*
X108000Y77832D01*
X107333D01*
X107000Y77499D01*
Y76833D01*
X107333Y76499D01*
X108666Y78499D02*
X108999Y78832D01*
Y79498D01*
X108666Y79832D01*
X107333D01*
X107000Y79498D01*
Y78832D01*
X107333Y78499D01*
X108666D01*
X42500Y82000D02*
X44499D01*
Y83000D01*
X44166Y83333D01*
X43500D01*
X43166Y83000D01*
Y82000D01*
Y82666D02*
X42500Y83333D01*
X44499Y85332D02*
Y83999D01*
X43500D01*
X43833Y84666D01*
Y84999D01*
X43500Y85332D01*
X42833D01*
X42500Y84999D01*
Y84333D01*
X42833Y83999D01*
X42500Y85999D02*
Y86665D01*
Y86332D01*
X44499D01*
X44166Y85999D01*
X46000Y82000D02*
X47999D01*
Y83000D01*
X47666Y83333D01*
X47000D01*
X46666Y83000D01*
Y82000D01*
Y82666D02*
X46000Y83333D01*
X47999Y85332D02*
Y83999D01*
X47000D01*
X47333Y84666D01*
Y84999D01*
X47000Y85332D01*
X46333D01*
X46000Y84999D01*
Y84333D01*
X46333Y83999D01*
X46000Y87332D02*
Y85999D01*
X47333Y87332D01*
X47666D01*
X47999Y86998D01*
Y86332D01*
X47666Y85999D01*
X130117Y138762D02*
X130227Y138303D01*
X129877Y137736D01*
X129419Y137627D01*
X129135Y137801D01*
X129026Y138260D01*
X129375Y138828D01*
X129266Y139286D01*
X128982Y139461D01*
X128524Y139351D01*
X128175Y138784D01*
X128284Y138325D01*
X129048Y140203D02*
X129397Y140770D01*
X129223Y140487D01*
X130925Y139439D01*
X130467Y139330D01*
X155833Y69834D02*
X155500Y69501D01*
X154833D01*
X154500Y69834D01*
Y70167D01*
X154833Y70500D01*
X155500D01*
X155833Y70834D01*
Y71167D01*
X155500Y71500D01*
X154833D01*
X154500Y71167D01*
X157832Y71500D02*
X156499D01*
X157832Y70167D01*
Y69834D01*
X157499Y69501D01*
X156833D01*
X156499Y69834D01*
X107780Y12992D02*
X107321Y13101D01*
X106972Y13668D01*
X107081Y14127D01*
X107365Y14301D01*
X107823Y14192D01*
X108173Y13625D01*
X108631Y13516D01*
X108915Y13690D01*
X109024Y14149D01*
X108675Y14716D01*
X108216Y14825D01*
X108129Y12424D02*
X108020Y11966D01*
X108369Y11398D01*
X108827Y11289D01*
X109111Y11463D01*
X109220Y11922D01*
X109046Y12206D01*
X109220Y11922D01*
X109679Y11813D01*
X109963Y11987D01*
X110072Y12446D01*
X109722Y13013D01*
X109264Y13123D01*
X34894Y26155D02*
X34767Y26609D01*
X35094Y27190D01*
X35548Y27317D01*
X35838Y27154D01*
X35965Y26700D01*
X35639Y26119D01*
X35766Y25665D01*
X36056Y25502D01*
X36510Y25629D01*
X36837Y26210D01*
X36710Y26663D01*
X35530Y23886D02*
X33787Y24866D01*
X35149Y25247D01*
X34495Y24086D01*
X10167Y95166D02*
X10500Y95499D01*
X11167D01*
X11500Y95166D01*
Y94833D01*
X11167Y94500D01*
X10500D01*
X10167Y94166D01*
Y93833D01*
X10500Y93500D01*
X11167D01*
X11500Y93833D01*
X8168Y95499D02*
X9501D01*
Y94500D01*
X8834Y94833D01*
X8501D01*
X8168Y94500D01*
Y93833D01*
X8501Y93500D01*
X9167D01*
X9501Y93833D01*
X57785Y151484D02*
X58240Y151360D01*
X58571Y150781D01*
X58447Y150327D01*
X58157Y150161D01*
X57703Y150285D01*
X57372Y150864D01*
X56917Y150988D01*
X56628Y150823D01*
X56504Y150368D01*
X56835Y149789D01*
X57289Y149665D01*
X57083Y153385D02*
X57124Y152641D01*
X56876Y151732D01*
X56297Y151401D01*
X55843Y151525D01*
X55512Y152104D01*
X55636Y152559D01*
X55925Y152724D01*
X56380Y152600D01*
X56876Y151732D01*
X126334Y94667D02*
X126001Y95000D01*
Y95667D01*
X126334Y96000D01*
X126667D01*
X127000Y95667D01*
Y95000D01*
X127333Y94667D01*
X127667D01*
X128000Y95000D01*
Y95667D01*
X127667Y96000D01*
X126001Y92668D02*
Y94001D01*
X128000D01*
Y92668D01*
X127000Y94001D02*
Y93334D01*
X128000Y92001D02*
X126001D01*
Y91002D01*
X126334Y90668D01*
X127000D01*
X127333Y91002D01*
Y92001D01*
Y91335D02*
X128000Y90668D01*
X126001Y90002D02*
X128000D01*
Y88669D01*
X106500Y33999D02*
X105167D01*
Y33666D01*
X106500Y32333D01*
Y32000D01*
X105167D01*
X104501D02*
X103834D01*
X104167D01*
Y33999D01*
X104501Y33666D01*
X61500Y33999D02*
X60167D01*
Y33666D01*
X61500Y32333D01*
Y32000D01*
X60167D01*
X58168D02*
X59501D01*
X58168Y33333D01*
Y33666D01*
X58501Y33999D01*
X59167D01*
X59501Y33666D01*
D39*
X65079Y103563D02*
G03*
X65079Y103563I-492J0D01*
G01*
X71811Y53169D02*
G03*
X71811Y53169I-492J0D01*
G01*
X94173Y36831D02*
G03*
X94173Y36831I-492J0D01*
G01*
X44972Y43701D02*
G03*
X44972Y43701I-492J0D01*
G01*
X121012Y56299D02*
G03*
X121012Y56299I-492J0D01*
G01*
D67*
X52374Y73480D02*
G03*
X52374Y73480I-197J0D01*
G01*
X124377Y81223D02*
G03*
X124377Y81223I-197J0D01*
G01*
X18887Y47567D02*
G03*
X15153Y45412I-2369J-207D01*
G01*
X144559Y44876D02*
G03*
X148293Y42720I1364J-1948D01*
G01*
X84054Y155057D02*
G03*
X84054Y159368I1005J2156D01*
G01*
X20727Y50699D02*
X19023Y49715D01*
X19918Y49475D01*
X19678Y48579D01*
X21383Y49563D01*
X20498Y47159D02*
X20170Y47727D01*
X20290Y48175D01*
X21427Y48831D01*
X21875Y48711D01*
X22203Y48143D01*
X22083Y47695D01*
X20946Y47039D01*
X20498Y47159D01*
X20990Y46307D02*
X21646Y45171D01*
X21318Y45739D01*
X23022Y46723D01*
X140927Y44903D02*
X142631Y43919D01*
X142391Y44815D01*
X143287Y45055D01*
X141583Y46039D01*
X144107Y46475D02*
X143779Y45907D01*
X143331Y45787D01*
X142195Y46443D01*
X142075Y46891D01*
X142403Y47459D01*
X142851Y47580D01*
X143987Y46924D01*
X144107Y46475D01*
X144599Y47328D02*
X145255Y48464D01*
X144927Y47896D01*
X143223Y48880D01*
X85847Y151898D02*
Y153866D01*
X85190Y153209D01*
X84535Y153866D01*
Y151898D01*
X82895Y153866D02*
X83551D01*
X83879Y153537D01*
Y152226D01*
X83551Y151898D01*
X82895D01*
X82567Y152226D01*
Y153537D01*
X82895Y153866D01*
X81911D02*
X80599D01*
X81255D01*
Y151898D01*
D69*
X63996Y101004D02*
X65669D01*
X63996Y99331D02*
Y101004D01*
X99331D02*
X101004D01*
Y99331D02*
Y101004D01*
X99331Y63996D02*
X101004D01*
Y65669D01*
X63996Y63996D02*
X65669D01*
X63996D02*
Y65669D01*
X51240Y53760D02*
X53996D01*
X51240Y51004D02*
Y53760D01*
Y36240D02*
X53996D01*
X51240D02*
Y38996D01*
X66004Y36240D02*
X68760D01*
Y38996D01*
X66004Y53760D02*
X68760D01*
Y51004D02*
Y53760D01*
X111004Y36240D02*
X113760D01*
Y38996D01*
X111004Y53760D02*
X113760D01*
Y51004D02*
Y53760D01*
X96240D02*
X98996D01*
X96240Y51004D02*
Y53760D01*
Y36240D02*
X98996D01*
X96240D02*
Y38996D01*
X95461Y134248D02*
X99398D01*
X97429Y132280D02*
Y136216D01*
X48831Y72594D02*
X51095D01*
Y72102D02*
Y72594D01*
Y59405D02*
Y59898D01*
X48831Y59405D02*
X51095D01*
X37905Y59405D02*
Y59898D01*
Y59405D02*
X40169D01*
X37905Y72102D02*
Y72594D01*
Y72594D02*
X40169D01*
X123294Y82306D02*
Y84569D01*
X122802Y82306D02*
X123294D01*
X110106D02*
X110598D01*
X110106D02*
Y84569D01*
X110106Y95495D02*
X110598D01*
X110106Y93231D02*
Y95495D01*
X122802D02*
X123294D01*
X123294Y93231D02*
Y95495D01*
X139421Y102421D02*
Y104390D01*
X137453D02*
X139421D01*
X129579D02*
X131547D01*
X129579Y102421D02*
Y104390D01*
Y64429D02*
Y66398D01*
Y64429D02*
X131547D01*
X137453Y64626D02*
X139421D01*
Y66594D01*
X43427Y144271D02*
X48541Y147224D01*
X9468Y79547D02*
Y85452D01*
X43427Y20729D02*
X48542Y17776D01*
X116459Y17776D02*
X121573Y20729D01*
X155532Y79548D02*
Y85453D01*
X116458Y147224D02*
X121573Y144271D01*
X25579Y83917D02*
Y94941D01*
X35421Y74075D02*
Y83917D01*
X25579Y74075D02*
X35421D01*
Y94941D02*
Y104783D01*
X25579D02*
X35421D01*
X59045Y142828D02*
X60030Y141123D01*
X59177Y140631D02*
X60030Y141123D01*
X42982Y131280D02*
X43834Y131772D01*
X41998Y132985D02*
X42982Y131280D01*
X18543Y92343D02*
X20512D01*
Y91358D02*
Y92343D01*
Y72658D02*
Y73642D01*
X18543Y72658D02*
X20512D01*
X41998Y32033D02*
X42982Y33738D01*
X43834Y33246D01*
X59177Y24387D02*
X60030Y23895D01*
X59045Y22191D02*
X60030Y23895D01*
X104970D02*
X105955Y22191D01*
X104970Y23895D02*
X105823Y24387D01*
X121166Y33246D02*
X122018Y33738D01*
X123002Y32033D01*
X144488Y72658D02*
X146457D01*
X144488D02*
Y73642D01*
Y91358D02*
Y92343D01*
X146457D01*
X122018Y131262D02*
X123002Y132967D01*
X121166Y131755D02*
X122018Y131262D01*
X104970Y141105D02*
X105823Y140613D01*
X104970Y141105D02*
X105955Y142810D01*
X42906Y52559D02*
Y54921D01*
X42512D02*
X42906D01*
Y45079D02*
Y47441D01*
X42512Y45079D02*
X42906D01*
X31095D02*
Y47441D01*
Y45079D02*
X31488D01*
X31095Y52559D02*
Y54921D01*
X31488D01*
X122095Y45079D02*
Y47441D01*
Y45079D02*
X122488D01*
X122095Y52559D02*
Y54921D01*
X122488D01*
X133905Y52559D02*
Y54921D01*
X133512D02*
X133905D01*
Y45079D02*
Y47441D01*
X133512Y45079D02*
X133905D01*
M02*
