G04 Layer_Color=16711935*
%FSLAX25Y25*%
%MOIN*%
G70*
G01*
G75*
%ADD72P,0.08635X4X165.0*%
%ADD73R,0.06106X0.06106*%
%ADD74P,0.08635X4X285.0*%
%ADD84R,0.02562X0.02169*%
%ADD85R,0.02169X0.02562*%
G04:AMPARAMS|DCode=88|XSize=21.69mil|YSize=25.62mil|CornerRadius=0mil|HoleSize=0mil|Usage=FLASHONLY|Rotation=60.000|XOffset=0mil|YOffset=0mil|HoleType=Round|Shape=Rectangle|*
%AMROTATEDRECTD88*
4,1,4,0.00567,-0.01580,-0.01652,-0.00298,-0.00567,0.01580,0.01652,0.00298,0.00567,-0.01580,0.0*
%
%ADD88ROTATEDRECTD88*%

G04:AMPARAMS|DCode=89|XSize=21.69mil|YSize=25.62mil|CornerRadius=0mil|HoleSize=0mil|Usage=FLASHONLY|Rotation=120.000|XOffset=0mil|YOffset=0mil|HoleType=Round|Shape=Rectangle|*
%AMROTATEDRECTD89*
4,1,4,0.01652,-0.00298,-0.00567,-0.01580,-0.01652,0.00298,0.00567,0.01580,0.01652,-0.00298,0.0*
%
%ADD89ROTATEDRECTD89*%

%ADD90R,0.03350X0.03743*%
%ADD96C,0.04137*%
%ADD97O,0.07090X0.12011*%
%ADD98C,0.06106*%
%ADD99C,0.05000*%
%ADD100C,0.10830*%
%ADD101O,0.02759X0.01184*%
%ADD102O,0.01184X0.02759*%
%ADD103O,0.03350X0.01184*%
%ADD104O,0.01184X0.03350*%
%ADD105R,0.03547X0.01381*%
%ADD106R,0.01381X0.03547*%
%ADD107R,0.07090X0.04137*%
%ADD108O,0.01381X0.03547*%
%ADD109O,0.03547X0.01381*%
%ADD110C,0.03350*%
D72*
X50966Y150897D02*
D03*
X39033Y144007D02*
D03*
X114034Y14103D02*
D03*
X125967Y20993D02*
D03*
D73*
X7500Y89389D02*
D03*
Y75610D02*
D03*
X157500Y75611D02*
D03*
Y89390D02*
D03*
D74*
X39033Y20993D02*
D03*
X50967Y14103D02*
D03*
X125967Y144008D02*
D03*
X114033Y150897D02*
D03*
D84*
X80468Y153000D02*
D03*
X76531D02*
D03*
X82468Y141500D02*
D03*
X78531D02*
D03*
X59969Y127000D02*
D03*
X56032D02*
D03*
X59969Y120000D02*
D03*
X56032D02*
D03*
X55968Y99500D02*
D03*
X52031D02*
D03*
X55968Y96000D02*
D03*
X52031D02*
D03*
X83969Y44500D02*
D03*
X80032D02*
D03*
X91469Y44500D02*
D03*
X87532D02*
D03*
X11969Y98000D02*
D03*
X8032D02*
D03*
X100531Y12000D02*
D03*
X104469D02*
D03*
X155468Y66500D02*
D03*
X151532D02*
D03*
X59969Y123500D02*
D03*
X56032D02*
D03*
X52031Y103000D02*
D03*
X55968D02*
D03*
X96469Y103500D02*
D03*
X92532D02*
D03*
X96469Y60500D02*
D03*
X92532D02*
D03*
X72531D02*
D03*
X76468D02*
D03*
D85*
X47000Y75532D02*
D03*
Y79469D02*
D03*
X43500D02*
D03*
Y75532D02*
D03*
X111500Y78969D02*
D03*
Y75032D02*
D03*
X115000D02*
D03*
Y78969D02*
D03*
X118500D02*
D03*
Y75032D02*
D03*
X122000D02*
D03*
Y78969D02*
D03*
X78500Y137969D02*
D03*
Y134031D02*
D03*
X38000Y97969D02*
D03*
Y94032D02*
D03*
X62500Y153969D02*
D03*
Y150031D02*
D03*
X32000Y27531D02*
D03*
Y31468D02*
D03*
X132500Y133531D02*
D03*
Y137469D02*
D03*
X146000Y88968D02*
D03*
Y85031D02*
D03*
X82500Y134031D02*
D03*
Y137969D02*
D03*
X146000Y76032D02*
D03*
Y79969D02*
D03*
X60500Y91969D02*
D03*
Y88032D02*
D03*
Y73032D02*
D03*
Y76968D02*
D03*
X104500Y84469D02*
D03*
Y80532D02*
D03*
D88*
X111705Y138516D02*
D03*
X108295Y140484D02*
D03*
X116295Y135984D02*
D03*
X119705Y134016D02*
D03*
D89*
X45295D02*
D03*
X48705Y135984D02*
D03*
X53295Y138516D02*
D03*
X56705Y140484D02*
D03*
D90*
X106744Y121500D02*
D03*
X112256D02*
D03*
D96*
X119437Y70740D02*
D03*
Y63260D02*
D03*
D97*
X70067Y134248D02*
D03*
X90933D02*
D03*
D98*
X134500Y69508D02*
D03*
Y79508D02*
D03*
Y89508D02*
D03*
Y99508D02*
D03*
D99*
X57410Y145975D02*
D03*
X48750Y140975D02*
D03*
X40090Y135975D02*
D03*
X15000Y92500D02*
D03*
Y82500D02*
D03*
Y72500D02*
D03*
X40090Y29043D02*
D03*
X48750Y24043D02*
D03*
X57410Y19043D02*
D03*
X107590D02*
D03*
X116250Y24043D02*
D03*
X124910Y29043D02*
D03*
X150000Y72500D02*
D03*
Y82500D02*
D03*
Y92500D02*
D03*
X124910Y135957D02*
D03*
X116250Y140957D02*
D03*
X107590Y145957D02*
D03*
D100*
X82500Y23000D02*
D03*
X30972Y112250D02*
D03*
X134029D02*
D03*
D101*
X64882Y97264D02*
D03*
Y95295D02*
D03*
Y93327D02*
D03*
Y91358D02*
D03*
Y89390D02*
D03*
Y87421D02*
D03*
Y85453D02*
D03*
Y83484D02*
D03*
Y81516D02*
D03*
Y79547D02*
D03*
Y77579D02*
D03*
Y75610D02*
D03*
Y73642D02*
D03*
Y71673D02*
D03*
Y69705D02*
D03*
Y67736D02*
D03*
X100118D02*
D03*
Y69705D02*
D03*
Y71673D02*
D03*
Y73642D02*
D03*
Y75610D02*
D03*
Y77579D02*
D03*
Y79547D02*
D03*
Y81516D02*
D03*
Y83484D02*
D03*
Y85453D02*
D03*
Y87421D02*
D03*
Y89390D02*
D03*
Y91358D02*
D03*
Y93327D02*
D03*
Y95295D02*
D03*
Y97264D02*
D03*
D102*
X67736Y64882D02*
D03*
X69705D02*
D03*
X71673D02*
D03*
X73642D02*
D03*
X75610D02*
D03*
X77579D02*
D03*
X79547D02*
D03*
X81516D02*
D03*
X83484D02*
D03*
X85453D02*
D03*
X87421D02*
D03*
X89390D02*
D03*
X91358D02*
D03*
X93327D02*
D03*
X95295D02*
D03*
X97264D02*
D03*
Y100118D02*
D03*
X95295D02*
D03*
X93327D02*
D03*
X91358D02*
D03*
X89390D02*
D03*
X87421D02*
D03*
X85453D02*
D03*
X83484D02*
D03*
X81516D02*
D03*
X79547D02*
D03*
X77579D02*
D03*
X75610D02*
D03*
X73642D02*
D03*
X71673D02*
D03*
X69705D02*
D03*
X67736D02*
D03*
D103*
X67874Y48937D02*
D03*
Y46968D02*
D03*
Y45000D02*
D03*
Y43031D02*
D03*
Y41063D02*
D03*
X52126D02*
D03*
Y43031D02*
D03*
Y45000D02*
D03*
Y46968D02*
D03*
Y48937D02*
D03*
X97126Y41063D02*
D03*
Y43031D02*
D03*
Y45000D02*
D03*
Y46968D02*
D03*
Y48937D02*
D03*
X112874D02*
D03*
Y46968D02*
D03*
Y45000D02*
D03*
Y43031D02*
D03*
Y41063D02*
D03*
D104*
X63937Y37126D02*
D03*
X61968D02*
D03*
X60000D02*
D03*
X58031D02*
D03*
X56063D02*
D03*
Y52874D02*
D03*
X58031D02*
D03*
X60000D02*
D03*
X61968D02*
D03*
X63937D02*
D03*
X101063Y52874D02*
D03*
X103032D02*
D03*
X105000D02*
D03*
X106968D02*
D03*
X108937D02*
D03*
Y37126D02*
D03*
X106968D02*
D03*
X105000D02*
D03*
X103032D02*
D03*
X101063D02*
D03*
D105*
X38398Y69937D02*
D03*
Y67968D02*
D03*
Y66000D02*
D03*
Y64031D02*
D03*
Y62063D02*
D03*
X50602D02*
D03*
Y64031D02*
D03*
Y66000D02*
D03*
Y67968D02*
D03*
Y69937D02*
D03*
D106*
X120637Y95002D02*
D03*
X118668D02*
D03*
X116700D02*
D03*
X114732D02*
D03*
X112763D02*
D03*
Y82798D02*
D03*
X114732D02*
D03*
X116700D02*
D03*
X118668D02*
D03*
X120637D02*
D03*
D107*
X24988Y99272D02*
D03*
X36012Y89429D02*
D03*
X24988Y79429D02*
D03*
D108*
X38969Y54921D02*
D03*
X35032D02*
D03*
X33063Y45079D02*
D03*
X35032D02*
D03*
X38969D02*
D03*
X40937D02*
D03*
X33063Y54921D02*
D03*
X40937D02*
D03*
X37000D02*
D03*
Y45079D02*
D03*
X126031D02*
D03*
X129969D02*
D03*
X131937Y54921D02*
D03*
X129969D02*
D03*
X126031D02*
D03*
X124063D02*
D03*
X131937Y45079D02*
D03*
X124063D02*
D03*
X128000D02*
D03*
Y54921D02*
D03*
D109*
X31095Y50984D02*
D03*
Y49016D02*
D03*
X42906D02*
D03*
Y50984D02*
D03*
X133905Y49016D02*
D03*
Y50984D02*
D03*
X122095D02*
D03*
Y49016D02*
D03*
D110*
X19076Y42928D02*
D03*
X16518Y47360D02*
D03*
X148483D02*
D03*
X145924Y42928D02*
D03*
X79941Y157213D02*
D03*
X85059D02*
D03*
M02*
