G04 Layer_Color=32768*
%FSLAX25Y25*%
%MOIN*%
G70*
G01*
G75*
%ADD67C,0.00394*%
%ADD111C,0.00197*%
D67*
X80532Y82500D02*
X84469D01*
X82500Y80532D02*
Y84469D01*
X58031Y45000D02*
X61968D01*
X60000Y43031D02*
Y46968D01*
X103032Y45000D02*
X106968D01*
X105000Y43031D02*
Y46968D01*
X44500Y64031D02*
Y67968D01*
X42531Y66000D02*
X46468D01*
X114732Y88900D02*
X118668D01*
X116700Y86932D02*
Y90869D01*
X101000Y44532D02*
Y48469D01*
X99032Y46500D02*
X102969D01*
X37000Y48031D02*
Y51968D01*
X35032Y50000D02*
X38969D01*
X128000Y48031D02*
Y51968D01*
X126031Y50000D02*
X129969D01*
X62532Y79000D02*
X66469D01*
X64500Y77031D02*
Y80968D01*
X98532Y79000D02*
X102469D01*
X100500Y77031D02*
Y80968D01*
X57032Y47000D02*
X60969D01*
X59000Y45031D02*
Y48968D01*
X73532Y56000D02*
X77469D01*
X75500Y54031D02*
Y57968D01*
X72350Y50488D02*
Y61512D01*
X78650Y50488D02*
Y61512D01*
X72350Y50488D02*
X78650D01*
X72350Y61512D02*
X78650D01*
X36626Y59988D02*
Y71012D01*
X52374Y59988D02*
Y71012D01*
X36626D02*
X52374D01*
X36626Y59988D02*
X52374D01*
X42531Y65500D02*
X46468D01*
X44500Y63532D02*
Y67469D01*
X124043Y116622D02*
Y119378D01*
X116957Y116622D02*
Y119378D01*
Y116622D02*
X124043D01*
X116957Y119378D02*
X124043D01*
X119319Y118000D02*
X121681D01*
X120500Y116819D02*
Y119181D01*
X117319Y112500D02*
X119681D01*
X118500Y111319D02*
Y113681D01*
X119878Y108957D02*
Y116043D01*
X117122Y108957D02*
Y116043D01*
X119878D01*
X117122Y108957D02*
X119878D01*
X121122Y116043D02*
X123878D01*
X121122Y108957D02*
X123878D01*
Y116043D01*
X121122Y108957D02*
Y116043D01*
X122500Y111319D02*
Y113681D01*
X121319Y112500D02*
X123681D01*
X45819Y77500D02*
X48181D01*
X47000Y76319D02*
Y78681D01*
X48378Y73957D02*
Y81043D01*
X45622Y73957D02*
Y81043D01*
Y73957D02*
X48378D01*
X45622Y81043D02*
X48378D01*
X42122D02*
X44878D01*
X42122Y73957D02*
X44878D01*
X42122D02*
Y81043D01*
X44878Y73957D02*
Y81043D01*
X43500Y76319D02*
Y78681D01*
X42319Y77500D02*
X44681D01*
X110319Y77000D02*
X112681D01*
X111500Y75819D02*
Y78181D01*
X110122Y73457D02*
Y80543D01*
X112878Y73457D02*
Y80543D01*
X110122D02*
X112878D01*
X110122Y73457D02*
X112878D01*
X113622D02*
X116378D01*
X113622Y80543D02*
X116378D01*
Y73457D02*
Y80543D01*
X113622Y73457D02*
Y80543D01*
X115000Y75819D02*
Y78181D01*
X113819Y77000D02*
X116181D01*
X117319D02*
X119681D01*
X118500Y75819D02*
Y78181D01*
X117122Y73457D02*
Y80543D01*
X119878Y73457D02*
Y80543D01*
X117122D02*
X119878D01*
X117122Y73457D02*
X119878D01*
X120622D02*
X123378D01*
X120622Y80543D02*
X123378D01*
Y73457D02*
Y80543D01*
X120622Y73457D02*
Y80543D01*
X122000Y75819D02*
Y78181D01*
X120819Y77000D02*
X123181D01*
X100500Y85319D02*
Y87681D01*
X99319Y86500D02*
X101681D01*
X96957Y87878D02*
X104043D01*
X96957Y85122D02*
X104043D01*
X96957D02*
Y87878D01*
X104043Y85122D02*
Y87878D01*
X96457Y70122D02*
Y72878D01*
X103543Y70122D02*
Y72878D01*
X96457D02*
X103543D01*
X96457Y70122D02*
X103543D01*
X98819Y71500D02*
X101181D01*
X100000Y70319D02*
Y72681D01*
X64500Y85319D02*
Y87681D01*
X63319Y86500D02*
X65681D01*
X60957Y87878D02*
X68043D01*
X60957Y85122D02*
X68043D01*
X60957D02*
Y87878D01*
X68043Y85122D02*
Y87878D01*
X22078Y43742D02*
X24465Y45120D01*
X18535Y49880D02*
X20922Y51258D01*
X18535Y49880D02*
X22078Y43742D01*
X20922Y51258D02*
X24465Y45120D01*
X20909Y48523D02*
X22091Y46477D01*
X20477Y46909D02*
X22523Y48091D01*
X142477Y48590D02*
X144523Y47409D01*
X142909Y46977D02*
X144091Y49023D01*
X140535Y45620D02*
X144078Y51758D01*
X142922Y44242D02*
X146465Y50380D01*
X140535Y45620D02*
X142922Y44242D01*
X144078Y51758D02*
X146465Y50380D01*
X82043Y151622D02*
Y154378D01*
X74957Y151622D02*
Y154378D01*
X82043D01*
X74957Y151622D02*
X82043D01*
X77319Y153000D02*
X79681D01*
X78500Y151819D02*
Y154181D01*
X77319Y136000D02*
X79681D01*
X78500Y134819D02*
Y137181D01*
X77122Y132457D02*
Y139543D01*
X79878Y132457D02*
Y139543D01*
X77122D02*
X79878D01*
X77122Y132457D02*
X79878D01*
X84043Y140122D02*
Y142878D01*
X76957Y140122D02*
Y142878D01*
X84043D01*
X76957Y140122D02*
X84043D01*
X79319Y141500D02*
X81681D01*
X80500Y140319D02*
Y142681D01*
X58000Y125819D02*
Y128181D01*
X56819Y127000D02*
X59181D01*
X54457Y128378D02*
X61543D01*
X54457Y125622D02*
X61543D01*
Y128378D01*
X54457Y125622D02*
Y128378D01*
X61543Y118622D02*
Y121378D01*
X54457Y118622D02*
Y121378D01*
X61543D01*
X54457Y118622D02*
X61543D01*
X56819Y120000D02*
X59181D01*
X58000Y118819D02*
Y121181D01*
X54000Y98319D02*
Y100681D01*
X52819Y99500D02*
X55181D01*
X50457Y100878D02*
X57543D01*
X50457Y98122D02*
X57543D01*
Y100878D01*
X50457Y98122D02*
Y100878D01*
X57543Y94622D02*
Y97378D01*
X50457Y94622D02*
Y97378D01*
X57543D01*
X50457Y94622D02*
X57543D01*
X52819Y96000D02*
X55181D01*
X54000Y94819D02*
Y97181D01*
X42500Y105319D02*
Y107681D01*
X41319Y106500D02*
X43681D01*
X38957Y105122D02*
X46043D01*
X38957Y107878D02*
X46043D01*
Y105122D02*
Y107878D01*
X38957Y105122D02*
Y107878D01*
X46043Y108622D02*
Y111378D01*
X38957Y108622D02*
Y111378D01*
Y108622D02*
X46043D01*
X38957Y111378D02*
X46043D01*
X41319Y110000D02*
X43681D01*
X42500Y108819D02*
Y111181D01*
Y112319D02*
Y114681D01*
X41319Y113500D02*
X43681D01*
X38957Y112122D02*
X46043D01*
X38957Y114878D02*
X46043D01*
Y112122D02*
Y114878D01*
X38957Y112122D02*
Y114878D01*
X70957Y30622D02*
Y33378D01*
X78043Y30622D02*
Y33378D01*
X70957D02*
X78043D01*
X70957Y30622D02*
X78043D01*
X73319Y32000D02*
X75681D01*
X74500Y30819D02*
Y33181D01*
X90500Y30819D02*
Y33181D01*
X89319Y32000D02*
X91681D01*
X86957Y30622D02*
X94043D01*
X86957Y33378D02*
X94043D01*
Y30622D02*
Y33378D01*
X86957Y30622D02*
Y33378D01*
X78957Y30622D02*
Y33378D01*
X86043Y30622D02*
Y33378D01*
X78957D02*
X86043D01*
X78957Y30622D02*
X86043D01*
X81319Y32000D02*
X83681D01*
X82500Y30819D02*
Y33181D01*
X82000Y43319D02*
Y45681D01*
X80819Y44500D02*
X83181D01*
X78457Y45878D02*
X85543D01*
X78457Y43122D02*
X85543D01*
Y45878D01*
X78457Y43122D02*
Y45878D01*
X93043Y43122D02*
Y45878D01*
X85957Y43122D02*
Y45878D01*
X93043D01*
X85957Y43122D02*
X93043D01*
X88319Y44500D02*
X90681D01*
X89500Y43319D02*
Y45681D01*
X36819Y96000D02*
X39181D01*
X38000Y94819D02*
Y97181D01*
X36622Y92457D02*
Y99543D01*
X39378Y92457D02*
Y99543D01*
X36622D02*
X39378D01*
X36622Y92457D02*
X39378D01*
X92819Y82500D02*
X95181D01*
X94000Y81319D02*
Y83681D01*
X95378Y78957D02*
Y86043D01*
X92622Y78957D02*
Y86043D01*
X95378D01*
X92622Y78957D02*
X95378D01*
X70122Y80457D02*
X72878D01*
X70122Y87543D02*
X72878D01*
X70122Y80457D02*
Y87543D01*
X72878Y80457D02*
Y87543D01*
X71500Y82819D02*
Y85181D01*
X70319Y84000D02*
X72681D01*
X61319Y152000D02*
X63681D01*
X62500Y150819D02*
Y153181D01*
X61122Y148457D02*
Y155543D01*
X63878Y148457D02*
Y155543D01*
X61122D02*
X63878D01*
X61122Y148457D02*
X63878D01*
X13543Y96622D02*
Y99378D01*
X6457Y96622D02*
Y99378D01*
X13543D01*
X6457Y96622D02*
X13543D01*
X8819Y98000D02*
X11181D01*
X10000Y96819D02*
Y99181D01*
X30819Y29500D02*
X33181D01*
X32000Y28319D02*
Y30681D01*
X33378Y25957D02*
Y33043D01*
X30622Y25957D02*
Y33043D01*
Y25957D02*
X33378D01*
X30622Y33043D02*
X33378D01*
X98957Y10622D02*
Y13378D01*
X106043Y10622D02*
Y13378D01*
X98957Y10622D02*
X106043D01*
X98957Y13378D02*
X106043D01*
X101319Y12000D02*
X103681D01*
X102500Y10819D02*
Y13181D01*
X153500Y65319D02*
Y67681D01*
X152319Y66500D02*
X154681D01*
X149957Y67878D02*
X157043D01*
X149957Y65122D02*
X157043D01*
Y67878D01*
X149957Y65122D02*
Y67878D01*
X131122Y131957D02*
X133878D01*
X131122Y139043D02*
X133878D01*
Y131957D02*
Y139043D01*
X131122Y131957D02*
Y139043D01*
X132500Y134319D02*
Y136681D01*
X131319Y135500D02*
X133681D01*
X46409Y136023D02*
X47591Y133977D01*
X45977Y134409D02*
X48023Y135591D01*
X44620Y132035D02*
X50758Y135578D01*
X43242Y134422D02*
X49380Y137965D01*
X43242Y134422D02*
X44620Y132035D01*
X49380Y137965D02*
X50758Y135578D01*
X18122Y81543D02*
X20878D01*
X18122Y74457D02*
X20878D01*
Y81543D01*
X18122Y74457D02*
Y81543D01*
X19500Y76819D02*
Y79181D01*
X18319Y78000D02*
X20681D01*
X55182Y26183D02*
X56363Y28229D01*
X54749Y27797D02*
X56795Y26615D01*
X52014Y27784D02*
X58152Y24241D01*
X53392Y30171D02*
X59530Y26628D01*
X58152Y24241D02*
X59530Y26628D01*
X52014Y27784D02*
X53392Y30171D01*
X113264Y31128D02*
X114642Y28741D01*
X119402Y34671D02*
X120780Y32284D01*
X113264Y31128D02*
X119402Y34671D01*
X114642Y28741D02*
X120780Y32284D01*
X115999Y31115D02*
X118045Y32296D01*
X116431Y32729D02*
X117613Y30683D01*
X144819Y87000D02*
X147181D01*
X146000Y85819D02*
Y88181D01*
X144622Y83457D02*
Y90543D01*
X147378Y83457D02*
Y90543D01*
X144622D02*
X147378D01*
X144622Y83457D02*
X147378D01*
X112380Y136535D02*
X113758Y138922D01*
X106242Y140078D02*
X107620Y142465D01*
X113758Y138922D01*
X106242Y140078D02*
X112380Y136535D01*
X108977Y140091D02*
X111023Y138909D01*
X109409Y138477D02*
X110591Y140523D01*
X32319Y66000D02*
X34681D01*
X33500Y64819D02*
Y67181D01*
X34878Y62457D02*
Y69543D01*
X32122Y62457D02*
Y69543D01*
X34878D01*
X32122Y62457D02*
X34878D01*
X28622Y69543D02*
X31378D01*
X28622Y62457D02*
X31378D01*
Y69543D01*
X28622Y62457D02*
Y69543D01*
X30000Y64819D02*
Y67181D01*
X28819Y66000D02*
X31181D01*
X81122Y132457D02*
X83878D01*
X81122Y139543D02*
X83878D01*
Y132457D02*
Y139543D01*
X81122Y132457D02*
Y139543D01*
X82500Y134819D02*
Y137181D01*
X81319Y136000D02*
X83681D01*
X58000Y122319D02*
Y124681D01*
X56819Y123500D02*
X59181D01*
X54457Y124878D02*
X61543D01*
X54457Y122122D02*
X61543D01*
Y124878D01*
X54457Y122122D02*
Y124878D01*
X50457Y101622D02*
Y104378D01*
X57543Y101622D02*
Y104378D01*
X50457Y101622D02*
X57543D01*
X50457Y104378D02*
X57543D01*
X52819Y103000D02*
X55181D01*
X54000Y101819D02*
Y104181D01*
X54409Y140523D02*
X55590Y138477D01*
X53977Y138909D02*
X56023Y140091D01*
X52620Y136535D02*
X58758Y140078D01*
X51242Y138922D02*
X57380Y142465D01*
X51242Y138922D02*
X52620Y136535D01*
X57380Y142465D02*
X58758Y140078D01*
X18122Y82957D02*
X20878D01*
X18122Y90043D02*
X20878D01*
X18122Y82957D02*
Y90043D01*
X20878Y82957D02*
Y90043D01*
X19500Y85319D02*
Y87681D01*
X18319Y86500D02*
X20681D01*
X47388Y30683D02*
X48570Y32729D01*
X46956Y32296D02*
X49002Y31115D01*
X45599Y34671D02*
X51737Y31128D01*
X44221Y32284D02*
X50359Y28741D01*
X44221Y32284D02*
X45599Y34671D01*
X50359Y28741D02*
X51737Y31128D01*
X111608Y30171D02*
X112986Y27784D01*
X105470Y26628D02*
X106848Y24241D01*
X112986Y27784D01*
X105470Y26628D02*
X111608Y30171D01*
X108205Y26615D02*
X110251Y27796D01*
X108637Y28229D02*
X109819Y26183D01*
X144819Y78000D02*
X147181D01*
X146000Y76819D02*
Y79181D01*
X147378Y74457D02*
Y81543D01*
X144622Y74457D02*
Y81543D01*
Y74457D02*
X147378D01*
X144622Y81543D02*
X147378D01*
X114242Y135578D02*
X115620Y137965D01*
X120380Y132035D02*
X121758Y134422D01*
X114242Y135578D02*
X120380Y132035D01*
X115620Y137965D02*
X121758Y134422D01*
X116977Y135591D02*
X119023Y134409D01*
X117409Y133977D02*
X118591Y136023D01*
X62000Y57319D02*
Y59681D01*
X60819Y58500D02*
X63181D01*
X58457Y57122D02*
X65543D01*
X58457Y59878D02*
X65543D01*
Y57122D02*
Y59878D01*
X58457Y57122D02*
Y59878D01*
X47043Y49622D02*
Y52378D01*
X39957Y49622D02*
Y52378D01*
Y49622D02*
X47043D01*
X39957Y52378D02*
X47043D01*
X42319Y51000D02*
X44681D01*
X43500Y49819D02*
Y52181D01*
X59319Y90000D02*
X61681D01*
X60500Y88819D02*
Y91181D01*
X59122Y86457D02*
Y93543D01*
X61878Y86457D02*
Y93543D01*
X59122D02*
X61878D01*
X59122Y86457D02*
X61878D01*
X59122Y71457D02*
X61878D01*
X59122Y78543D02*
X61878D01*
Y71457D02*
Y78543D01*
X59122Y71457D02*
Y78543D01*
X60500Y73819D02*
Y76181D01*
X59319Y75000D02*
X61681D01*
X94500Y102319D02*
Y104681D01*
X93319Y103500D02*
X95681D01*
X90957Y104878D02*
X98043D01*
X90957Y102122D02*
X98043D01*
Y104878D01*
X90957Y102122D02*
Y104878D01*
X98043Y59122D02*
Y61878D01*
X90957Y59122D02*
Y61878D01*
X98043D01*
X90957Y59122D02*
X98043D01*
X93319Y60500D02*
X95681D01*
X94500Y59319D02*
Y61681D01*
X74500Y59319D02*
Y61681D01*
X73319Y60500D02*
X75681D01*
X70957Y59122D02*
X78043D01*
X70957Y61878D02*
X78043D01*
X70957Y59122D02*
Y61878D01*
X78043Y59122D02*
Y61878D01*
X103122Y86043D02*
X105878D01*
X103122Y78957D02*
X105878D01*
X103122D02*
Y86043D01*
X105878Y78957D02*
Y86043D01*
X104500Y81319D02*
Y83681D01*
X103319Y82500D02*
X105681D01*
X92819Y74532D02*
X95181D01*
X94000Y73351D02*
Y75713D01*
X95378Y70988D02*
Y78075D01*
X92622Y70988D02*
Y78075D01*
X95378D01*
X92622Y70988D02*
X95378D01*
X123543Y52122D02*
Y54878D01*
X116457Y52122D02*
Y54878D01*
Y52122D02*
X123543D01*
X116457Y54878D02*
X123543D01*
X118819Y53500D02*
X121181D01*
X120000Y52319D02*
Y54681D01*
X101000Y36319D02*
Y38681D01*
X99819Y37500D02*
X102181D01*
X97457Y36122D02*
X104543D01*
X97457Y38878D02*
X104543D01*
Y36122D02*
Y38878D01*
X97457Y36122D02*
Y38878D01*
X108622Y40957D02*
X111378D01*
X108622Y48043D02*
X111378D01*
X108622Y40957D02*
Y48043D01*
X111378Y40957D02*
Y48043D01*
X110000Y43319D02*
Y45681D01*
X108819Y44500D02*
X111181D01*
X119481Y48831D02*
Y51194D01*
X118300Y50013D02*
X120662D01*
X115938Y51390D02*
X123024D01*
X115938Y48635D02*
X123024D01*
X115938D02*
Y51390D01*
X123024Y48635D02*
Y51390D01*
X119957Y43622D02*
Y46378D01*
X127043Y43622D02*
Y46378D01*
X119957D02*
X127043D01*
X119957Y43622D02*
X127043D01*
X122319Y45000D02*
X124681D01*
X123500Y43819D02*
Y46181D01*
Y41319D02*
Y43681D01*
X122319Y42500D02*
X124681D01*
X119957Y43878D02*
X127043D01*
X119957Y41122D02*
X127043D01*
X119957D02*
Y43878D01*
X127043Y41122D02*
Y43878D01*
X97457Y38622D02*
Y41378D01*
X104543Y38622D02*
Y41378D01*
X97457D02*
X104543D01*
X97457Y38622D02*
X104543D01*
X99819Y40000D02*
X102181D01*
X101000Y38819D02*
Y41181D01*
X111319Y44500D02*
X113681D01*
X112500Y43319D02*
Y45681D01*
X111122Y40957D02*
Y48043D01*
X113878Y40957D02*
Y48043D01*
X111122Y40957D02*
X113878D01*
X111122Y48043D02*
X113878D01*
X114543Y48052D02*
Y50808D01*
X107457Y48052D02*
Y50808D01*
Y48052D02*
X114543D01*
X107457Y50808D02*
X114543D01*
X109819Y49430D02*
X112181D01*
X111000Y48249D02*
Y50611D01*
X64319Y152000D02*
X66681D01*
X65500Y150819D02*
Y153181D01*
X64122Y148457D02*
Y155543D01*
X66878Y148457D02*
Y155543D01*
X64122Y148457D02*
X66878D01*
X64122Y155543D02*
X66878D01*
X67122D02*
X69878D01*
X67122Y148457D02*
X69878D01*
Y155543D01*
X67122Y148457D02*
Y155543D01*
X68500Y150819D02*
Y153181D01*
X67319Y152000D02*
X69681D01*
X67000Y145819D02*
Y148181D01*
X65819Y147000D02*
X68181D01*
X63457Y145622D02*
X70543D01*
X63457Y148378D02*
X70543D01*
Y145622D02*
Y148378D01*
X63457Y145622D02*
Y148378D01*
X133224Y46335D02*
Y50665D01*
X123776Y46335D02*
Y50665D01*
Y46335D02*
X133224D01*
X123776Y50665D02*
X133224D01*
X126630Y48500D02*
X130370D01*
X128500Y46630D02*
Y50370D01*
X20795Y120484D02*
X24205Y118516D01*
X21516Y117795D02*
X23484Y121205D01*
X15324Y114551D02*
X23198Y128189D01*
X21802Y110811D02*
X29676Y124449D01*
X15324Y114551D02*
X21802Y110811D01*
X23198Y128189D02*
X29676Y124449D01*
X82500Y5531D02*
Y9469D01*
X80532Y7500D02*
X84469D01*
X74626Y3760D02*
X90374D01*
X74626Y11240D02*
X90374D01*
Y3760D02*
Y11240D01*
X74626Y3760D02*
Y11240D01*
X140462Y115965D02*
X143872Y117933D01*
X141183Y118654D02*
X143151Y115244D01*
X134991Y121898D02*
X142865Y108260D01*
X141469Y125638D02*
X149343Y112000D01*
X142865Y108260D02*
X149343Y112000D01*
X134991Y121898D02*
X141469Y125638D01*
X37500Y40130D02*
Y43870D01*
X35630Y42000D02*
X39370D01*
X32776Y44165D02*
X42224D01*
X32776Y39835D02*
X42224D01*
X32776D02*
Y44165D01*
X42224Y39835D02*
Y44165D01*
X78130Y45500D02*
X81870D01*
X80000Y43630D02*
Y47370D01*
X77835Y40776D02*
Y50224D01*
X82165Y40776D02*
Y50224D01*
X77835Y40776D02*
X82165D01*
X77835Y50224D02*
X82165D01*
X104776Y119335D02*
Y123665D01*
X114224Y119335D02*
Y123665D01*
X104776Y119335D02*
X114224D01*
X104776Y123665D02*
X114224D01*
X107630Y121500D02*
X111370D01*
X109500Y119630D02*
Y123370D01*
X52630Y81000D02*
X56370D01*
X54500Y79130D02*
Y82870D01*
X56665Y76276D02*
Y85724D01*
X52335Y76276D02*
Y85724D01*
X56665D01*
X52335Y76276D02*
X56665D01*
X83335Y50224D02*
X87665D01*
X83335Y40776D02*
X87665D01*
Y50224D01*
X83335Y40776D02*
Y50224D01*
X85500Y43630D02*
Y47370D01*
X83630Y45500D02*
X87370D01*
X87000Y51630D02*
Y55370D01*
X85130Y53500D02*
X88870D01*
X82276Y55665D02*
X91724D01*
X82276Y51335D02*
X91724D01*
X82276D02*
Y55665D01*
X91724Y51335D02*
Y55665D01*
X44000Y77531D02*
Y81469D01*
X42032Y79500D02*
X45969D01*
X49224Y52835D02*
Y57165D01*
X39776Y52835D02*
Y57165D01*
Y52835D02*
X49224D01*
X39776Y57165D02*
X49224D01*
X42630Y55000D02*
X46370D01*
X44500Y53130D02*
Y56870D01*
D111*
X101791Y63209D02*
Y101791D01*
X63209Y63209D02*
Y101791D01*
Y63209D02*
X101791D01*
X63209Y101791D02*
X101791D01*
X70433Y34567D02*
Y55433D01*
X49567Y34567D02*
Y55433D01*
X70433D01*
X49567Y34567D02*
X70433D01*
X94567Y34567D02*
Y55433D01*
X115433Y34567D02*
Y55433D01*
X94567Y34567D02*
X115433D01*
X94567Y55433D02*
X115433D01*
X35642Y73087D02*
X53358D01*
Y58913D02*
Y73087D01*
X35642Y58913D02*
X53358D01*
X35642D02*
Y73087D01*
X123787Y80042D02*
Y97758D01*
X109613Y80042D02*
X123787D01*
X109613D02*
Y97758D01*
X123787D01*
X51056Y158222D02*
X56174Y149357D01*
X37762Y138727D02*
X56174Y149357D01*
X32644Y147592D02*
X37762Y138727D01*
X32644Y147592D02*
X51056Y158222D01*
X1201Y93130D02*
X11437D01*
Y71870D02*
Y93130D01*
X1201Y71870D02*
X11437D01*
X1201D02*
Y93130D01*
X32645Y17407D02*
X37763Y26272D01*
X56174Y15642D01*
X51056Y6778D02*
X56174Y15642D01*
X32645Y17407D02*
X51056Y6778D01*
X108826Y15643D02*
X113944Y6778D01*
X108826Y15643D02*
X127238Y26273D01*
X132356Y17408D01*
X113944Y6778D02*
X132356Y17408D01*
X153563Y71870D02*
X163799D01*
X153563D02*
Y93130D01*
X163799D01*
Y71870D02*
Y93130D01*
X127237Y138728D02*
X132355Y147593D01*
X108826Y149358D02*
X127237Y138728D01*
X108826Y149358D02*
X113944Y158223D01*
X132355Y147593D01*
X32645Y147593D02*
X37763Y138728D01*
X56174Y149358D01*
X51056Y158223D02*
X56174Y149358D01*
X32645Y147593D02*
X51056Y158223D01*
X1201Y71870D02*
X11437D01*
Y93130D01*
X1201D02*
X11437D01*
X1201Y71870D02*
Y93130D01*
X51056Y6778D02*
X56174Y15643D01*
X37762Y26273D02*
X56174Y15643D01*
X32644Y17408D02*
X37762Y26273D01*
X32644Y17408D02*
X51056Y6778D01*
X127237Y26272D02*
X132355Y17407D01*
X108826Y15642D02*
X127237Y26272D01*
X108826Y15642D02*
X113944Y6778D01*
X132355Y17407D01*
X153563Y93130D02*
X163799D01*
X153563Y71870D02*
Y93130D01*
Y71870D02*
X163799D01*
Y93130D01*
X108826Y149357D02*
X113944Y158222D01*
X108826Y149357D02*
X127238Y138727D01*
X132356Y147592D01*
X113944Y158222D02*
X132356Y147592D01*
X40307Y128827D02*
X63492Y142213D01*
X53256Y159942D02*
X63492Y142213D01*
X30071Y146556D02*
X53256Y159942D01*
X30071Y146556D02*
X40307Y128827D01*
X21299Y69114D02*
Y95886D01*
X827D02*
X21299D01*
X827Y69114D02*
Y95886D01*
Y69114D02*
X21299D01*
X40307Y36191D02*
X63492Y22806D01*
X30071Y18462D02*
X40307Y36191D01*
X30071Y18462D02*
X53256Y5076D01*
X63492Y22806D01*
X101508D02*
X124693Y36191D01*
X101508Y22806D02*
X111744Y5076D01*
X134929Y18462D01*
X124693Y36191D02*
X134929Y18462D01*
X143701Y69114D02*
Y95886D01*
Y69114D02*
X164173D01*
Y95886D01*
X143701D02*
X164173D01*
X101508Y142195D02*
X124693Y128809D01*
X134929Y146538D01*
X111744Y159924D02*
X134929Y146538D01*
X101508Y142195D02*
X111744Y159924D01*
X93717Y52012D02*
X108283D01*
X93717Y40988D02*
X108283D01*
X93717D02*
Y52012D01*
X108283Y40988D02*
Y52012D01*
X28535Y42520D02*
X45465D01*
X28535Y57480D02*
X45465D01*
X28535Y42520D02*
Y57480D01*
X45465Y42520D02*
Y57480D01*
X119535D02*
X136465D01*
X119535Y42520D02*
X136465D01*
Y57480D01*
X119535Y42520D02*
Y57480D01*
X69224Y73685D02*
Y84315D01*
X59972Y73685D02*
X69224D01*
X59972D02*
Y84315D01*
X69224D01*
X105224Y73685D02*
Y84315D01*
X95972Y73685D02*
X105224D01*
X95972D02*
Y84315D01*
X105224D01*
X73445Y89193D02*
X91555D01*
Y75807D02*
Y89193D01*
X73445Y75807D02*
X91555D01*
X73445D02*
Y89193D01*
X51126Y39913D02*
Y54087D01*
X66874Y39913D02*
Y54087D01*
X51126D02*
X66874D01*
X51126Y39913D02*
X66874D01*
X36126Y86587D02*
X51874D01*
X36126Y72413D02*
X51874D01*
X36126D02*
Y86587D01*
X51874Y72413D02*
Y86587D01*
M02*
