G04 Layer_Color=128*
%FSLAX25Y25*%
%MOIN*%
G70*
G01*
G75*
%ADD12P,0.08352X4X165.0*%
%ADD13R,0.05906X0.05906*%
%ADD14P,0.08352X4X285.0*%
%ADD25R,0.02362X0.01969*%
%ADD26R,0.01969X0.02362*%
G04:AMPARAMS|DCode=29|XSize=19.69mil|YSize=23.62mil|CornerRadius=0mil|HoleSize=0mil|Usage=FLASHONLY|Rotation=60.000|XOffset=0mil|YOffset=0mil|HoleType=Round|Shape=Rectangle|*
%AMROTATEDRECTD29*
4,1,4,0.00531,-0.01443,-0.01515,-0.00262,-0.00531,0.01443,0.01515,0.00262,0.00531,-0.01443,0.0*
%
%ADD29ROTATEDRECTD29*%

G04:AMPARAMS|DCode=30|XSize=19.69mil|YSize=23.62mil|CornerRadius=0mil|HoleSize=0mil|Usage=FLASHONLY|Rotation=120.000|XOffset=0mil|YOffset=0mil|HoleType=Round|Shape=Rectangle|*
%AMROTATEDRECTD30*
4,1,4,0.01515,-0.00262,-0.00531,-0.01443,-0.01515,0.00262,0.00531,0.01443,0.01515,-0.00262,0.0*
%
%ADD30ROTATEDRECTD30*%

%ADD31R,0.03150X0.03543*%
%ADD56O,0.02559X0.00984*%
%ADD57O,0.00984X0.02559*%
%ADD58O,0.03150X0.00984*%
%ADD59O,0.00984X0.03150*%
%ADD60R,0.03347X0.01181*%
%ADD61R,0.01181X0.03347*%
%ADD62R,0.06890X0.03937*%
%ADD63O,0.01181X0.03347*%
%ADD64O,0.03347X0.01181*%
D12*
X50966Y150897D02*
D03*
X39033Y144007D02*
D03*
X114034Y14103D02*
D03*
X125967Y20993D02*
D03*
D13*
X7500Y89389D02*
D03*
Y75610D02*
D03*
X157500Y75611D02*
D03*
Y89390D02*
D03*
D14*
X39033Y20993D02*
D03*
X50967Y14103D02*
D03*
X125967Y144008D02*
D03*
X114033Y150897D02*
D03*
D25*
X80468Y153000D02*
D03*
X76531D02*
D03*
X82468Y141500D02*
D03*
X78531D02*
D03*
X59969Y127000D02*
D03*
X56032D02*
D03*
X59969Y120000D02*
D03*
X56032D02*
D03*
X55968Y99500D02*
D03*
X52031D02*
D03*
X55968Y96000D02*
D03*
X52031D02*
D03*
X83969Y44500D02*
D03*
X80032D02*
D03*
X91469Y44500D02*
D03*
X87532D02*
D03*
X11969Y98000D02*
D03*
X8032D02*
D03*
X100531Y12000D02*
D03*
X104469D02*
D03*
X155468Y66500D02*
D03*
X151532D02*
D03*
X59969Y123500D02*
D03*
X56032D02*
D03*
X52031Y103000D02*
D03*
X55968D02*
D03*
X96469Y103500D02*
D03*
X92532D02*
D03*
X96469Y60500D02*
D03*
X92532D02*
D03*
X72531D02*
D03*
X76468D02*
D03*
D26*
X47000Y75532D02*
D03*
Y79469D02*
D03*
X43500D02*
D03*
Y75532D02*
D03*
X111500Y78969D02*
D03*
Y75032D02*
D03*
X115000D02*
D03*
Y78969D02*
D03*
X118500D02*
D03*
Y75032D02*
D03*
X122000D02*
D03*
Y78969D02*
D03*
X78500Y137969D02*
D03*
Y134031D02*
D03*
X38000Y97969D02*
D03*
Y94032D02*
D03*
X62500Y153969D02*
D03*
Y150031D02*
D03*
X32000Y27531D02*
D03*
Y31468D02*
D03*
X132500Y133531D02*
D03*
Y137469D02*
D03*
X146000Y88968D02*
D03*
Y85031D02*
D03*
X82500Y134031D02*
D03*
Y137969D02*
D03*
X146000Y76032D02*
D03*
Y79969D02*
D03*
X60500Y91969D02*
D03*
Y88032D02*
D03*
Y73032D02*
D03*
Y76968D02*
D03*
X104500Y84469D02*
D03*
Y80532D02*
D03*
D29*
X111705Y138516D02*
D03*
X108295Y140484D02*
D03*
X116295Y135984D02*
D03*
X119705Y134016D02*
D03*
D30*
X45295D02*
D03*
X48705Y135984D02*
D03*
X53295Y138516D02*
D03*
X56705Y140484D02*
D03*
D31*
X106744Y121500D02*
D03*
X112256D02*
D03*
D56*
X64882Y97264D02*
D03*
Y95295D02*
D03*
Y93327D02*
D03*
Y91358D02*
D03*
Y89390D02*
D03*
Y87421D02*
D03*
Y85453D02*
D03*
Y83484D02*
D03*
Y81516D02*
D03*
Y79547D02*
D03*
Y77579D02*
D03*
Y75610D02*
D03*
Y73642D02*
D03*
Y71673D02*
D03*
Y69705D02*
D03*
Y67736D02*
D03*
X100118D02*
D03*
Y69705D02*
D03*
Y71673D02*
D03*
Y73642D02*
D03*
Y75610D02*
D03*
Y77579D02*
D03*
Y79547D02*
D03*
Y81516D02*
D03*
Y83484D02*
D03*
Y85453D02*
D03*
Y87421D02*
D03*
Y89390D02*
D03*
Y91358D02*
D03*
Y93327D02*
D03*
Y95295D02*
D03*
Y97264D02*
D03*
D57*
X67736Y64882D02*
D03*
X69705D02*
D03*
X71673D02*
D03*
X73642D02*
D03*
X75610D02*
D03*
X77579D02*
D03*
X79547D02*
D03*
X81516D02*
D03*
X83484D02*
D03*
X85453D02*
D03*
X87421D02*
D03*
X89390D02*
D03*
X91358D02*
D03*
X93327D02*
D03*
X95295D02*
D03*
X97264D02*
D03*
Y100118D02*
D03*
X95295D02*
D03*
X93327D02*
D03*
X91358D02*
D03*
X89390D02*
D03*
X87421D02*
D03*
X85453D02*
D03*
X83484D02*
D03*
X81516D02*
D03*
X79547D02*
D03*
X77579D02*
D03*
X75610D02*
D03*
X73642D02*
D03*
X71673D02*
D03*
X69705D02*
D03*
X67736D02*
D03*
D58*
X67874Y48937D02*
D03*
Y46968D02*
D03*
Y45000D02*
D03*
Y43031D02*
D03*
Y41063D02*
D03*
X52126D02*
D03*
Y43031D02*
D03*
Y45000D02*
D03*
Y46968D02*
D03*
Y48937D02*
D03*
X97126Y41063D02*
D03*
Y43031D02*
D03*
Y45000D02*
D03*
Y46968D02*
D03*
Y48937D02*
D03*
X112874D02*
D03*
Y46968D02*
D03*
Y45000D02*
D03*
Y43031D02*
D03*
Y41063D02*
D03*
D59*
X63937Y37126D02*
D03*
X61968D02*
D03*
X60000D02*
D03*
X58031D02*
D03*
X56063D02*
D03*
Y52874D02*
D03*
X58031D02*
D03*
X60000D02*
D03*
X61968D02*
D03*
X63937D02*
D03*
X101063Y52874D02*
D03*
X103032D02*
D03*
X105000D02*
D03*
X106968D02*
D03*
X108937D02*
D03*
Y37126D02*
D03*
X106968D02*
D03*
X105000D02*
D03*
X103032D02*
D03*
X101063D02*
D03*
D60*
X38398Y69937D02*
D03*
Y67968D02*
D03*
Y66000D02*
D03*
Y64031D02*
D03*
Y62063D02*
D03*
X50602D02*
D03*
Y64031D02*
D03*
Y66000D02*
D03*
Y67968D02*
D03*
Y69937D02*
D03*
D61*
X120637Y95002D02*
D03*
X118668D02*
D03*
X116700D02*
D03*
X114732D02*
D03*
X112763D02*
D03*
Y82798D02*
D03*
X114732D02*
D03*
X116700D02*
D03*
X118668D02*
D03*
X120637D02*
D03*
D62*
X24988Y99272D02*
D03*
X36012Y89429D02*
D03*
X24988Y79429D02*
D03*
D63*
X38969Y54921D02*
D03*
X35032D02*
D03*
X33063Y45079D02*
D03*
X35032D02*
D03*
X38969D02*
D03*
X40937D02*
D03*
X33063Y54921D02*
D03*
X40937D02*
D03*
X37000D02*
D03*
Y45079D02*
D03*
X126031D02*
D03*
X129969D02*
D03*
X131937Y54921D02*
D03*
X129969D02*
D03*
X126031D02*
D03*
X124063D02*
D03*
X131937Y45079D02*
D03*
X124063D02*
D03*
X128000D02*
D03*
Y54921D02*
D03*
D64*
X31095Y50984D02*
D03*
Y49016D02*
D03*
X42906D02*
D03*
Y50984D02*
D03*
X133905Y49016D02*
D03*
Y50984D02*
D03*
X122095D02*
D03*
Y49016D02*
D03*
M02*
