G04 Layer_Physical_Order=3*
G04 Layer_Color=32768*
%FSLAX25Y25*%
%MOIN*%
G70*
G01*
G75*
%ADD43C,0.04800*%
%ADD46C,0.04000*%
%ADD48C,0.06362*%
%ADD49C,0.08921*%
%ADD50C,0.07543*%
%ADD51C,0.07200*%
%ADD52C,0.10693*%
G04:AMPARAMS|DCode=53|XSize=68mil|YSize=68mil|CornerRadius=0mil|HoleSize=0mil|Usage=FLASHONLY|Rotation=0.000|XOffset=0mil|YOffset=0mil|HoleType=Round|Shape=Relief|Width=10mil|Gap=10mil|Entries=4|*
%AMTHD53*
7,0,0,0.06800,0.04800,0.01000,45*
%
%ADD53THD53*%
G04:AMPARAMS|DCode=54|XSize=83.622mil|YSize=83.622mil|CornerRadius=0mil|HoleSize=0mil|Usage=FLASHONLY|Rotation=0.000|XOffset=0mil|YOffset=0mil|HoleType=Round|Shape=Relief|Width=10mil|Gap=10mil|Entries=4|*
%AMTHD54*
7,0,0,0.08362,0.06362,0.01000,45*
%
%ADD54THD54*%
G04:AMPARAMS|DCode=55|XSize=92mil|YSize=92mil|CornerRadius=0mil|HoleSize=0mil|Usage=FLASHONLY|Rotation=0.000|XOffset=0mil|YOffset=0mil|HoleType=Round|Shape=Relief|Width=10mil|Gap=10mil|Entries=4|*
%AMTHD55*
7,0,0,0.09200,0.07200,0.01000,45*
%
%ADD55THD55*%
D43*
X99000Y111000D02*
D03*
X96367Y110750D02*
D03*
X115500Y66500D02*
D03*
X87000Y103500D02*
D03*
X87500Y107000D02*
D03*
X74059Y116559D02*
D03*
X72000Y91500D02*
D03*
X74500D02*
D03*
X83500Y94500D02*
D03*
X84000Y76250D02*
D03*
X88321Y75000D02*
D03*
X97000Y115500D02*
D03*
X75500Y104000D02*
D03*
X127645Y110057D02*
D03*
X117100Y107400D02*
D03*
X119600Y101600D02*
D03*
X76000Y120500D02*
D03*
X71700Y96300D02*
D03*
X77000Y150500D02*
D03*
X115000Y60000D02*
D03*
X63000Y144000D02*
D03*
X68500Y116000D02*
D03*
X77555Y97439D02*
D03*
X126797Y65797D02*
D03*
X125500Y62000D02*
D03*
X123500Y59000D02*
D03*
X129832Y51848D02*
D03*
X132000Y42500D02*
D03*
X128000Y34500D02*
D03*
X130833Y34333D02*
D03*
X106500Y138000D02*
D03*
X113500Y52500D02*
D03*
X106500Y60000D02*
D03*
X107000Y64500D02*
D03*
X110500Y56500D02*
D03*
X110411Y39411D02*
D03*
X118500Y47000D02*
D03*
X115500Y45000D02*
D03*
X105500Y71000D02*
D03*
X108500Y69000D02*
D03*
X19000Y96500D02*
D03*
X54500Y134500D02*
D03*
X146000Y91550D02*
D03*
X109500Y153500D02*
D03*
X7500Y69500D02*
D03*
X8000Y64500D02*
D03*
X56500Y8500D02*
D03*
X110000Y9000D02*
D03*
X132500Y22000D02*
D03*
X96000Y68000D02*
D03*
X27500Y52500D02*
D03*
X35000Y51500D02*
D03*
X30500Y60500D02*
D03*
X23000Y59000D02*
D03*
X30500Y54921D02*
D03*
X77800Y144500D02*
D03*
X120000Y128000D02*
D03*
X43850Y117590D02*
D03*
X45500Y122500D02*
D03*
X135000Y136000D02*
D03*
X67561Y67561D02*
D03*
X68000Y80000D02*
D03*
X84000Y83000D02*
D03*
X69459Y74459D02*
D03*
X76000Y72500D02*
D03*
X86500Y69000D02*
D03*
X53000Y54000D02*
D03*
X61000Y95500D02*
D03*
X28000Y137500D02*
D03*
X22000Y62500D02*
D03*
X26000Y56500D02*
D03*
X109000Y79000D02*
D03*
X110500Y82500D02*
D03*
X95900Y87400D02*
D03*
X68000Y57000D02*
D03*
Y60500D02*
D03*
X89500Y59500D02*
D03*
X47000Y48500D02*
D03*
X76500D02*
D03*
X20500Y60500D02*
D03*
X15200Y63500D02*
D03*
X85500Y38500D02*
D03*
X157500Y93743D02*
D03*
X118531Y121500D02*
D03*
X36000Y103791D02*
D03*
X42200Y92400D02*
D03*
Y103100D02*
D03*
X59342Y48600D02*
D03*
X60392Y25222D02*
D03*
X78100Y34700D02*
D03*
X126700Y102600D02*
D03*
Y94200D02*
D03*
X151500Y87000D02*
D03*
X101291Y105400D02*
D03*
X106900Y114600D02*
D03*
X53500Y112790D02*
D03*
X63808Y104900D02*
D03*
X111500Y114000D02*
D03*
X140100Y98700D02*
D03*
X106400Y106900D02*
D03*
X111800Y105600D02*
D03*
X101200Y55900D02*
D03*
X67600Y95300D02*
D03*
X50400Y120400D02*
D03*
X72900Y45900D02*
D03*
X52600Y22800D02*
D03*
X36500Y26800D02*
D03*
Y34000D02*
D03*
X23200Y35700D02*
D03*
X12100Y60400D02*
D03*
X153700Y99000D02*
D03*
X128350Y100950D02*
D03*
X126700Y84900D02*
D03*
X51500Y106700D02*
D03*
X52100Y122000D02*
D03*
X88532Y29100D02*
D03*
X103350Y113400D02*
D03*
X86700Y96400D02*
D03*
X95800Y95200D02*
D03*
X94900Y28618D02*
D03*
X95700Y121400D02*
D03*
X102200Y127900D02*
D03*
X26000Y66100D02*
D03*
X40937Y36700D02*
D03*
X70000Y62200D02*
D03*
X43000Y147500D02*
D03*
X56850Y66350D02*
D03*
X121738Y91900D02*
D03*
X119500Y107500D02*
D03*
X32500Y71500D02*
D03*
X22500Y74000D02*
D03*
X30500Y45500D02*
D03*
X119500Y90500D02*
D03*
X116000Y91000D02*
D03*
X111500Y101200D02*
D03*
X107500Y96000D02*
D03*
X103500Y93500D02*
D03*
X83500Y68000D02*
D03*
X79500Y69000D02*
D03*
X122000Y33000D02*
D03*
X43500Y72000D02*
D03*
X64700Y34200D02*
D03*
X60001Y32932D02*
D03*
X57000Y30500D02*
D03*
X59000Y42000D02*
D03*
X105227Y73500D02*
D03*
X106000Y77000D02*
D03*
X126700Y91900D02*
D03*
X93500Y56000D02*
D03*
X130500Y76500D02*
D03*
X129000Y58500D02*
D03*
X94500Y34500D02*
D03*
X82500Y58000D02*
D03*
X70500Y53000D02*
D03*
X74500Y68000D02*
D03*
X90000Y97000D02*
D03*
D46*
X82500Y0D02*
G03*
X165000Y82500I0J82500D01*
G01*
D02*
G03*
X82500Y165000I-82500J0D01*
G01*
D02*
G03*
X0Y82500I0J-82500D01*
G01*
D02*
G03*
X82500Y0I82500J0D01*
G01*
D48*
X119437Y63260D02*
D03*
X19076Y42928D02*
D03*
X16518Y47360D02*
D03*
X148483D02*
D03*
X145924Y42928D02*
D03*
X79941Y157213D02*
D03*
X85059D02*
D03*
D49*
X70067Y134248D02*
D03*
X90933D02*
D03*
D50*
X134500Y69508D02*
D03*
Y79508D02*
D03*
Y89508D02*
D03*
Y99508D02*
D03*
D51*
X57410Y145975D02*
D03*
X40090Y135975D02*
D03*
X15000Y92500D02*
D03*
Y72500D02*
D03*
X40090Y29043D02*
D03*
X57410Y19043D02*
D03*
X107590D02*
D03*
X124910Y29043D02*
D03*
X150000Y72500D02*
D03*
Y92500D02*
D03*
X124910Y135957D02*
D03*
X107590Y145957D02*
D03*
D52*
X82500Y23000D02*
D03*
X30972Y112250D02*
D03*
X134029D02*
D03*
D53*
X96000Y106500D02*
D03*
X80677Y62258D02*
D03*
X71500Y48000D02*
D03*
X82500Y105500D02*
D03*
X73134Y124500D02*
D03*
X74000Y41000D02*
D03*
X141500Y54500D02*
D03*
X118150Y41551D02*
D03*
X56500Y152500D02*
D03*
X93500Y69500D02*
D03*
X47000Y42500D02*
D03*
X27000Y48500D02*
D03*
X70134Y122500D02*
D03*
X67134Y124500D02*
D03*
X98500Y7000D02*
D03*
X132000Y121500D02*
D03*
X124500Y108000D02*
D03*
X82500Y131450D02*
D03*
X37950Y113500D02*
D03*
X44209Y97200D02*
D03*
X69050Y86500D02*
D03*
X7500Y93743D02*
D03*
X32000Y34050D02*
D03*
X105744Y118328D02*
D03*
X45888Y68000D02*
D03*
X51810Y129600D02*
D03*
X52810Y116400D02*
D03*
X99050Y60500D02*
D03*
X57500Y71000D02*
D03*
X49000Y87000D02*
D03*
X116700Y85871D02*
D03*
X106000Y88000D02*
D03*
X32500Y81500D02*
D03*
X99000Y147500D02*
D03*
X66000Y28000D02*
D03*
X88500Y48256D02*
D03*
X92151Y37031D02*
D03*
X44500Y15000D02*
D03*
X156000Y101500D02*
D03*
D54*
X119437Y70740D02*
D03*
D55*
X48750Y140975D02*
D03*
X15000Y82500D02*
D03*
X48750Y24043D02*
D03*
X116250D02*
D03*
X150000Y82500D02*
D03*
X116250Y140957D02*
D03*
M02*
