G04 Layer_Color=16711935*
%FSLAX25Y25*%
%MOIN*%
G70*
G01*
G75*
%ADD67C,0.00394*%
D67*
X70098Y96870D02*
G03*
X70098Y96870I-1969J0D01*
G01*
X66594Y49626D02*
G03*
X66594Y49626I-1969J0D01*
G01*
X102342Y40374D02*
G03*
X102342Y40374I-1969J0D01*
G01*
X48929Y68461D02*
G03*
X48929Y68461I-1969J0D01*
G01*
X121129Y86439D02*
G03*
X121129Y86439I-1969J0D01*
G01*
X46933Y151978D02*
G03*
X42899Y153059I-2557J-1476D01*
G01*
X41194Y152074D02*
G03*
X40114Y148041I1476J-2557D01*
G01*
X4547Y86437D02*
G03*
X1594Y83484I0J-2953D01*
G01*
Y81515D02*
G03*
X4547Y78563I2953J0D01*
G01*
X40114Y16959D02*
G03*
X41195Y12926I2557J-1476D01*
G01*
X42900Y11941D02*
G03*
X46933Y13022I1476J2557D01*
G01*
X118067Y13022D02*
G03*
X122101Y11942I2557J1476D01*
G01*
X123805Y12926D02*
G03*
X124886Y16959I-1476J2557D01*
G01*
X160453Y78563D02*
G03*
X163406Y81516I0J2953D01*
G01*
Y83485D02*
G03*
X160453Y86437I-2953J0D01*
G01*
X124886Y148041D02*
G03*
X123805Y152075I-2557J1476D01*
G01*
X122100Y153059D02*
G03*
X118067Y151978I-1476J-2557D01*
G01*
X41195Y152075D02*
G03*
X40114Y148041I1476J-2557D01*
G01*
X46933Y151978D02*
G03*
X42900Y153059I-2557J-1476D01*
G01*
X1594Y81516D02*
G03*
X4547Y78563I2953J0D01*
G01*
Y86437D02*
G03*
X1594Y83485I0J-2953D01*
G01*
X42899Y11942D02*
G03*
X46933Y13022I1476J2557D01*
G01*
X40114Y16959D02*
G03*
X41194Y12926I2557J-1476D01*
G01*
X123805Y12926D02*
G03*
X124886Y16959I-1476J2557D01*
G01*
X118067Y13022D02*
G03*
X122100Y11941I2557J1476D01*
G01*
X163406Y83484D02*
G03*
X160453Y86437I-2953J0D01*
G01*
Y78563D02*
G03*
X163406Y81515I0J2953D01*
G01*
X122101Y153059D02*
G03*
X118067Y151978I-1476J-2557D01*
G01*
X124886Y148041D02*
G03*
X123805Y152074I-2557J1476D01*
G01*
X52813Y149685D02*
G03*
X39175Y141811I-6819J-3937D01*
G01*
X9488Y90374D02*
G03*
X9488Y74626I0J-7874D01*
G01*
X39175Y23207D02*
G03*
X52813Y15333I6819J-3937D01*
G01*
X112187D02*
G03*
X125825Y23207I6819J3937D01*
G01*
X155512Y74626D02*
G03*
X155512Y90374I0J7874D01*
G01*
X125825Y141793D02*
G03*
X112187Y149667I-6819J3937D01*
G01*
X41938Y47244D02*
G03*
X41938Y47244I-1197J0D01*
G01*
X125457Y52756D02*
G03*
X125457Y52756I-1197J0D01*
G01*
X100413Y64587D02*
Y100413D01*
X64587Y64587D02*
Y100413D01*
Y64587D02*
X100413D01*
X64587Y100413D02*
X100413D01*
X68169Y36831D02*
Y53169D01*
X51831Y36831D02*
Y53169D01*
X68169D01*
X51831Y36831D02*
X68169D01*
X96831Y36831D02*
Y53169D01*
X113169Y36831D02*
Y53169D01*
X96831Y36831D02*
X113169D01*
X96831Y53169D02*
X113169D01*
X38496Y59996D02*
Y72004D01*
Y59996D02*
X50504D01*
Y72004D01*
X38496D02*
X50504D01*
X110696Y94904D02*
X122704D01*
X110696Y82896D02*
Y94904D01*
Y82896D02*
X122704D01*
Y94904D01*
X40870Y142795D02*
X51098Y148700D01*
X49130Y152110D02*
X51098Y148700D01*
X38901Y146204D02*
X40870Y142795D01*
X47425Y151125D02*
X49130Y152110D01*
X38901Y146204D02*
X40606Y147188D01*
X41194Y152074D02*
X42899Y153059D01*
X40114Y148041D02*
X40606Y147188D01*
X46933Y151978D02*
X47425Y151125D01*
X9468Y76594D02*
Y88405D01*
X5531D02*
X9468D01*
X5531Y76594D02*
X9468D01*
X5531Y86437D02*
Y88405D01*
Y76594D02*
Y78563D01*
X1594Y81515D02*
Y83484D01*
X4547Y78563D02*
X5531D01*
X4547Y86437D02*
X5531D01*
X40870Y22205D02*
X51099Y16300D01*
X38902Y18796D02*
X40870Y22205D01*
X49130Y12890D02*
X51099Y16300D01*
X38902Y18796D02*
X40606Y17811D01*
X47425Y13874D02*
X49130Y12890D01*
X41195Y12926D02*
X42900Y11941D01*
X46933Y13022D02*
X47425Y13874D01*
X40114Y16959D02*
X40606Y17811D01*
X113902Y16300D02*
X124130Y22206D01*
X113902Y16300D02*
X115870Y12890D01*
X124130Y22206D02*
X126099Y18796D01*
X115870Y12890D02*
X117575Y13875D01*
X124394Y17812D02*
X126099Y18796D01*
X122101Y11942D02*
X123805Y12926D01*
X124394Y17812D02*
X124886Y16959D01*
X117575Y13875D02*
X118067Y13022D01*
X155532Y76595D02*
Y88406D01*
Y76595D02*
X159469D01*
X155532Y88406D02*
X159469D01*
Y76595D02*
Y78563D01*
Y86437D02*
Y88406D01*
X163406Y81516D02*
Y83485D01*
X159469Y86437D02*
X160453D01*
X159469Y78563D02*
X160453D01*
X113901Y148700D02*
X124130Y142795D01*
X126098Y146204D01*
X113901Y148700D02*
X115870Y152110D01*
X124394Y147189D02*
X126098Y146204D01*
X115870Y152110D02*
X117575Y151126D01*
X122100Y153059D02*
X123805Y152075D01*
X117575Y151126D02*
X118067Y151978D01*
X124394Y147189D02*
X124886Y148041D01*
X40870Y142795D02*
X51099Y148700D01*
X38902Y146204D02*
X40870Y142795D01*
X49130Y152110D02*
X51099Y148700D01*
X38902Y146204D02*
X40606Y147189D01*
X47425Y151126D02*
X49130Y152110D01*
X41195Y152075D02*
X42900Y153059D01*
X46933Y151978D02*
X47425Y151126D01*
X40114Y148041D02*
X40606Y147189D01*
X9468Y76595D02*
Y88406D01*
X5531Y76595D02*
X9468D01*
X5531Y88406D02*
X9468D01*
X5531Y76595D02*
Y78563D01*
Y86437D02*
Y88406D01*
X1594Y81516D02*
Y83485D01*
X4547Y86437D02*
X5531D01*
X4547Y78563D02*
X5531D01*
X40870Y22206D02*
X51098Y16300D01*
X49130Y12890D02*
X51098Y16300D01*
X38901Y18796D02*
X40870Y22206D01*
X47425Y13875D02*
X49130Y12890D01*
X38901Y18796D02*
X40606Y17812D01*
X41194Y12926D02*
X42899Y11942D01*
X40114Y16959D02*
X40606Y17812D01*
X46933Y13022D02*
X47425Y13875D01*
X113901Y16300D02*
X124130Y22205D01*
X126098Y18796D01*
X113901Y16300D02*
X115870Y12890D01*
X124394Y17811D02*
X126098Y18796D01*
X115870Y12890D02*
X117575Y13874D01*
X122100Y11941D02*
X123805Y12926D01*
X117575Y13874D02*
X118067Y13022D01*
X124394Y17811D02*
X124886Y16959D01*
X155532Y76594D02*
Y88405D01*
X159469D01*
X155532Y76594D02*
X159469D01*
Y86437D02*
Y88405D01*
Y76594D02*
Y78563D01*
X163406Y81515D02*
Y83484D01*
X159469Y78563D02*
X160453D01*
X159469Y86437D02*
X160453D01*
X113902Y148700D02*
X124130Y142795D01*
X113902Y148700D02*
X115870Y152110D01*
X124130Y142795D02*
X126099Y146204D01*
X115870Y152110D02*
X117575Y151125D01*
X124394Y147188D02*
X126099Y146204D01*
X122101Y153059D02*
X123805Y152074D01*
X124394Y147188D02*
X124886Y148041D01*
X117575Y151125D02*
X118067Y151978D01*
X37470Y140827D02*
X42982Y131280D01*
X37470Y140827D02*
X39175Y141811D01*
X54518Y150670D02*
X60030Y141123D01*
X42982Y131280D02*
X60030Y141123D01*
X52813Y149685D02*
X54518Y150670D01*
X9488Y72658D02*
X20512D01*
X9488D02*
Y74626D01*
Y92343D02*
X20512D01*
Y72658D02*
Y92343D01*
X9488Y90374D02*
Y92343D01*
X54518Y14349D02*
X60030Y23895D01*
X52813Y15333D02*
X54518Y14349D01*
X37470Y24191D02*
X42982Y33738D01*
X60030Y23895D01*
X37470Y24191D02*
X39175Y23207D01*
X122018Y33738D02*
X127530Y24191D01*
X125825Y23207D02*
X127530Y24191D01*
X104970Y23895D02*
X110482Y14349D01*
X104970Y23895D02*
X122018Y33738D01*
X110482Y14349D02*
X112187Y15333D01*
X144488Y92343D02*
X155512D01*
Y90374D02*
Y92343D01*
X144488Y72658D02*
X155512D01*
X144488D02*
Y92343D01*
X155512Y72658D02*
Y74626D01*
X104970Y141105D02*
X110482Y150652D01*
X112187Y149667D01*
X122018Y131262D02*
X127530Y140809D01*
X104970Y141105D02*
X122018Y131262D01*
X125825Y141793D02*
X127530Y140809D01*
X98244Y51028D02*
X103756D01*
X98244Y41972D02*
X103756D01*
X98244D02*
Y51028D01*
X103756Y41972D02*
Y51028D01*
X31095Y45079D02*
X42906D01*
X31095Y54921D02*
X42906D01*
X31095Y45079D02*
Y54921D01*
X42906Y45079D02*
Y54921D01*
X122095D02*
X133905D01*
X122095Y45079D02*
X133905D01*
Y54921D01*
X122095Y45079D02*
Y54921D01*
X60563Y81461D02*
X68437D01*
X60563Y76539D02*
Y81461D01*
Y76539D02*
X68437D01*
Y81461D01*
X96563D02*
X104437D01*
X96563Y76539D02*
Y81461D01*
Y76539D02*
X104437D01*
Y81461D01*
X76201Y76988D02*
Y88012D01*
Y76988D02*
X88799D01*
Y88012D01*
X76201D02*
X88799D01*
X55457Y40898D02*
Y53102D01*
X62543Y40898D02*
Y53102D01*
X55457D02*
X62543D01*
X55457Y40898D02*
X62543D01*
X123989Y125726D02*
X128123Y118566D01*
X133877Y131434D02*
X138011Y124274D01*
X128123Y118566D02*
X138011Y124274D01*
X123989Y125726D02*
X133877Y131434D01*
X39377Y117066D02*
X43511Y124226D01*
X29489Y122774D02*
X33623Y129934D01*
X43511Y124226D01*
X29489Y122774D02*
X39377Y117066D01*
X10489Y106774D02*
X14623Y113934D01*
X20377Y101066D02*
X24511Y108226D01*
X10489Y106774D02*
X20377Y101066D01*
X14623Y113934D02*
X24511Y108226D01*
X68268Y25209D02*
X76535D01*
X68268Y13791D02*
X76535D01*
X68268D02*
Y25209D01*
X76535Y13791D02*
Y25209D01*
X88366Y13791D02*
X96634D01*
X88366Y25209D02*
X96634D01*
Y13791D02*
Y25209D01*
X88366Y13791D02*
Y25209D01*
X151377Y112434D02*
X155511Y105274D01*
X141489Y106726D02*
X145623Y99566D01*
X141489Y106726D02*
X151377Y112434D01*
X145623Y99566D02*
X155511Y105274D01*
X72646Y51669D02*
Y60331D01*
X78354Y51669D02*
Y60331D01*
X72646Y51669D02*
X78354D01*
X72646Y60331D02*
X78354D01*
X37905Y60303D02*
Y70697D01*
X51095Y60303D02*
Y70697D01*
X37905D02*
X51095D01*
X37905Y60303D02*
X51095D01*
X122665Y116819D02*
Y119181D01*
X118335Y116819D02*
Y119181D01*
Y116819D02*
X122665D01*
X118335Y119181D02*
X122665D01*
X119681Y110335D02*
Y114665D01*
X117319Y110335D02*
Y114665D01*
X119681D01*
X117319Y110335D02*
X119681D01*
X121319Y114665D02*
X123681D01*
X121319Y110335D02*
X123681D01*
Y114665D01*
X121319Y110335D02*
Y114665D01*
X48181Y75335D02*
Y79665D01*
X45819Y75335D02*
Y79665D01*
Y75335D02*
X48181D01*
X45819Y79665D02*
X48181D01*
X42319D02*
X44681D01*
X42319Y75335D02*
X44681D01*
X42319D02*
Y79665D01*
X44681Y75335D02*
Y79665D01*
X110319Y74835D02*
Y79165D01*
X112681Y74835D02*
Y79165D01*
X110319D02*
X112681D01*
X110319Y74835D02*
X112681D01*
X113819D02*
X116181D01*
X113819Y79165D02*
X116181D01*
Y74835D02*
Y79165D01*
X113819Y74835D02*
Y79165D01*
X117319Y74835D02*
Y79165D01*
X119681Y74835D02*
Y79165D01*
X117319D02*
X119681D01*
X117319Y74835D02*
X119681D01*
X120819D02*
X123181D01*
X120819Y79165D02*
X123181D01*
Y74835D02*
Y79165D01*
X120819Y74835D02*
Y79165D01*
X98335Y87681D02*
X102665D01*
X98335Y85319D02*
X102665D01*
X98335D02*
Y87681D01*
X102665Y85319D02*
Y87681D01*
X97835Y70319D02*
Y72681D01*
X102165Y70319D02*
Y72681D01*
X97835D02*
X102165D01*
X97835Y70319D02*
X102165D01*
X62335Y87681D02*
X66665D01*
X62335Y85319D02*
X66665D01*
X62335D02*
Y87681D01*
X66665Y85319D02*
Y87681D01*
X21560Y45034D02*
X23606Y46215D01*
X19395Y48785D02*
X21440Y49966D01*
X19395Y48785D02*
X21560Y45034D01*
X21440Y49966D02*
X23606Y46215D01*
X141394Y46715D02*
X143560Y50466D01*
X143440Y45534D02*
X145606Y49285D01*
X141394Y46715D02*
X143440Y45534D01*
X143560Y50466D02*
X145606Y49285D01*
X80665Y151819D02*
Y154181D01*
X76335Y151819D02*
Y154181D01*
X80665D01*
X76335Y151819D02*
X80665D01*
X77319Y133835D02*
Y138165D01*
X79681Y133835D02*
Y138165D01*
X77319D02*
X79681D01*
X77319Y133835D02*
X79681D01*
X82665Y140319D02*
Y142681D01*
X78335Y140319D02*
Y142681D01*
X82665D01*
X78335Y140319D02*
X82665D01*
X55835Y128181D02*
X60165D01*
X55835Y125819D02*
X60165D01*
Y128181D01*
X55835Y125819D02*
Y128181D01*
X60165Y118819D02*
Y121181D01*
X55835Y118819D02*
Y121181D01*
X60165D01*
X55835Y118819D02*
X60165D01*
X51835Y100681D02*
X56165D01*
X51835Y98319D02*
X56165D01*
Y100681D01*
X51835Y98319D02*
Y100681D01*
X56165Y94819D02*
Y97181D01*
X51835Y94819D02*
Y97181D01*
X56165D01*
X51835Y94819D02*
X56165D01*
X40335Y105319D02*
X44665D01*
X40335Y107681D02*
X44665D01*
Y105319D02*
Y107681D01*
X40335Y105319D02*
Y107681D01*
X44665Y108819D02*
Y111181D01*
X40335Y108819D02*
Y111181D01*
Y108819D02*
X44665D01*
X40335Y111181D02*
X44665D01*
X40335Y112319D02*
X44665D01*
X40335Y114681D02*
X44665D01*
Y112319D02*
Y114681D01*
X40335Y112319D02*
Y114681D01*
X72335Y30819D02*
Y33181D01*
X76665Y30819D02*
Y33181D01*
X72335D02*
X76665D01*
X72335Y30819D02*
X76665D01*
X88335D02*
X92665D01*
X88335Y33181D02*
X92665D01*
Y30819D02*
Y33181D01*
X88335Y30819D02*
Y33181D01*
X80335Y30819D02*
Y33181D01*
X84665Y30819D02*
Y33181D01*
X80335D02*
X84665D01*
X80335Y30819D02*
X84665D01*
X79835Y45681D02*
X84165D01*
X79835Y43319D02*
X84165D01*
Y45681D01*
X79835Y43319D02*
Y45681D01*
X91665Y43319D02*
Y45681D01*
X87335Y43319D02*
Y45681D01*
X91665D01*
X87335Y43319D02*
X91665D01*
X36819Y93835D02*
Y98165D01*
X39181Y93835D02*
Y98165D01*
X36819D02*
X39181D01*
X36819Y93835D02*
X39181D01*
X95181Y80335D02*
Y84665D01*
X92819Y80335D02*
Y84665D01*
X95181D01*
X92819Y80335D02*
X95181D01*
X70319Y81835D02*
X72681D01*
X70319Y86165D02*
X72681D01*
X70319Y81835D02*
Y86165D01*
X72681Y81835D02*
Y86165D01*
X61319Y149835D02*
Y154165D01*
X63681Y149835D02*
Y154165D01*
X61319D02*
X63681D01*
X61319Y149835D02*
X63681D01*
X12165Y96819D02*
Y99181D01*
X7835Y96819D02*
Y99181D01*
X12165D01*
X7835Y96819D02*
X12165D01*
X33181Y27335D02*
Y31665D01*
X30819Y27335D02*
Y31665D01*
Y27335D02*
X33181D01*
X30819Y31665D02*
X33181D01*
X100335Y10819D02*
Y13181D01*
X104665Y10819D02*
Y13181D01*
X100335Y10819D02*
X104665D01*
X100335Y13181D02*
X104665D01*
X151335Y67681D02*
X155665D01*
X151335Y65319D02*
X155665D01*
Y67681D01*
X151335Y65319D02*
Y67681D01*
X131319Y133335D02*
X133681D01*
X131319Y137665D02*
X133681D01*
Y133335D02*
Y137665D01*
X131319Y133335D02*
Y137665D01*
X45715Y132895D02*
X49466Y135060D01*
X44534Y134940D02*
X48285Y137106D01*
X44534Y134940D02*
X45715Y132895D01*
X48285Y137106D02*
X49466Y135060D01*
X18319Y80165D02*
X20681D01*
X18319Y75835D02*
X20681D01*
Y80165D01*
X18319Y75835D02*
Y80165D01*
X53306Y27266D02*
X57057Y25100D01*
X54487Y29311D02*
X58238Y27146D01*
X57057Y25100D02*
X58238Y27146D01*
X53306Y27266D02*
X54487Y29311D01*
X114556Y31646D02*
X115737Y29600D01*
X118307Y33812D02*
X119488Y31766D01*
X114556Y31646D02*
X118307Y33812D01*
X115737Y29600D02*
X119488Y31766D01*
X144819Y84835D02*
Y89165D01*
X147181Y84835D02*
Y89165D01*
X144819D02*
X147181D01*
X144819Y84835D02*
X147181D01*
X111285Y137394D02*
X112466Y139440D01*
X107534Y139560D02*
X108715Y141605D01*
X112466Y139440D01*
X107534Y139560D02*
X111285Y137394D01*
X34681Y63835D02*
Y68165D01*
X32319Y63835D02*
Y68165D01*
X34681D01*
X32319Y63835D02*
X34681D01*
X28819Y68165D02*
X31181D01*
X28819Y63835D02*
X31181D01*
Y68165D01*
X28819Y63835D02*
Y68165D01*
X81319Y133835D02*
X83681D01*
X81319Y138165D02*
X83681D01*
Y133835D02*
Y138165D01*
X81319Y133835D02*
Y138165D01*
X55835Y124681D02*
X60165D01*
X55835Y122319D02*
X60165D01*
Y124681D01*
X55835Y122319D02*
Y124681D01*
X51835Y101819D02*
Y104181D01*
X56165Y101819D02*
Y104181D01*
X51835Y101819D02*
X56165D01*
X51835Y104181D02*
X56165D01*
X53715Y137394D02*
X57466Y139560D01*
X52534Y139440D02*
X56285Y141605D01*
X52534Y139440D02*
X53715Y137394D01*
X56285Y141605D02*
X57466Y139560D01*
X18319Y84335D02*
X20681D01*
X18319Y88665D02*
X20681D01*
X18319Y84335D02*
Y88665D01*
X20681Y84335D02*
Y88665D01*
X46694Y33811D02*
X50445Y31646D01*
X45513Y31766D02*
X49264Y29600D01*
X45513Y31766D02*
X46694Y33811D01*
X49264Y29600D02*
X50445Y31646D01*
X110513Y29311D02*
X111694Y27266D01*
X106762Y27146D02*
X107943Y25100D01*
X111694Y27266D01*
X106762Y27146D02*
X110513Y29311D01*
X147181Y75835D02*
Y80165D01*
X144819Y75835D02*
Y80165D01*
Y75835D02*
X147181D01*
X144819Y80165D02*
X147181D01*
X115534Y135060D02*
X116715Y137106D01*
X119285Y132895D02*
X120466Y134940D01*
X115534Y135060D02*
X119285Y132895D01*
X116715Y137106D02*
X120466Y134940D01*
X59835Y57319D02*
X64165D01*
X59835Y59681D02*
X64165D01*
Y57319D02*
Y59681D01*
X59835Y57319D02*
Y59681D01*
X45665Y49819D02*
Y52181D01*
X41335Y49819D02*
Y52181D01*
Y49819D02*
X45665D01*
X41335Y52181D02*
X45665D01*
X59319Y87835D02*
Y92165D01*
X61681Y87835D02*
Y92165D01*
X59319D02*
X61681D01*
X59319Y87835D02*
X61681D01*
X59319Y72835D02*
X61681D01*
X59319Y77165D02*
X61681D01*
Y72835D02*
Y77165D01*
X59319Y72835D02*
Y77165D01*
X92335Y104681D02*
X96665D01*
X92335Y102319D02*
X96665D01*
Y104681D01*
X92335Y102319D02*
Y104681D01*
X96665Y59319D02*
Y61681D01*
X92335Y59319D02*
Y61681D01*
X96665D01*
X92335Y59319D02*
X96665D01*
X72335D02*
X76665D01*
X72335Y61681D02*
X76665D01*
X72335Y59319D02*
Y61681D01*
X76665Y59319D02*
Y61681D01*
X103319Y84665D02*
X105681D01*
X103319Y80335D02*
X105681D01*
X103319D02*
Y84665D01*
X105681Y80335D02*
Y84665D01*
X95181Y72366D02*
Y76697D01*
X92819Y72366D02*
Y76697D01*
X95181D01*
X92819Y72366D02*
X95181D01*
X122165Y52319D02*
Y54681D01*
X117835Y52319D02*
Y54681D01*
Y52319D02*
X122165D01*
X117835Y54681D02*
X122165D01*
X98835Y36319D02*
X103165D01*
X98835Y38681D02*
X103165D01*
Y36319D02*
Y38681D01*
X98835Y36319D02*
Y38681D01*
X108819Y42335D02*
X111181D01*
X108819Y46665D02*
X111181D01*
X108819Y42335D02*
Y46665D01*
X111181Y42335D02*
Y46665D01*
X117316Y51194D02*
X121646D01*
X117316Y48831D02*
X121646D01*
X117316D02*
Y51194D01*
X121646Y48831D02*
Y51194D01*
X121335Y43819D02*
Y46181D01*
X125665Y43819D02*
Y46181D01*
X121335D02*
X125665D01*
X121335Y43819D02*
X125665D01*
X121335Y43681D02*
X125665D01*
X121335Y41319D02*
X125665D01*
X121335D02*
Y43681D01*
X125665Y41319D02*
Y43681D01*
X98835Y38819D02*
Y41181D01*
X103165Y38819D02*
Y41181D01*
X98835D02*
X103165D01*
X98835Y38819D02*
X103165D01*
X111319Y42335D02*
Y46665D01*
X113681Y42335D02*
Y46665D01*
X111319Y42335D02*
X113681D01*
X111319Y46665D02*
X113681D01*
X113165Y48249D02*
Y50611D01*
X108835Y48249D02*
Y50611D01*
Y48249D02*
X113165D01*
X108835Y50611D02*
X113165D01*
X64319Y149835D02*
Y154165D01*
X66681Y149835D02*
Y154165D01*
X64319Y149835D02*
X66681D01*
X64319Y154165D02*
X66681D01*
X67319D02*
X69681D01*
X67319Y149835D02*
X69681D01*
Y154165D01*
X67319Y149835D02*
Y154165D01*
X64835Y145819D02*
X69165D01*
X64835Y148181D02*
X69165D01*
Y145819D02*
Y148181D01*
X64835Y145819D02*
Y148181D01*
X131945Y46630D02*
Y50370D01*
X125055Y46630D02*
Y50370D01*
Y46630D02*
X131945D01*
X125055Y50370D02*
X131945D01*
X16085Y115475D02*
X22778Y127068D01*
X22222Y111932D02*
X28915Y123525D01*
X16085Y115475D02*
X22222Y111932D01*
X22778Y127068D02*
X28915Y123525D01*
X75807Y3957D02*
X89193D01*
X75807Y11043D02*
X89193D01*
Y3957D02*
Y11043D01*
X75807Y3957D02*
Y11043D01*
X135752Y120973D02*
X142445Y109381D01*
X141889Y124517D02*
X148582Y112924D01*
X142445Y109381D02*
X148582Y112924D01*
X135752Y120973D02*
X141889Y124517D01*
X34055Y43870D02*
X40945D01*
X34055Y40130D02*
X40945D01*
X34055D02*
Y43870D01*
X40945Y40130D02*
Y43870D01*
X78130Y42055D02*
Y48945D01*
X81870Y42055D02*
Y48945D01*
X78130Y42055D02*
X81870D01*
X78130Y48945D02*
X81870D01*
X106055Y119630D02*
Y123370D01*
X112945Y119630D02*
Y123370D01*
X106055Y119630D02*
X112945D01*
X106055Y123370D02*
X112945D01*
X56370Y77555D02*
Y84445D01*
X52630Y77555D02*
Y84445D01*
X56370D01*
X52630Y77555D02*
X56370D01*
X83630Y48945D02*
X87370D01*
X83630Y42055D02*
X87370D01*
Y48945D01*
X83630Y42055D02*
Y48945D01*
X83555Y55370D02*
X90445D01*
X83555Y51630D02*
X90445D01*
X83555D02*
Y55370D01*
X90445Y51630D02*
Y55370D01*
X40457Y85602D02*
X47543D01*
X40457Y73398D02*
X47543D01*
X40457D02*
Y85602D01*
X47543Y73398D02*
Y85602D01*
X47945Y53130D02*
Y56870D01*
X41055Y53130D02*
Y56870D01*
Y53130D02*
X47945D01*
X41055Y56870D02*
X47945D01*
M02*
