G04 Layer_Physical_Order=4*
G04 Layer_Color=16711680*
%FSLAX25Y25*%
%MOIN*%
G70*
G01*
G75*
%ADD12P,0.08352X4X165.0*%
%ADD13R,0.05906X0.05906*%
%ADD14P,0.08352X4X285.0*%
%ADD25R,0.02362X0.01969*%
%ADD26R,0.01969X0.02362*%
G04:AMPARAMS|DCode=29|XSize=19.69mil|YSize=23.62mil|CornerRadius=0mil|HoleSize=0mil|Usage=FLASHONLY|Rotation=60.000|XOffset=0mil|YOffset=0mil|HoleType=Round|Shape=Rectangle|*
%AMROTATEDRECTD29*
4,1,4,0.00531,-0.01443,-0.01515,-0.00262,-0.00531,0.01443,0.01515,0.00262,0.00531,-0.01443,0.0*
%
%ADD29ROTATEDRECTD29*%

G04:AMPARAMS|DCode=30|XSize=19.69mil|YSize=23.62mil|CornerRadius=0mil|HoleSize=0mil|Usage=FLASHONLY|Rotation=120.000|XOffset=0mil|YOffset=0mil|HoleType=Round|Shape=Rectangle|*
%AMROTATEDRECTD30*
4,1,4,0.01515,-0.00262,-0.00531,-0.01443,-0.01515,0.00262,0.00531,0.01443,0.01515,-0.00262,0.0*
%
%ADD30ROTATEDRECTD30*%

%ADD31R,0.03150X0.03543*%
%ADD37C,0.00500*%
%ADD40C,0.03937*%
%ADD41O,0.06890X0.11811*%
%ADD42C,0.05906*%
%ADD43C,0.04800*%
%ADD44C,0.10630*%
%ADD45C,0.01800*%
%ADD56O,0.02559X0.00984*%
%ADD57O,0.00984X0.02559*%
%ADD58O,0.03150X0.00984*%
%ADD59O,0.00984X0.03150*%
%ADD60R,0.03347X0.01181*%
%ADD61R,0.01181X0.03347*%
%ADD62R,0.06890X0.03937*%
%ADD63O,0.01181X0.03347*%
%ADD64O,0.03347X0.01181*%
%ADD65C,0.00492*%
%ADD66C,0.03150*%
D12*
X50966Y150897D02*
D03*
X39033Y144007D02*
D03*
X114034Y14103D02*
D03*
X125967Y20993D02*
D03*
D13*
X7500Y89389D02*
D03*
Y75610D02*
D03*
X157500Y75611D02*
D03*
Y89390D02*
D03*
D14*
X39033Y20993D02*
D03*
X50967Y14103D02*
D03*
X125967Y144008D02*
D03*
X114033Y150897D02*
D03*
D25*
X80468Y153000D02*
D03*
X76531D02*
D03*
X82468Y141500D02*
D03*
X78531D02*
D03*
X59969Y127000D02*
D03*
X56032D02*
D03*
X59969Y120000D02*
D03*
X56032D02*
D03*
X55968Y99500D02*
D03*
X52031D02*
D03*
X55968Y96000D02*
D03*
X52031D02*
D03*
X83969Y44500D02*
D03*
X80032D02*
D03*
X91469Y44500D02*
D03*
X87532D02*
D03*
X11969Y98000D02*
D03*
X8032D02*
D03*
X100531Y12000D02*
D03*
X104469D02*
D03*
X155468Y66500D02*
D03*
X151532D02*
D03*
X59969Y123500D02*
D03*
X56032D02*
D03*
X52031Y103000D02*
D03*
X55968D02*
D03*
X96469Y103500D02*
D03*
X92532D02*
D03*
X96469Y60500D02*
D03*
X92532D02*
D03*
X72531D02*
D03*
X76468D02*
D03*
D26*
X47000Y75532D02*
D03*
Y79469D02*
D03*
X43500D02*
D03*
Y75532D02*
D03*
X111500Y78969D02*
D03*
Y75032D02*
D03*
X115000D02*
D03*
Y78969D02*
D03*
X118500D02*
D03*
Y75032D02*
D03*
X122000D02*
D03*
Y78969D02*
D03*
X78500Y137969D02*
D03*
Y134031D02*
D03*
X38000Y97969D02*
D03*
Y94032D02*
D03*
X62500Y153969D02*
D03*
Y150031D02*
D03*
X32000Y27531D02*
D03*
Y31468D02*
D03*
X132500Y133531D02*
D03*
Y137469D02*
D03*
X146000Y88968D02*
D03*
Y85031D02*
D03*
X82500Y134031D02*
D03*
Y137969D02*
D03*
X146000Y76032D02*
D03*
Y79969D02*
D03*
X60500Y91969D02*
D03*
Y88032D02*
D03*
Y73032D02*
D03*
Y76968D02*
D03*
X104500Y84469D02*
D03*
Y80532D02*
D03*
D29*
X111705Y138516D02*
D03*
X108295Y140484D02*
D03*
X116295Y135984D02*
D03*
X119705Y134016D02*
D03*
D30*
X45295D02*
D03*
X48705Y135984D02*
D03*
X53295Y138516D02*
D03*
X56705Y140484D02*
D03*
D31*
X106744Y121500D02*
D03*
X112256D02*
D03*
D37*
X94000Y46969D02*
X97997D01*
X89390Y63390D02*
Y68444D01*
X67874Y45000D02*
X70000D01*
X66905D02*
X67874D01*
X109517Y109050D02*
X117950D01*
X108050Y107583D02*
X109517Y109050D01*
X99967Y111000D02*
X105717Y105250D01*
X99000Y111000D02*
X99967D01*
X95250Y110750D02*
X96367D01*
X114978Y65978D02*
X115500Y66500D01*
X112478Y65978D02*
X114978D01*
X107436Y58598D02*
X111838Y63000D01*
X115000D01*
X117978Y65978D01*
X120563D01*
X107583Y62750D02*
X108650Y63816D01*
Y65402D01*
X111748Y68500D01*
X116418D01*
X117897Y67022D01*
X120977D01*
X122456Y68500D01*
X124000D01*
X130350Y74850D01*
X131183D01*
X134500Y78167D01*
Y79508D01*
X122041Y69500D02*
X123500D01*
X120563Y68022D02*
X122041Y69500D01*
X118311Y68022D02*
X120563D01*
X116833Y69500D02*
X118311Y68022D01*
X111333Y69500D02*
X116833D01*
X123500D02*
X130500Y76500D01*
X109183Y67350D02*
X111333Y69500D01*
X106500Y60000D02*
X112478Y65978D01*
X90600Y104938D02*
X91150Y105488D01*
X90600Y104600D02*
Y104938D01*
X91150Y105488D02*
Y106650D01*
X95250Y110750D01*
X89600Y105353D02*
X90150Y105902D01*
Y109350D01*
X88600Y105767D02*
X89150Y106317D01*
Y108490D01*
X89600Y105262D02*
Y105353D01*
X87838Y103500D02*
X89600Y105262D01*
X88600Y105676D02*
Y105767D01*
X88274Y105350D02*
X88600Y105676D01*
X86516Y105350D02*
X88274D01*
X88148Y102148D02*
X90600Y104600D01*
X88148Y100845D02*
Y102148D01*
X87421Y100118D02*
X88148Y100845D01*
X88360Y111140D02*
X90150Y109350D01*
X87500Y110140D02*
X89150Y108490D01*
X44860Y111140D02*
X88360D01*
X44740Y110140D02*
X87500D01*
X96469Y104850D02*
X100741D01*
X101291Y105400D01*
X96469Y103500D02*
Y104850D01*
X94000Y106500D02*
X96000D01*
X92532Y105032D02*
X94000Y106500D01*
X87000Y103500D02*
X87838D01*
X85350Y100118D02*
Y104183D01*
Y100118D02*
X85453D01*
X85350Y104183D02*
X86516Y105350D01*
X86334Y107000D02*
X87500D01*
X83183Y103850D02*
X86334Y107000D01*
X76500Y108000D02*
X80650Y103850D01*
X83183D01*
X89390Y97610D02*
Y100118D01*
Y97610D02*
X90000Y97000D01*
X76469Y60800D02*
X77926Y62258D01*
X82765Y59650D02*
X87421Y64306D01*
X81817Y59650D02*
X82765D01*
X80602Y59850D02*
X81402Y60650D01*
X81796D02*
X85453Y64306D01*
X81402Y60650D02*
X81796D01*
X77926Y62258D02*
X80677D01*
X80716Y58550D02*
X81817Y59650D01*
X70800Y46969D02*
X71500Y48000D01*
X80716Y58550D02*
Y58552D01*
X79638D02*
X80716D01*
X78851Y57766D02*
X79638Y58552D01*
X79522Y59850D02*
X80602D01*
X74500Y81914D02*
Y91500D01*
Y81914D02*
X82914Y73500D01*
X81516Y96484D02*
X83500Y94500D01*
X82914Y73500D02*
X85748D01*
X82500Y72500D02*
X85334D01*
X72000Y83000D02*
X82500Y72500D01*
X72000Y83000D02*
Y91500D01*
X74902Y75150D02*
X77436D01*
X81286Y71300D01*
X75317Y74150D02*
X76683D01*
X81200Y69634D01*
X81286Y71300D02*
X84200D01*
X85748Y73500D02*
X90632Y68616D01*
Y65608D02*
Y68616D01*
Y65608D02*
X91358Y64882D01*
X85334Y72500D02*
X89390Y68444D01*
X84200Y71300D02*
X86500Y69000D01*
X84000Y76250D02*
X87297Y79547D01*
X88321Y75000D02*
X90900Y77579D01*
X65881Y85453D02*
X71850Y79483D01*
Y75817D02*
Y79483D01*
X70850Y75402D02*
X72500Y73752D01*
Y73769D01*
X74936D01*
X75317Y74150D01*
X74602Y74850D02*
X74902Y75150D01*
X72816Y74850D02*
X74602D01*
X71850Y75817D02*
X72816Y74850D01*
X85850Y124000D02*
Y141345D01*
Y124000D02*
X96850Y113000D01*
X100002D01*
X97000Y115200D02*
X98200Y114000D01*
X97000Y115200D02*
Y115500D01*
X92532Y103500D02*
Y105032D01*
X75500Y104000D02*
X77579Y101921D01*
X73642Y100118D02*
Y105142D01*
X104359Y110057D02*
X127645D01*
X100417Y114000D02*
X104359Y110057D01*
X106102Y106900D02*
X106400D01*
X100002Y113000D02*
X106102Y106900D01*
X117950Y109050D02*
X119500Y107500D01*
X117100Y104100D02*
Y107400D01*
Y104100D02*
X119600Y101600D01*
X113350Y99950D02*
X126550D01*
X116000Y98500D02*
X125100D01*
X98200Y114000D02*
X100417D01*
X108050Y106217D02*
Y107583D01*
X107083Y105250D02*
X108050Y106217D01*
X105717Y105250D02*
X107083D01*
X84300Y128800D02*
Y137169D01*
X76000Y120500D02*
X84300Y128800D01*
X76000Y120500D02*
Y120900D01*
X75900Y121000D02*
X76000Y120900D01*
X57506Y104994D02*
X64882Y97618D01*
Y97264D02*
Y97618D01*
X41000Y104994D02*
X57506D01*
X40700Y106100D02*
X44740Y110140D01*
X44593Y111407D02*
X44860Y111140D01*
X80410Y92250D02*
X87364D01*
X75617Y97044D02*
Y100112D01*
Y97044D02*
X80410Y92250D01*
X77579Y100118D02*
Y101921D01*
X59653Y106547D02*
X63000Y103200D01*
X56777Y106547D02*
X59653D01*
X55324Y108000D02*
X56777Y106547D01*
X52800Y108000D02*
X55324D01*
X44593Y111407D02*
X44593D01*
X37600Y118400D02*
X44593Y111407D01*
X51500Y106700D02*
X52800Y108000D01*
X39800Y103794D02*
X41000Y104994D01*
X71673Y96327D02*
X71700Y96300D01*
X71673Y96327D02*
Y100118D01*
X75610D02*
X75617Y100112D01*
X71700Y96300D02*
Y96924D01*
X75500Y100008D02*
X75610Y100118D01*
X87364Y92250D02*
X90314Y95200D01*
X95800D01*
X13500Y44500D02*
Y59466D01*
Y44500D02*
X15000Y43000D01*
Y40000D02*
Y43000D01*
Y40000D02*
X27469Y27531D01*
X11800Y64200D02*
X13750Y62250D01*
Y59716D02*
Y62250D01*
X13500Y59466D02*
X13750Y59716D01*
X23200Y35700D02*
Y45300D01*
X15300Y53200D02*
X23200Y45300D01*
X15300Y53200D02*
Y63500D01*
X16850Y54650D02*
X35850Y35650D01*
X16850Y54650D02*
Y68950D01*
X17850Y55150D02*
X30344Y42656D01*
X17850Y55150D02*
Y64764D01*
X148427Y42928D02*
X151500Y46000D01*
X145924Y42928D02*
X148427D01*
X151500Y46000D02*
Y51500D01*
X153500Y53500D01*
Y94300D01*
X77000Y150500D02*
Y153031D01*
X76531Y153500D02*
X77000Y153031D01*
X67598Y38500D02*
X78500D01*
X65549Y40549D02*
X67598Y38500D01*
X78500D02*
X80500Y40500D01*
X73937Y41063D02*
X74000Y41000D01*
X68140Y42766D02*
X89023D01*
X120637Y82798D02*
X122000Y81435D01*
Y78969D02*
Y81435D01*
X118500Y78969D02*
X118668Y79137D01*
Y82798D01*
X114731D02*
X115000Y82529D01*
Y78969D02*
Y82529D01*
X107512Y91650D02*
X114731Y84430D01*
Y82798D02*
Y84430D01*
X118260Y63260D02*
X119437D01*
X115000Y60000D02*
X118260Y63260D01*
X120563Y65978D02*
X121541Y65000D01*
X124022Y64000D02*
X126219D01*
X118022Y58000D02*
X124022Y64000D01*
X112333Y57000D02*
X118436D01*
X112748Y58000D02*
X118022D01*
X118436Y57000D02*
X122086Y60650D01*
X124183D01*
X121541Y65000D02*
X126000D01*
X63000Y121086D02*
Y144000D01*
X56031Y120369D02*
X62050Y114350D01*
X69183D01*
X70150Y115317D01*
Y116683D01*
X69183Y117650D02*
X70150Y116683D01*
X67850Y117650D02*
X69183D01*
X65000Y120500D02*
X67850Y117650D01*
X63000Y121086D02*
X68086Y116000D01*
X68500D01*
X65000Y120500D02*
Y140500D01*
X66000Y141500D01*
X77555Y97439D02*
X78205Y98089D01*
X79089D01*
X77555Y97439D02*
Y98089D01*
X79547Y98547D02*
Y100118D01*
X79089Y98089D02*
X79547Y98547D01*
X126000Y65000D02*
X126797Y65797D01*
X126219Y64000D02*
X131937Y58282D01*
X122000Y75031D02*
X122500Y74531D01*
X115000Y75031D02*
X122000D01*
X115000Y75032D02*
X115000Y75031D01*
X119000Y74531D02*
X119215Y74317D01*
Y70962D02*
Y74317D01*
X112763Y80232D02*
Y82798D01*
X111500Y78969D02*
X112763Y80232D01*
X106017Y62750D02*
X107583D01*
X111183Y58150D02*
X112333Y57000D01*
X111598Y59150D02*
X112748Y58000D01*
X107850Y57598D02*
X109402Y59150D01*
X108850Y57183D02*
X109817Y58150D01*
X109402Y59150D02*
X111598D01*
X109817Y58150D02*
X111183D01*
X111955Y55541D02*
X118541D01*
X110179Y53765D02*
X111955Y55541D01*
X112541Y54541D02*
X118956D01*
X111179Y53179D02*
X112541Y54541D01*
X118541Y55541D02*
X122000Y59000D01*
X118956Y54541D02*
X119335Y54921D01*
X124063D01*
X105000Y52874D02*
Y54752D01*
X103031Y54198D02*
X107431Y58598D01*
X107845Y57598D02*
X107850D01*
X105000Y54752D02*
X107845Y57598D01*
X107431Y58598D02*
X107436D01*
X122000Y59000D02*
X123500D01*
X125500Y61500D02*
Y62000D01*
X126000Y54953D02*
Y59586D01*
X125436Y60150D02*
X126000Y59586D01*
X124683Y60150D02*
X125436D01*
X124183Y60650D02*
X124683Y60150D01*
X132000Y42500D02*
Y46500D01*
X129817Y49031D02*
X129832Y49047D01*
Y51848D01*
X131482Y51539D02*
X132268Y52325D01*
X131482Y48461D02*
Y51539D01*
X132268Y52325D02*
X133825D01*
X132683Y40850D02*
X133650Y41817D01*
X131482Y48461D02*
X132268Y47675D01*
X132319D01*
X133650Y46344D01*
Y41817D02*
Y46344D01*
X131317Y40850D02*
X132683D01*
X133906Y49016D02*
X136000Y46921D01*
Y36000D02*
Y46921D01*
X132500Y32500D02*
X136000Y36000D01*
X130167Y42000D02*
X131317Y40850D01*
X124000Y42000D02*
X130167D01*
X122722Y43278D02*
X124000Y42000D01*
X122722Y43278D02*
Y46717D01*
X123508Y47502D01*
X123559D01*
X124518Y48461D01*
Y49571D01*
X123732Y50356D02*
X124518Y49571D01*
X122722Y50356D02*
X123732D01*
X122094Y50984D02*
X122722Y50356D01*
X127667Y32500D02*
X132500D01*
X126663Y33504D02*
X127667Y32500D01*
X123650Y33504D02*
X126663D01*
X130667Y34333D02*
X130833D01*
X129817Y45850D02*
Y49031D01*
X133825Y52325D02*
X137650Y56150D01*
X133906Y50984D02*
X137421Y54500D01*
X141500D02*
X142114D01*
X137421D02*
X141500D01*
X129969Y45079D02*
Y45850D01*
X129817D02*
X129969D01*
X106500Y138000D02*
X108295Y139795D01*
Y140484D01*
X109867Y132300D02*
X118514D01*
X102850Y139317D02*
Y141217D01*
Y139317D02*
X109867Y132300D01*
X84469Y156031D02*
X109200Y131300D01*
X84469Y156031D02*
Y158000D01*
X109200Y131300D02*
X118100D01*
X102850Y141217D02*
X107590Y145957D01*
X111179Y50863D02*
Y53179D01*
X113500Y52500D02*
X115199Y50801D01*
X106600Y64500D02*
X107000D01*
X105800Y65300D02*
X106600Y64500D01*
X108850Y55850D02*
Y57183D01*
X110500Y55500D02*
Y56500D01*
X108937Y53937D02*
X110500Y55500D01*
X115199Y47801D02*
Y50801D01*
X110411Y39411D02*
X112063Y41063D01*
X120516Y49016D02*
X122094D01*
X118500Y47000D02*
X120516Y49016D01*
X117150Y43993D02*
Y45850D01*
X115199Y47801D02*
X117150Y45850D01*
Y43993D02*
X117943Y43201D01*
X118833D02*
X121434Y40600D01*
X124400D01*
X117943Y43201D02*
X118833D01*
X118150Y41551D02*
Y41579D01*
X116729Y43000D02*
X118150Y41579D01*
X104881Y65300D02*
X105800D01*
X104299Y65882D02*
X104881Y65300D01*
X101118Y65882D02*
X104299D01*
X101000Y66000D02*
X101118Y65882D01*
X103885Y64882D02*
X106017Y62750D01*
X97264Y64882D02*
X103885D01*
X99310Y66000D02*
X101000D01*
X97650Y67660D02*
X99310Y66000D01*
X100118Y67736D02*
X100504Y67350D01*
X110179Y51277D02*
Y53765D01*
X109451Y50549D02*
X110179Y51277D01*
X100549Y50549D02*
X109451D01*
X106969Y53969D02*
X108850Y55850D01*
X108500Y69000D02*
Y70950D01*
X100504Y67350D02*
X109183D01*
X107869Y71581D02*
X108500Y70950D01*
X97650Y67660D02*
Y68683D01*
X96500Y69833D02*
X97650Y68683D01*
X96500Y69833D02*
Y71442D01*
X106969Y52874D02*
Y53969D01*
X108937Y52874D02*
Y53937D01*
X19000Y96500D02*
X21772Y99272D01*
X17350Y95816D02*
Y100050D01*
Y95816D02*
X18500Y94666D01*
X17350Y100050D02*
X23400Y106100D01*
X18500Y91500D02*
Y94666D01*
X11800Y64200D02*
Y84800D01*
X18500Y91500D01*
X56500Y152500D02*
X58968Y150032D01*
X62500D01*
X50966Y150897D02*
X54219Y154150D01*
X62319D01*
X62500Y153969D01*
X53295Y138291D02*
X59709D01*
X57410Y145975D02*
X59709Y143676D01*
Y138291D02*
Y143676D01*
X53295Y138291D02*
Y138516D01*
X44732Y134405D02*
X46382Y132755D01*
X52755D01*
X54500Y134500D01*
X52651Y140709D02*
X56705D01*
X48750Y140975D02*
X49241Y140484D01*
X52426D01*
X52651Y140709D01*
X56705Y140484D02*
Y140709D01*
X48705Y135984D02*
X53295Y138516D01*
X151532Y63917D02*
Y66500D01*
X142114Y54500D02*
X151532Y63917D01*
X110500Y136000D02*
Y137311D01*
X111705Y138516D01*
X110500Y136000D02*
X112709Y133791D01*
X119480D01*
X111705Y137737D02*
Y138516D01*
X116250Y140957D02*
X116295Y140912D01*
Y135984D02*
Y140912D01*
X122969Y134016D02*
X124910Y135957D01*
X119705Y134016D02*
X122969D01*
X146000Y88969D02*
Y91550D01*
X144266Y77234D02*
X145469Y76031D01*
X144266Y77234D02*
Y81460D01*
X146000Y83194D01*
Y85032D01*
X147468Y79968D02*
X150000Y82500D01*
X146000Y79968D02*
X147468D01*
X146469Y76031D02*
X150000Y72500D01*
X146000Y76031D02*
X146469D01*
X125967Y144002D02*
X132500Y137468D01*
X125967Y144002D02*
Y144007D01*
X109500Y153500D02*
X114033Y150897D01*
X7500Y69500D02*
Y75610D01*
X7500Y75610D02*
X7500Y75610D01*
X8000Y64500D02*
X12100Y60400D01*
X50967Y14033D02*
X56500Y8500D01*
X128500Y22000D02*
X132500D01*
X125967Y19467D02*
X128500Y22000D01*
X95561Y67561D02*
X96000Y68000D01*
X55025Y58597D02*
X61310Y64882D01*
X45741Y59344D02*
X46489Y58597D01*
X55025D01*
X46000Y60500D02*
X46800Y59700D01*
X46000Y60500D02*
X46000Y60500D01*
X30500Y60500D02*
X46000D01*
X30344Y42656D02*
X33618D01*
X35850Y35650D02*
X38217D01*
X27000Y48500D02*
X27984Y49016D01*
X31094D01*
X23500Y52500D02*
X27500D01*
X35032Y51532D02*
Y54921D01*
X31094Y50984D02*
Y51993D01*
X28850Y54238D02*
X31094Y51993D01*
X28850Y54238D02*
Y55605D01*
X29817Y56571D01*
X31734D01*
X32508Y57344D01*
X41492D01*
X31598Y57850D02*
X32092Y58344D01*
X29402Y57850D02*
X31598D01*
X28908Y58344D02*
X29402Y57850D01*
X27844Y58344D02*
X28908D01*
X31183Y58850D02*
X31678Y59344D01*
X29817Y58850D02*
X31183D01*
X29322Y59344D02*
X29817Y58850D01*
X26000Y56500D02*
X27844Y58344D01*
X23344Y59344D02*
X29322D01*
X23000Y59000D02*
X23344Y59344D01*
X24835Y64031D02*
X38398D01*
X24950Y62150D02*
X38311D01*
X38398Y62063D01*
X24600Y62500D02*
X24950Y62150D01*
X24717Y64150D02*
X24835Y64031D01*
X30500Y54921D02*
X33063D01*
X46850Y45317D02*
X47167Y45000D01*
X52126Y46969D02*
Y48937D01*
X82695Y144500D02*
X85850Y141345D01*
X77800Y144500D02*
X82695D01*
X75500Y146500D02*
X89100D01*
X73800Y147500D02*
X89800D01*
X89100Y146500D02*
X112256Y123344D01*
X89800Y147500D02*
X108900Y128400D01*
X74500Y145500D02*
X75500Y146500D01*
X74500Y144222D02*
Y145500D01*
Y144222D02*
X77222Y141500D01*
X122032Y128000D02*
X131500Y137468D01*
X118350Y128683D02*
X119100Y129433D01*
Y131714D01*
X118514Y132300D02*
X119100Y131714D01*
X119317Y126350D02*
X122817D01*
X123300Y125867D01*
X117350Y126902D02*
X121400Y122852D01*
Y116000D02*
Y122852D01*
X118100Y129848D02*
Y131300D01*
X117350Y129098D02*
X118100Y129848D01*
X108900Y128400D02*
X113965D01*
X120200Y122165D01*
Y120000D02*
Y122165D01*
X117350Y126902D02*
Y129098D01*
X118350Y127317D02*
X119317Y126350D01*
X118350Y127317D02*
Y128683D01*
X120000Y128000D02*
X122032D01*
X123300Y115500D02*
Y125867D01*
X43850Y117400D02*
Y117590D01*
Y117400D02*
X46500Y114750D01*
X21931Y118400D02*
X37600D01*
X45500Y122500D02*
X50600D01*
X51100Y123000D01*
X52100Y122000D01*
X44000Y125240D02*
X59209D01*
X42800Y124040D02*
X44000Y125240D01*
X98500Y9969D02*
X100531Y12000D01*
X98500Y7000D02*
Y9969D01*
X133068Y134099D02*
X133635Y133531D01*
X132350Y133381D02*
X133068Y134099D01*
X132000Y121500D02*
X132350Y121850D01*
X135000Y133700D02*
Y136000D01*
X132500Y133531D02*
X133635D01*
X135000Y133700D02*
X140100Y128600D01*
Y108000D02*
Y128600D01*
X106000Y76463D02*
X107869Y74594D01*
X106031Y79000D02*
X109000D01*
X103516Y81516D02*
X106031Y79000D01*
X78500Y134032D02*
X82500D01*
X70850Y75402D02*
Y77150D01*
X68000Y80000D02*
X70850Y77150D01*
X81200Y69552D02*
Y69634D01*
X74150Y70650D02*
X76000Y72500D01*
X76500Y48500D02*
X79969D01*
X83969Y44500D01*
X75000Y44250D02*
X79781D01*
X70750D02*
X75000D01*
X83183Y55850D02*
X84150Y56817D01*
X78437Y58766D02*
X79522Y59850D01*
X84150Y56817D02*
Y58150D01*
X66266Y58766D02*
X78437D01*
X84150Y58150D02*
X89390Y63390D01*
X43000Y54000D02*
X53000D01*
X54821Y51277D02*
Y54679D01*
X53850Y55650D02*
X54821Y54679D01*
X51316Y55650D02*
X53850D01*
X54821Y51277D02*
X55549Y50549D01*
X67874Y41063D02*
X73937D01*
X80500Y40500D02*
X91243D01*
X95743Y45000D01*
X60500Y91969D02*
Y95000D01*
X61000Y95500D01*
X58950Y97150D02*
X61683D01*
X57800Y96000D02*
X58950Y97150D01*
X64306Y93327D02*
X64882D01*
X62650Y94983D02*
X64306Y93327D01*
X62650Y94983D02*
Y96184D01*
X61683Y97150D02*
X62650Y96184D01*
X55968Y96000D02*
X57800D01*
X91358Y63692D02*
Y64882D01*
X87850Y60184D02*
X91358Y63692D01*
X98723Y50179D02*
X99451Y49452D01*
Y48423D02*
Y49452D01*
X97997Y46969D02*
X99451Y48423D01*
X65500Y43595D02*
X66905Y45000D01*
X65500Y43595D02*
X65549Y43546D01*
Y40549D02*
Y43546D01*
X63500Y40500D02*
Y47946D01*
X67600Y36400D02*
X80200D01*
X63500Y40500D02*
X67600Y36400D01*
X63500Y47946D02*
X66850Y51296D01*
X95743Y45000D02*
X97126D01*
X38565Y137500D02*
X40090Y135975D01*
X28000Y137500D02*
X38565D01*
X18900Y88700D02*
X26200Y96000D01*
X21317Y64150D02*
X24717D01*
X20350Y63183D02*
X21317Y64150D01*
X20350Y60650D02*
Y63183D01*
Y60650D02*
X20500Y60500D01*
X22000Y62500D02*
X24600D01*
X18850Y57150D02*
Y63264D01*
X33048Y77463D02*
X48295D01*
X18850Y63264D02*
X33048Y77463D01*
X18850Y57150D02*
X23500Y52500D01*
X31678Y59344D02*
X45741D01*
X61310Y64882D02*
X67736D01*
X46800Y59700D02*
Y59700D01*
Y59700D02*
X54714D01*
X62750Y67736D01*
X41164Y66751D02*
X47214Y60700D01*
X54300D01*
X55600Y62000D01*
X41164Y66751D02*
Y70736D01*
X32092Y58344D02*
X41906D01*
X44251Y56000D01*
X50252D01*
X50902Y56650D02*
X55126D01*
X58032Y53745D01*
X50252Y56000D02*
X50902Y56650D01*
X58032Y52874D02*
Y53745D01*
X50667Y55000D02*
X51316Y55650D01*
X43837Y55000D02*
X50667D01*
X41492Y57344D02*
X43837Y55000D01*
X41325Y52325D02*
X43000Y54000D01*
X39325Y52325D02*
X41325D01*
X42906Y50984D02*
X48300D01*
X42906Y49016D02*
X44600D01*
Y42000D02*
Y49016D01*
X37000Y50000D02*
X39325Y52325D01*
X142350Y56150D02*
Y78650D01*
X136700Y84300D02*
X142350Y78650D01*
X137650Y56150D02*
X142350D01*
X100118Y89390D02*
X101976D01*
X124400Y40600D02*
X130667Y34333D01*
X129969Y54921D02*
Y57531D01*
X128000Y54921D02*
Y56800D01*
X104400Y39500D02*
X106608Y41708D01*
X66850Y54850D02*
X68000Y56000D01*
Y57000D01*
X65350Y57850D02*
X66266Y58766D01*
X65350Y51448D02*
Y57850D01*
X66850Y51296D02*
Y54850D01*
X68000Y60500D02*
X68350Y60850D01*
Y62884D01*
X69705Y64238D01*
Y64882D01*
X60802Y46900D02*
X65350Y51448D01*
X56000Y46900D02*
X60802D01*
X73642Y61610D02*
Y64882D01*
X72531Y60500D02*
X73642Y61610D01*
X76300Y60500D02*
Y61610D01*
X75610Y62300D02*
X76300Y61610D01*
X46850Y48350D02*
X47000Y48500D01*
X46850Y45317D02*
Y48350D01*
X44600Y42000D02*
X47300Y39300D01*
X53700D01*
X47167Y45000D02*
X52126D01*
X71673Y63873D02*
Y64882D01*
X83969Y44500D02*
X87531D01*
X70000Y45000D02*
X70750Y44250D01*
X79781D02*
X80031Y44500D01*
X67874Y43032D02*
X68140Y42766D01*
X89023D02*
X90757Y44500D01*
X91469D01*
X94000Y46969D02*
Y47031D01*
X91469Y44500D02*
X94000Y47031D01*
X7500Y93743D02*
X7711D01*
X11969Y98000D01*
X5850Y95818D02*
X8031Y98000D01*
X5850Y91039D02*
Y95818D01*
Y91039D02*
X7500Y89389D01*
X33618Y42656D02*
X35032Y44069D01*
Y45079D01*
X17850Y64764D02*
X31548Y78462D01*
X16850Y68950D02*
X18900Y71000D01*
X55549Y50549D02*
X58546D01*
X60000Y52003D01*
Y52874D01*
X52500Y62063D02*
X56787Y66350D01*
X50602Y62063D02*
X52500D01*
X62750Y67736D02*
X64882D01*
X48332Y75531D02*
X56850Y67014D01*
Y66350D02*
Y67014D01*
X82500Y131450D02*
Y134032D01*
X46476Y97200D02*
X48776Y99500D01*
X44209Y97200D02*
X46476D01*
X32000Y31469D02*
Y34050D01*
X157500Y89390D02*
Y93743D01*
X92532Y103500D02*
X93327D01*
X52000Y103000D02*
X52032D01*
X60500Y88032D02*
Y89390D01*
X76300Y60500D02*
X76469D01*
X61690Y91969D02*
X62300Y91358D01*
X60500Y91969D02*
X61690D01*
X59969Y120000D02*
Y123500D01*
Y126000D01*
X82500Y137969D02*
Y139700D01*
X82469Y139731D02*
X82500Y139700D01*
X82469Y139731D02*
Y141500D01*
X78500Y137969D02*
X82500D01*
X55969Y99500D02*
Y103000D01*
X55968Y96000D02*
Y97700D01*
X55969Y97700D01*
Y99500D01*
X80469Y153500D02*
Y155700D01*
X80532Y155763D01*
Y158000D01*
X104300Y12000D02*
X108100D01*
X110203Y14103D01*
X114034D01*
X155469Y66500D02*
X157000D01*
X157500Y67000D01*
Y75611D01*
X32000Y22993D02*
Y27531D01*
Y22993D02*
X34000Y20993D01*
X39033D01*
X112256Y121500D02*
X118531D01*
X38000Y97969D02*
Y101374D01*
X36000Y103374D02*
X38000Y101374D01*
X36000Y103374D02*
Y103791D01*
X42200Y92400D02*
X45800Y96000D01*
X52031D01*
X42200Y92400D02*
Y103100D01*
X106744Y119328D02*
Y121500D01*
X105744Y118328D02*
X106744Y119328D01*
X52126Y48937D02*
X56756D01*
X57093Y48600D01*
X59342D01*
X47888Y66000D02*
X50602D01*
X45888Y68000D02*
X47888Y66000D01*
X52976Y127000D02*
X56032D01*
X51810Y128167D02*
X52976Y127000D01*
X51810Y128167D02*
Y129600D01*
X43500Y66652D02*
X46121Y64031D01*
X50602D01*
X54500Y45400D02*
X56000Y46900D01*
X76469Y60500D02*
Y60800D01*
X57410Y19043D02*
X62443D01*
X78100Y34700D01*
X46500Y114750D02*
X54460D01*
X54250Y123500D02*
X56032D01*
X53750Y123000D02*
X54250Y123500D01*
X53750Y120340D02*
Y123000D01*
X52810Y119400D02*
X53750Y120340D01*
X52810Y116400D02*
Y119400D01*
X96469Y60500D02*
X99050D01*
X138100Y106000D02*
X140100Y108000D01*
X130100Y106000D02*
X138100D01*
X126700Y102600D02*
X130100Y106000D01*
X126100Y93600D02*
X126700Y94200D01*
X120637Y93600D02*
Y95002D01*
X114731D02*
Y97231D01*
X116000Y98500D01*
X125100D02*
X128900Y94700D01*
X135400D01*
X143100Y87000D01*
X151500D01*
X106900Y114600D02*
X108300D01*
X110836Y112064D01*
X119864D01*
X123300Y115500D01*
X116700Y82798D02*
Y85871D01*
X82500Y137969D02*
X83500D01*
X84300Y137169D01*
X152000Y95800D02*
X153500Y94300D01*
X130700Y95800D02*
X152000D01*
X126550Y99950D02*
X130700Y95800D01*
X112763Y99363D02*
X113350Y99950D01*
X112763Y95002D02*
Y99363D01*
X63808Y104900D02*
X66805D01*
X119400Y114000D02*
X121400Y116000D01*
X111500Y114000D02*
X119400D01*
X27469Y27531D02*
X32000D01*
X23400Y106100D02*
X40700D01*
X98000Y98000D02*
X98945Y98945D01*
X105530D01*
X105850Y98626D01*
X130110Y84300D02*
X136700D01*
X36012Y89429D02*
X38000Y91417D01*
X140100Y98700D02*
X141700Y97100D01*
X158200D01*
X161300Y94000D01*
Y79410D02*
Y94000D01*
X157500Y75611D02*
X161300Y79410D01*
X43500Y73000D02*
Y75531D01*
X107500Y101300D02*
X111800Y105600D01*
X37000Y45079D02*
Y50000D01*
X64882Y95295D02*
X67595D01*
X67600Y95300D01*
X44000Y120400D02*
X50400D01*
X42800Y121600D02*
X44000Y120400D01*
X42800Y121600D02*
Y124040D01*
X59209Y125240D02*
X59969Y126000D01*
Y127000D01*
X99557Y29043D02*
X124910D01*
X40000Y90600D02*
X43800D01*
X38000Y92600D02*
Y94031D01*
X36500Y26800D02*
Y34000D01*
X15200Y63500D02*
X15300D01*
X147950Y104750D02*
X153700Y99000D01*
X132150Y104750D02*
X147950D01*
X128350Y100950D02*
X132150Y104750D01*
X42900Y39600D02*
Y47000D01*
X42300Y47600D02*
X42900Y47000D01*
X39500Y47600D02*
X42300D01*
X38969Y47069D02*
X39500Y47600D01*
X38969Y45079D02*
Y47069D01*
X106000Y33200D02*
X113900D01*
X97264Y100118D02*
Y101700D01*
X105300D01*
X110850Y107250D01*
X113000D01*
X113500Y106750D01*
Y104000D02*
Y106750D01*
X112400Y102900D02*
X113500Y104000D01*
X112400Y102100D02*
Y102900D01*
X111500Y101200D02*
X112400Y102100D01*
X124598Y82798D02*
X126700Y84900D01*
X120637Y82798D02*
X124598D01*
X63000Y103200D02*
X65736D01*
X39800Y96500D02*
Y103794D01*
X39300Y96000D02*
X39800Y96500D01*
X26200Y96000D02*
X39300D01*
X18900Y71000D02*
Y88700D01*
X38217Y35650D02*
X40467Y33400D01*
X44000D01*
X45100Y32300D01*
Y22000D02*
Y32300D01*
Y22000D02*
X47201Y19899D01*
X52100D01*
X56105Y15893D01*
X63193D01*
X76400Y29100D01*
X88532D01*
X62500Y153969D02*
X67331D01*
X73800Y147500D01*
X118000Y117800D02*
X120200Y120000D01*
X107750Y117800D02*
X118000D01*
X103350Y113400D02*
X107750Y117800D01*
X85000Y96400D02*
X86700D01*
X8031Y104500D02*
X21931Y118400D01*
X8031Y98000D02*
Y104500D01*
X94900Y28618D02*
X104300Y19218D01*
X95700Y121400D02*
X102200Y127900D01*
X131500Y137468D02*
X132500D01*
X77222Y141500D02*
X78531D01*
X112256Y121500D02*
Y123344D01*
X40937Y36700D02*
Y45079D01*
X70000Y62200D02*
X71673Y63873D01*
X80200Y36400D02*
X81219Y35381D01*
X38000Y92600D02*
X40000Y90600D01*
X38000Y91417D02*
Y92600D01*
X43500Y66652D02*
Y73000D01*
X104300Y12000D02*
Y19218D01*
X66000Y141500D02*
X77222D01*
X48776Y99500D02*
X52000D01*
X52031D01*
X52000D02*
Y103000D01*
X93327Y100118D02*
Y103500D01*
X111500Y75032D02*
X115000D01*
X50967Y14033D02*
Y14103D01*
X39033Y144007D02*
X42526Y147500D01*
X43000D01*
X125967Y19467D02*
Y20993D01*
X59532Y73032D02*
X61690D01*
X62300Y73642D01*
X47000Y75531D02*
X48332D01*
X56787Y66350D02*
X56850D01*
X43500Y79469D02*
X47000D01*
X57500Y71000D02*
X59532Y73032D01*
X43500Y79469D02*
Y81500D01*
X49000Y87000D01*
X48317Y88650D02*
X52983D01*
X38129Y78462D02*
X48317Y88650D01*
X36463Y79462D02*
X47000Y90000D01*
X31548Y78462D02*
X38129D01*
X24988Y79429D02*
X25022Y79462D01*
X36463D01*
X47000Y90000D02*
X53047D01*
X43800Y90600D02*
X44300Y91100D01*
X53700D01*
X58700Y86100D01*
X60084D01*
X52983Y88650D02*
X57633Y84000D01*
X58447D01*
X53047Y90000D02*
X58047Y85000D01*
X59116D02*
X59234Y84882D01*
X58047Y85000D02*
X59116D01*
X120637Y93600D02*
X126100D01*
X107500Y96000D02*
Y101300D01*
X53500Y112790D02*
X54460Y113750D01*
Y114750D01*
X56031Y116322D01*
Y120369D01*
X95295Y61673D02*
X96469Y60500D01*
X95295Y61673D02*
Y64882D01*
X100118Y81516D02*
X103516D01*
X95295Y100118D02*
Y102327D01*
X96469Y103500D01*
X104500Y83484D02*
Y85809D01*
X92531Y60500D02*
X93327Y61295D01*
Y64882D01*
X48295Y77463D02*
X49832Y79000D01*
X58711D01*
X63116Y77579D02*
X64882D01*
X61795Y78900D02*
X63116Y77579D01*
X58811Y78900D02*
X61795D01*
X58711Y79000D02*
X58811Y78900D01*
X61858Y75610D02*
X64882D01*
X60500Y76969D02*
X61858Y75610D01*
X66160Y89390D02*
X69050Y86500D01*
X64882Y89390D02*
X66160D01*
X36400Y75500D02*
X41164Y70736D01*
X26000Y66100D02*
Y69000D01*
X32500Y75500D01*
X36400D01*
X32500Y70542D02*
Y71500D01*
X107102Y92650D02*
X107926D01*
X107650Y85350D02*
X110500Y82500D01*
X101421Y87421D02*
X103088D01*
X104500Y85809D02*
X106000Y87309D01*
X30500Y45500D02*
X30921Y45079D01*
X33063D01*
X118668Y82798D02*
Y87500D01*
X107926Y92650D02*
X113076Y87500D01*
X115996D01*
X117404D02*
X118668D01*
X115996D02*
X116017Y87521D01*
X117383D01*
X117404Y87500D01*
X113469Y88521D02*
X125889D01*
X130110Y84300D01*
X118668Y91832D02*
Y95002D01*
X119500Y90500D02*
Y91000D01*
X118668Y91832D02*
X119500Y91000D01*
X116000D02*
X116700Y91700D01*
Y95002D01*
X108340Y93650D02*
X113469Y88521D01*
X107517Y93650D02*
X108340D01*
X100118Y91358D02*
X100410Y91650D01*
X112763Y82798D02*
Y84985D01*
X107098Y90650D02*
X112763Y84985D01*
X107650Y85350D02*
Y88683D01*
X106683Y89650D02*
X107650Y88683D01*
X106000Y87309D02*
Y88000D01*
X103088Y87421D02*
X105317Y89650D01*
X106683D01*
X101976Y89390D02*
X103236Y90650D01*
X107098D01*
X100410Y91650D02*
X107512D01*
X103136Y97264D02*
X104400Y96000D01*
X105850Y95316D02*
X107517Y93650D01*
X105850Y95316D02*
Y98626D01*
X104400Y95352D02*
Y96000D01*
Y95352D02*
X107102Y92650D01*
X72483Y69650D02*
X75683D01*
X79500Y67600D02*
X79547Y67553D01*
X75683Y69650D02*
X77579Y67755D01*
X79500Y67600D02*
Y69000D01*
X21772Y99272D02*
X24988D01*
X67874Y46969D02*
X70800D01*
X81516Y55850D02*
X83183D01*
X74850Y44400D02*
X75000Y44250D01*
X74850Y44400D02*
Y49183D01*
X81516Y55850D01*
X72900Y45900D02*
X73150Y46150D01*
Y48898D01*
X42900Y39600D02*
X47700Y34800D01*
X59318Y31282D02*
X60685D01*
X61651Y32249D01*
X57000Y30500D02*
X57218Y30282D01*
X64700Y33884D02*
Y34200D01*
X57218Y30282D02*
X61099D01*
X64700Y33884D01*
X58450Y32150D02*
X59318Y31282D01*
X61651Y36808D02*
X61969Y37126D01*
X61651Y32249D02*
Y34582D01*
X52600Y22800D02*
Y28433D01*
X56317Y32150D01*
X58450D01*
X53700Y39300D02*
X54500Y40100D01*
Y45400D01*
X75266Y57766D02*
X78851D01*
X103400Y71673D02*
X105227Y73500D01*
X106000Y76463D02*
Y77000D01*
X121738Y91900D02*
X126700D01*
X87850Y57816D02*
Y60184D01*
X95487Y50179D02*
X98723D01*
X89181Y48937D02*
X97126D01*
X88500Y48256D02*
X89181Y48937D01*
X89500Y59500D02*
X90500Y58500D01*
X98600D01*
X101200Y55900D01*
X93500Y56000D02*
X95098D01*
X87850Y57816D02*
X95487Y50179D01*
X95098Y56000D02*
X100549Y50549D01*
X105000Y70700D02*
X106873Y72573D01*
X107869Y72991D02*
Y74594D01*
Y72991D02*
X107873Y72987D01*
Y72159D02*
Y72987D01*
X107869Y72155D02*
X107873Y72159D01*
X107869Y71581D02*
Y72155D01*
X126000Y54953D02*
X126032Y54921D01*
X131937D02*
Y58282D01*
X125500Y61500D02*
X127000Y60000D01*
Y57800D02*
Y60000D01*
Y57800D02*
X128000Y56800D01*
X106608Y41708D02*
Y46292D01*
X97000Y39500D02*
X104400D01*
X94500Y34100D02*
X99557Y29043D01*
X129000Y58500D02*
X129969Y57531D01*
X92151Y37031D02*
X94151Y39031D01*
X81219Y35381D02*
X92881D01*
X97000Y39500D01*
X94500Y34100D02*
Y34500D01*
X73150Y48898D02*
X82252Y58000D01*
X82500D01*
X113900Y33200D02*
X114204Y33504D01*
X120350D01*
Y33683D01*
X121317Y34650D01*
X122683D01*
X123650Y33683D01*
Y33504D02*
Y33683D01*
X106608Y46292D02*
X111179Y50863D01*
X112063Y41063D02*
X112874D01*
X70500Y53000D02*
X75266Y57766D01*
X72069Y70650D02*
X74150D01*
X71124Y69705D02*
X72069Y70650D01*
X64882Y69705D02*
X71124D01*
X70395Y67561D02*
X72483Y69650D01*
X67561Y67561D02*
X70395D01*
X89500Y97000D02*
X90000D01*
X73642Y105142D02*
X76500Y108000D01*
X32500Y70542D02*
X37042Y66000D01*
X38398D01*
D40*
X119437Y70740D02*
D03*
Y63260D02*
D03*
D41*
X70067Y134248D02*
D03*
X90933D02*
D03*
D42*
X134500Y69508D02*
D03*
Y79508D02*
D03*
Y89508D02*
D03*
Y99508D02*
D03*
D43*
X57410Y145975D02*
D03*
X48750Y140975D02*
D03*
X40090Y135975D02*
D03*
X15000Y92500D02*
D03*
Y82500D02*
D03*
Y72500D02*
D03*
X40090Y29043D02*
D03*
X48750Y24043D02*
D03*
X57410Y19043D02*
D03*
X107590D02*
D03*
X116250Y24043D02*
D03*
X124910Y29043D02*
D03*
X150000Y72500D02*
D03*
Y82500D02*
D03*
Y92500D02*
D03*
X124910Y135957D02*
D03*
X116250Y140957D02*
D03*
X107590Y145957D02*
D03*
D44*
X82500Y23000D02*
D03*
X30972Y112250D02*
D03*
X134029D02*
D03*
D45*
X99000Y111000D02*
D03*
X96367Y110750D02*
D03*
X115500Y66500D02*
D03*
X96000Y106500D02*
D03*
X87000Y103500D02*
D03*
X87500Y107000D02*
D03*
X80677Y62258D02*
D03*
X71500Y48000D02*
D03*
X82500Y105500D02*
D03*
X74059Y116559D02*
D03*
X72000Y91500D02*
D03*
X74500D02*
D03*
X83500Y94500D02*
D03*
X84000Y76250D02*
D03*
X88321Y75000D02*
D03*
X97000Y115500D02*
D03*
X75500Y104000D02*
D03*
X127645Y110057D02*
D03*
X117100Y107400D02*
D03*
X119600Y101600D02*
D03*
X76000Y120500D02*
D03*
X73134Y124500D02*
D03*
X71700Y96300D02*
D03*
X77000Y150500D02*
D03*
X74000Y41000D02*
D03*
X115000Y60000D02*
D03*
X63000Y144000D02*
D03*
X68500Y116000D02*
D03*
X77555Y97439D02*
D03*
X126797Y65797D02*
D03*
X125500Y62000D02*
D03*
X123500Y59000D02*
D03*
X129832Y51848D02*
D03*
X132000Y42500D02*
D03*
X128000Y34500D02*
D03*
X130833Y34333D02*
D03*
X141500Y54500D02*
D03*
X106500Y138000D02*
D03*
X113500Y52500D02*
D03*
X106500Y60000D02*
D03*
X107000Y64500D02*
D03*
X110500Y56500D02*
D03*
X110411Y39411D02*
D03*
X118500Y47000D02*
D03*
X118150Y41551D02*
D03*
X115500Y45000D02*
D03*
X105500Y71000D02*
D03*
X108500Y69000D02*
D03*
X19000Y96500D02*
D03*
X56500Y152500D02*
D03*
X54500Y134500D02*
D03*
X146000Y91550D02*
D03*
X109500Y153500D02*
D03*
X7500Y69500D02*
D03*
X8000Y64500D02*
D03*
X56500Y8500D02*
D03*
X110000Y9000D02*
D03*
X132500Y22000D02*
D03*
X93500Y69500D02*
D03*
X96000Y68000D02*
D03*
X47000Y42500D02*
D03*
X27000Y48500D02*
D03*
X27500Y52500D02*
D03*
X35000Y51500D02*
D03*
X30500Y60500D02*
D03*
X23000Y59000D02*
D03*
X30500Y54921D02*
D03*
X77800Y144500D02*
D03*
X70134Y122500D02*
D03*
X67134Y124500D02*
D03*
X120000Y128000D02*
D03*
X43850Y117590D02*
D03*
X45500Y122500D02*
D03*
X98500Y7000D02*
D03*
X132000Y121500D02*
D03*
X135000Y136000D02*
D03*
X67561Y67561D02*
D03*
X68000Y80000D02*
D03*
X84000Y83000D02*
D03*
X69459Y74459D02*
D03*
X76000Y72500D02*
D03*
X86500Y69000D02*
D03*
X124500Y108000D02*
D03*
X53000Y54000D02*
D03*
X61000Y95500D02*
D03*
X28000Y137500D02*
D03*
X22000Y62500D02*
D03*
X26000Y56500D02*
D03*
X109000Y79000D02*
D03*
X110500Y82500D02*
D03*
X95900Y87400D02*
D03*
X68000Y57000D02*
D03*
Y60500D02*
D03*
X89500Y59500D02*
D03*
X47000Y48500D02*
D03*
X76500D02*
D03*
X20500Y60500D02*
D03*
X15200Y63500D02*
D03*
X85500Y38500D02*
D03*
X82500Y131450D02*
D03*
X37950Y113500D02*
D03*
X44209Y97200D02*
D03*
X69050Y86500D02*
D03*
X7500Y93743D02*
D03*
X32000Y34050D02*
D03*
X157500Y93743D02*
D03*
X118531Y121500D02*
D03*
X36000Y103791D02*
D03*
X42200Y92400D02*
D03*
Y103100D02*
D03*
X105744Y118328D02*
D03*
X59342Y48600D02*
D03*
X60392Y25222D02*
D03*
X45888Y68000D02*
D03*
X51810Y129600D02*
D03*
X78100Y34700D02*
D03*
X52810Y116400D02*
D03*
X99050Y60500D02*
D03*
X126700Y102600D02*
D03*
Y94200D02*
D03*
X151500Y87000D02*
D03*
X101291Y105400D02*
D03*
X106900Y114600D02*
D03*
X53500Y112790D02*
D03*
X63808Y104900D02*
D03*
X111500Y114000D02*
D03*
X140100Y98700D02*
D03*
X106400Y106900D02*
D03*
X111800Y105600D02*
D03*
X101200Y55900D02*
D03*
X67600Y95300D02*
D03*
X50400Y120400D02*
D03*
X72900Y45900D02*
D03*
X52600Y22800D02*
D03*
X36500Y26800D02*
D03*
Y34000D02*
D03*
X23200Y35700D02*
D03*
X12100Y60400D02*
D03*
X153700Y99000D02*
D03*
X128350Y100950D02*
D03*
X126700Y84900D02*
D03*
X51500Y106700D02*
D03*
X52100Y122000D02*
D03*
X88532Y29100D02*
D03*
X103350Y113400D02*
D03*
X86700Y96400D02*
D03*
X95800Y95200D02*
D03*
X94900Y28618D02*
D03*
X95700Y121400D02*
D03*
X102200Y127900D02*
D03*
X26000Y66100D02*
D03*
X40937Y36700D02*
D03*
X70000Y62200D02*
D03*
X43000Y147500D02*
D03*
X56850Y66350D02*
D03*
X57500Y71000D02*
D03*
X49000Y87000D02*
D03*
X121738Y91900D02*
D03*
X116700Y85871D02*
D03*
X119500Y107500D02*
D03*
X32500Y71500D02*
D03*
X22500Y74000D02*
D03*
X30500Y45500D02*
D03*
X119500Y90500D02*
D03*
X116000Y91000D02*
D03*
X111500Y101200D02*
D03*
X107500Y96000D02*
D03*
X106000Y88000D02*
D03*
X103500Y93500D02*
D03*
X83500Y68000D02*
D03*
X79500Y69000D02*
D03*
X122000Y33000D02*
D03*
X43500Y72000D02*
D03*
X64700Y34200D02*
D03*
X60001Y32932D02*
D03*
X57000Y30500D02*
D03*
X59000Y42000D02*
D03*
X32500Y81500D02*
D03*
X99000Y147500D02*
D03*
X66000Y28000D02*
D03*
X105227Y73500D02*
D03*
X106000Y77000D02*
D03*
X126700Y91900D02*
D03*
X88500Y48256D02*
D03*
X93500Y56000D02*
D03*
X130500Y76500D02*
D03*
X129000Y58500D02*
D03*
X92151Y37031D02*
D03*
X94500Y34500D02*
D03*
X82500Y58000D02*
D03*
X44500Y15000D02*
D03*
X156000Y101500D02*
D03*
X70500Y53000D02*
D03*
X74500Y68000D02*
D03*
X90000Y97000D02*
D03*
D56*
X64882Y97264D02*
D03*
Y95295D02*
D03*
Y93327D02*
D03*
Y91358D02*
D03*
Y89390D02*
D03*
Y87421D02*
D03*
Y85453D02*
D03*
Y83484D02*
D03*
Y81516D02*
D03*
Y79547D02*
D03*
Y77579D02*
D03*
Y75610D02*
D03*
Y73642D02*
D03*
Y71673D02*
D03*
Y69705D02*
D03*
Y67736D02*
D03*
X100118D02*
D03*
Y69705D02*
D03*
Y71673D02*
D03*
Y73642D02*
D03*
Y75610D02*
D03*
Y77579D02*
D03*
Y79547D02*
D03*
Y81516D02*
D03*
Y83484D02*
D03*
Y85453D02*
D03*
Y87421D02*
D03*
Y89390D02*
D03*
Y91358D02*
D03*
Y93327D02*
D03*
Y95295D02*
D03*
Y97264D02*
D03*
D57*
X67736Y64882D02*
D03*
X69705D02*
D03*
X71673D02*
D03*
X73642D02*
D03*
X75610D02*
D03*
X77579D02*
D03*
X79547D02*
D03*
X81516D02*
D03*
X83484D02*
D03*
X85453D02*
D03*
X87421D02*
D03*
X89390D02*
D03*
X91358D02*
D03*
X93327D02*
D03*
X95295D02*
D03*
X97264D02*
D03*
Y100118D02*
D03*
X95295D02*
D03*
X93327D02*
D03*
X91358D02*
D03*
X89390D02*
D03*
X87421D02*
D03*
X85453D02*
D03*
X83484D02*
D03*
X81516D02*
D03*
X79547D02*
D03*
X77579D02*
D03*
X75610D02*
D03*
X73642D02*
D03*
X71673D02*
D03*
X69705D02*
D03*
X67736D02*
D03*
D58*
X67874Y48937D02*
D03*
Y46968D02*
D03*
Y45000D02*
D03*
Y43031D02*
D03*
Y41063D02*
D03*
X52126D02*
D03*
Y43031D02*
D03*
Y45000D02*
D03*
Y46968D02*
D03*
Y48937D02*
D03*
X97126Y41063D02*
D03*
Y43031D02*
D03*
Y45000D02*
D03*
Y46968D02*
D03*
Y48937D02*
D03*
X112874D02*
D03*
Y46968D02*
D03*
Y45000D02*
D03*
Y43031D02*
D03*
Y41063D02*
D03*
D59*
X63937Y37126D02*
D03*
X61968D02*
D03*
X60000D02*
D03*
X58031D02*
D03*
X56063D02*
D03*
Y52874D02*
D03*
X58031D02*
D03*
X60000D02*
D03*
X61968D02*
D03*
X63937D02*
D03*
X101063Y52874D02*
D03*
X103032D02*
D03*
X105000D02*
D03*
X106968D02*
D03*
X108937D02*
D03*
Y37126D02*
D03*
X106968D02*
D03*
X105000D02*
D03*
X103032D02*
D03*
X101063D02*
D03*
D60*
X38398Y69937D02*
D03*
Y67968D02*
D03*
Y66000D02*
D03*
Y64031D02*
D03*
Y62063D02*
D03*
X50602D02*
D03*
Y64031D02*
D03*
Y66000D02*
D03*
Y67968D02*
D03*
Y69937D02*
D03*
D61*
X120637Y95002D02*
D03*
X118668D02*
D03*
X116700D02*
D03*
X114732D02*
D03*
X112763D02*
D03*
Y82798D02*
D03*
X114732D02*
D03*
X116700D02*
D03*
X118668D02*
D03*
X120637D02*
D03*
D62*
X24988Y99272D02*
D03*
X36012Y89429D02*
D03*
X24988Y79429D02*
D03*
D63*
X38969Y54921D02*
D03*
X35032D02*
D03*
X33063Y45079D02*
D03*
X35032D02*
D03*
X38969D02*
D03*
X40937D02*
D03*
X33063Y54921D02*
D03*
X40937D02*
D03*
X37000D02*
D03*
Y45079D02*
D03*
X126031D02*
D03*
X129969D02*
D03*
X131937Y54921D02*
D03*
X129969D02*
D03*
X126031D02*
D03*
X124063D02*
D03*
X131937Y45079D02*
D03*
X124063D02*
D03*
X128000D02*
D03*
Y54921D02*
D03*
D64*
X31095Y50984D02*
D03*
Y49016D02*
D03*
X42906D02*
D03*
Y50984D02*
D03*
X133905Y49016D02*
D03*
Y50984D02*
D03*
X122095D02*
D03*
Y49016D02*
D03*
D65*
X81516Y96484D02*
Y100118D01*
X83484Y97916D02*
Y100118D01*
Y97916D02*
X85000Y96400D01*
X103031Y52874D02*
Y54198D01*
X124242Y34500D02*
X128000D01*
X123096Y35646D02*
X124242Y34500D01*
X112874Y43031D02*
X116703D01*
X116732Y43003D01*
Y43003D02*
Y43003D01*
X116729Y43000D02*
X116732Y43003D01*
X112874Y45000D02*
X115500D01*
X96500Y71442D02*
X98700Y73642D01*
X94782Y66907D02*
X94907D01*
X94057Y66182D02*
X94782Y66907D01*
X94057Y66057D02*
Y66182D01*
X94907Y66907D02*
X95561Y67561D01*
X93327Y65327D02*
X94057Y66057D01*
X93327Y64882D02*
Y65327D01*
X100118Y75610D02*
X100374Y75354D01*
X64882Y85453D02*
X65881D01*
X68309Y75610D02*
X69459Y74459D01*
X64882Y75610D02*
X68309D01*
X81200Y67116D02*
Y69552D01*
Y67116D02*
X81516Y66800D01*
X55600Y62000D02*
X59075Y65475D01*
Y69403D01*
X48300Y50984D02*
X50347Y48937D01*
X106873Y72573D02*
Y74182D01*
X95900Y87400D02*
X97847Y85453D01*
X100118D01*
X87421Y64306D02*
Y64882D01*
X85453Y64306D02*
Y64882D01*
X75610Y62300D02*
Y64882D01*
X60318Y70646D02*
X61243D01*
X59075Y69403D02*
X60318Y70646D01*
X62300Y91358D02*
X64882D01*
X50347Y48937D02*
X52126D01*
X98700Y73642D02*
X100118D01*
X95183Y43031D02*
X97126D01*
X94151Y42000D02*
X95183Y43031D01*
X94151Y39031D02*
Y42000D01*
X69705Y100118D02*
Y102000D01*
X66805Y104900D02*
X69705Y102000D01*
X98500Y93327D02*
X100118D01*
X98000Y93827D02*
X98500Y93327D01*
X98000Y93827D02*
Y98000D01*
X62900Y79547D02*
X64882D01*
X100118Y71673D02*
X103400D01*
X62600Y81516D02*
X64882D01*
X62700Y83484D02*
X64882D01*
X105000Y34200D02*
Y37126D01*
Y34200D02*
X106000Y33200D01*
X67736Y100118D02*
Y101200D01*
X65736Y103200D02*
X67736Y101200D01*
X100118Y83484D02*
X104500D01*
X73642Y64882D02*
Y66642D01*
X62300Y73642D02*
X64882D01*
X62373Y71673D02*
X64882D01*
X61243Y70646D02*
X61294Y70697D01*
X61397D01*
X62373Y71673D01*
X60084Y86100D02*
X62700Y83484D01*
X59234Y84882D02*
X62600Y81516D01*
X58447Y84000D02*
X62900Y79547D01*
X100118Y87421D02*
X101421D01*
X90900Y77579D02*
X100118D01*
X87297Y79547D02*
X100118D01*
X60500Y89390D02*
X64882D01*
X81516Y64882D02*
Y66800D01*
X100118Y97264D02*
X103136D01*
X100118Y95295D02*
X101705D01*
X103500Y93500D01*
X83484Y67984D02*
X83500Y68000D01*
X83484Y64882D02*
Y67984D01*
X79547Y64882D02*
Y67553D01*
X77579Y64882D02*
Y67755D01*
X47700Y34800D02*
X57500D01*
X58032Y35332D01*
Y37126D01*
X61651Y34582D02*
Y36808D01*
X60001Y32932D02*
Y37125D01*
X60000Y37126D02*
X60001Y37125D01*
X56063Y37126D02*
Y39063D01*
X59000Y42000D01*
X100374Y75354D02*
X105701D01*
X106873Y74182D01*
X106969Y37126D02*
X107533Y34500D01*
X119758D01*
X120904Y35646D01*
X123096D01*
X73642Y66642D02*
X75000Y68000D01*
D66*
X19076Y42928D02*
D03*
X16518Y47360D02*
D03*
X148483D02*
D03*
X145924Y42928D02*
D03*
X79941Y157213D02*
D03*
X85059D02*
D03*
M02*
